<svg xmlns="http://www.w3.org/2000/svg" width="900" height="900" viewBox="0 0 900 900">
  <defs>
    <style>
      .cls-1, .cls-10, .cls-6, .cls-8 {
        fill: #fff;
      }

      .cls-1 {
        stroke: #fbfff2;
      }

      .cls-1, .cls-8 {
        stroke-miterlimit: 10;
      }

      .cls-2 {
        fill: #fc0;
      }

      .cls-2, .cls-5 {
        fill-opacity: 0.67;
      }

      .cls-2, .cls-7 {
        opacity: 0.6;
      }

      .cls-3 {
        fill: #ce2828;
      }

      .cls-3, .cls-5 {
        opacity: 0.8;
      }

      .cls-4 {
        fill: #606060;
      }

      .cls-5 {
        fill: #146f67;
      }

      .cls-7 {
        fill: #161616;
      }

      .cls-10, .cls-8, .cls-9 {
        stroke: #000;
      }

      .cls-8 {
        stroke-width: 2px;
      }

      .cls-9 {
        fill: none;
      }

      .cls-10, .cls-9 {
        stroke-linecap: round;
        stroke-linejoin: round;
        stroke-width: 6px;
      }
    </style>
  </defs>
  <title>mictlantecuhtli</title>
  <g id="Capa_1" data-name="Capa 1">
    <g id="Capa_3" data-name="Capa 3">
      <polygon class="cls-1" points="346.39 488.04 337.75 490.68 331.22 494.2 327 499.23 322.27 508.66 320.11 516.29 318.85 524.25 318.85 535.81 318.85 544.29 320.35 556.27 322.28 561.54 328.89 572.85 336.05 577.94 346.39 582.2 355.24 584.71 367.97 585.99 391.01 588.65 415.49 591.47 429.93 593.14 439.91 591.79 444.05 586.86 444.96 581.07 445.08 572.63 443.26 565.05 436.14 559.91 428.22 557.43 415.49 555.64 404.19 553.2 391.7 550.93 385.35 549.72 379.1 545.36 374.79 540.59 374.58 532.8 374.9 529.92 379.1 531.94 385.73 531.26 391.01 527.12 397.1 525.87 408.44 524.99 409.01 528.47 408.84 533.91 406.57 536.63 411.59 537.74 416.88 535.16 421.66 528.47 423 523.64 436.06 524.01 470.38 524.99 470.1 517.05 465.36 507.34 471.11 501.87 472.27 494.2 472.41 487.4 462.19 487.4 438.12 487.4 429.42 486.51 421.35 484.35 415.96 476.95 412.88 466.83 412.14 453.31 408.83 459.83 403.22 468.98 346.39 488.04"/>
      <circle class="cls-2" cx="214.35" cy="725.54" r="25.86"/>
      <circle class="cls-2" cx="308.36" cy="697.89" r="25.86"/>
      <circle class="cls-2" cx="385.78" cy="642.59" r="25.86"/>
      <polygon class="cls-3" points="158.23 543.38 171 546.77 184.1 547.47 187.05 553.38 191.39 558.91 189.7 565.1 187.05 569.05 183 579.77 181.54 588.71 182.33 592.57 172.03 593.14 153.57 595.7 152.89 566.45 158.23 543.38"/>
      <polygon class="cls-3" points="428.6 524.25 446.73 524.68 458.18 529.75 466.99 537.74 474.59 550.48 478.12 561.76 482.48 570.95 490.03 577.94 499.81 579.77 498.95 583.88 493.8 590 487.41 592.22 480.06 592.57 472.41 591.79 463.39 587.94 456.98 583.88 449.24 577.94 444.34 569.54 443.26 565.05 439.83 561.76 436.14 559.91 424.21 556.87 404.19 553.2 391.7 550.93 385.35 549.72 379.1 545.36 374.54 537.74 374.9 529.92 379.1 531.94 385.73 531.26 391.01 527.12 397.1 525.87 408.44 524.99 409.01 528.47 408.84 533.91 406.57 536.63 411.59 537.74 416.88 535.16 421.66 528.47 423 523.64 428.6 524.25"/>
      <polygon class="cls-4" points="415.49 430.62 418.77 436.08 422.79 438.43 430.32 439.35 439 439.35 445.75 439.28 452.3 439.35 455.67 440.41 461.35 442.94 466.14 447.58 468.67 454.74 468.62 459.41 467.4 465.57 464.09 470.63 459.31 473.92 464.73 473.86 470.46 475.11 471.68 479.94 472.41 487.4 462.19 487.4 452.3 487.53 438.12 487.4 429.42 486.51 421.35 484.35 417.85 479.94 415.96 476.95 412.88 466.83 412.29 459.07 412.14 453.31 414.42 445.41 415.4 438.43 415.49 430.62"/>
      <polygon class="cls-5" points="255.34 546.77 261.11 553.76 269.91 561.76 279.04 570.53 289.6 577.94 306.91 588.53 346.77 608.74 370.16 618.72 365.18 624.79 355.24 635.55 344.5 645.54 328.89 657.74 312.75 668.39 301.77 673.08 285.63 681.85 277.96 685.03 264.75 689.9 255.34 692.94 244.79 695.96 225.46 700.35 208.47 703.59 182.33 706.35 153.75 707.68 155.91 699.16 156.31 676.98 156.06 652.13 156.66 627.23 156.62 595.7 164.86 594.13 182.33 592.57 184.83 601.05 191.39 610.21 201.62 618.03 212.26 621.83 223.94 621.23 233.2 618.14 242 611.9 247.68 605.91 251.76 594.72 252.71 583.33 251.76 573.96 246.34 566.45 242.4 561.76 247.76 557.13 255.34 546.77"/>
      <polygon class="cls-5" points="176.63 707.74 124.89 793.57 221.82 793.57 285.63 681.85 271.04 687.58 255.34 692.94 240.21 697 225.46 700.35 229.65 705.18 235.15 710.18 239.33 721.98 240.21 725.54 237.16 737.71 231.9 743.92 223.94 749.29 214.35 751.39 208.47 750.86 202.61 748.89 196.2 744.54 191.39 740.38 188.5 731.2 188.12 721.98 191.39 712.51 198.51 704.64 176.63 707.74"/>
      <polygon class="cls-2" points="252.71 739.89 358.45 734.77 359.88 742.54 363.41 752.99 366.29 763.55 366.29 768.83 366.29 775.57 360.58 781.03 355.24 782.63 347.01 782.63 340.55 781.03 336.07 776.14 335.53 780.36 330.86 784.79 321.43 786.53 316.03 786.45 310.15 784.79 304.16 779.54 300.42 784.79 291.04 787.4 282.45 787.4 272.33 783.91 269.53 777.18 267.32 782.68 261.95 786.33 252.71 786.59 241.65 786.45 236.06 782.68 232.82 774.3 252.71 739.89"/>
      <polygon class="cls-1" points="421.35 653.06 449.24 666.2 445.83 674.91 452.3 678.18 463.39 683.79 474.25 689.28 478.17 684.55 483.42 681.01 489.49 679.16 498.79 679.79 506.15 683.63 511.12 689.28 513.82 695.98 513.82 705.05 512.01 710.18 507.64 716.08 502.15 719.9 492.7 722.1 497.29 725.54 499.81 731.87 499.39 739.89 497.89 744.54 493 751.39 483.42 756.67 475.29 757.32 473.7 763.55 471.11 771.61 466.65 777.18 460.52 781.03 452.3 782.63 444.05 781.03 437.86 777.18 433.15 771.14 430.9 764.22 431.38 755.4 432.88 751.26 405.79 734.77 396.25 742.72 379.94 730.02 372 721.83 382.67 708.7 395.9 691.62 421.35 653.06"/>
      <polygon class="cls-1" points="514.29 708.7 522.22 708.7 528.27 711.69 535.62 715.44 544.12 721.28 549.88 726.96 554 732.9 556.95 739.8 558.94 748.15 561.41 757.32 563.73 764.22 544.51 783.91 540.44 782.63 535.28 777.77 533.54 774.09 532.02 765.66 531.37 757.32 529.57 750.95 525.14 744.54 518.67 740.49 513.82 738.87 508.76 738.13 502.98 736.46 499.81 731.87 497.29 725.54 492.7 722.1 504.01 718.61 514.29 708.7"/>
      <polygon class="cls-1" points="596.51 645.55 587.75 650.04 583.58 651.82 577.27 654.28 571.95 659.03 569.52 664.19 568.96 672.03 572.92 678.97 576.18 681.85 582.74 684.55 588.64 684.55 596.51 680.42 603.88 674.35 612.87 663.78 627.31 679.27 621.16 681.85 614 685.82 608.25 690.13 603.24 695.96 601.23 703.74 602.57 710.18 605.86 715.06 611.4 718.74 618.79 719.84 627.31 716.08 633.5 707.68 641.07 695.96 655.89 679.49 677 659.03 670.49 649.1 662.18 638.44 648.9 623.75 638.91 613.96 632.69 619.46 615.76 633 596.51 645.55"/>
      <polygon class="cls-6" points="205.02 499.23 205.71 502.69 206.49 510.08 206.42 520.8 206.49 527.12 208.47 530.52 211.93 532.45 219.57 532.8 225.57 531.94 229.72 530.52 231.44 521.89 231.7 508.24 239.11 508.49 246.23 508.24 249.06 512.39 253.49 519.95 254.84 524.99 255.91 533.9 255.91 540.06 254.43 544.29 249.72 554.46 242.4 561.76 246.34 566.45 249.69 571.09 252.26 581.07 252.71 591.79 250.73 597.55 247.68 605.91 242 611.9 235.85 616.68 227.3 620.44 216.14 621.96 212.26 621.83 201.62 618.03 193.84 612.67 187.84 605.25 182.33 592.57 181.54 583.33 187.05 569.05 193.84 560.59 191.39 558.91 184.1 547.47 181.54 536.03 181.54 527.12 184.1 519.95 188.4 512.4 193.84 506.28 205.02 499.23"/>
      <polygon class="cls-6" points="654.6 382.69 738.83 381.14 736.32 384.79 734.99 387.66 735.9 390.59 739.36 394.15 739.36 398.02 737.81 401.99 739.36 405.51 741.19 408.1 741.19 411.49 738.83 416.54 737.95 420.85 741.19 424.88 743.09 428.02 742.04 432.52 739.61 434.87 738.83 439.55 740.95 442.15 741.46 447.18 739.36 451.08 737.16 454.08 738.81 456.99 739.92 461.2 738.07 465.24 736.44 468.98 738.71 474.87 714.08 474.87 700.39 475.85 685.7 476.95 665.27 479.69 664.37 475.85 666.88 471.63 666.68 467.95 663.88 464.9 662.24 460.17 664.29 453.88 661.4 451.35 658.5 447.52 659.98 442.15 659.05 438.43 656.48 435.09 657.48 429.13 657.89 424.22 654.6 418.33 654.21 413.39 657.48 408.08 655.48 405.13 652.46 401.95 652.46 397.05 656.83 393 657.07 390.71 653.37 386.54 654.6 382.69"/>
      <polygon class="cls-6" points="702.79 519.53 742.73 518.77 742.1 545.82 716.66 548.67 720.18 551.11 719.97 555.08 715.25 558.11 707.47 559.84 696.71 562.74 689.26 565.26 685.47 562.78 684.98 558.83 686.85 554.03 688.85 551.01 688.28 547.47 691.94 542.01 696.71 537.74 701.39 531.94 702.37 524.25 702.79 519.53"/>
      <polygon class="cls-6" points="667.75 518.7 675.73 508.24 680.87 502.12 686.85 495.19 691.94 492.06 694.58 493.4 696.22 495.29 697.04 500.05 695.31 505.38 690.8 510.83 683.46 520.9 679.26 524.99 674.93 526.97 670.87 526.97 667.91 524.25 667.75 518.7"/>
      <polygon class="cls-6" points="685.49 579.77 686.85 575.92 691.94 572.16 709.59 568.23 718.37 567.06 721.4 570.05 721.07 575.47 718.74 578.2 712.65 579.11 707.95 579.31 702.32 580.76 695.31 583.88 688.99 583.81 685.49 579.77"/>
      <polygon class="cls-6" points="684.31 603.39 685.47 599.36 691.18 596.71 698.18 593.64 707.61 591.97 720.03 590.57 722.76 590 722.37 593.64 721.59 598.26 718.77 601.24 713.86 603.39 709.59 603.39 702.73 604.15 695.31 606.52 691.94 608.71 687.8 608.71 684.95 607.02 684.31 603.39"/>
      <polygon class="cls-6" points="686.85 624.26 687.8 619.46 691.94 617.85 698.18 615.37 706.65 612.96 714.01 611.52 720.87 610.62 723.75 613.96 723.75 616.29 722.76 619.7 717.67 621.36 711.84 621.61 707.13 623.24 702.36 624.26 696.4 626.84 693.08 629.06 689.31 628.92 686.85 624.26"/>
      <polygon class="cls-6" points="697.04 635.18 705.3 633.4 717.56 630.81 727.42 629.91 732.46 630.05 737.21 631.45 743.18 635.54 745.93 639.4 748.74 645.55 751.09 652.87 754.31 661.04 758.71 668.39 765.35 679.24 771.03 687.71 782.16 703.04 778.93 706.5 771.84 712.23 762.8 717.5 747.8 724.71 737.17 728.66 726.46 731.96 722.46 723.78 715.65 708.7 709.84 694.07 704.24 677.34 699.7 659.4 697.04 635.18"/>
      <path class="cls-7" d="M452.3,304.09s-53.53,12-59.54,78c0,0,12,11.37,17.29,22.35,0,0-20.44-29.28-56.41-26.72,0,0-39.71,3.64-49.48,46,0,0-9.24,44.35,40.35,63.79,0,0-24.24,1.14-26.15,43,0,0-3,43.32,21.88,50.55L290.3,571s-30.17-7.54-34.39-30.89a39.37,39.37,0,0,0-9.68-31.82H231.7l-.3,15.86s.07,11.21-9.58,9.81c0,0-15.2,1.58-15.19-9.81L205,499.23l-7.82,4.36-7.5,6.49-5.09,9-3.07,11.4,2.56,17-13.1-.7-19.75-5.67s1.24-82.29,3.94-131c0,0-.72-80.6,122.77-120C278,290.15,355.2,273.25,452.3,304.09Z"/>
      <polygon class="cls-7" points="350.7 706.35 358.45 734.77 252.71 739.49 283.55 684.56 282.72 694.62 283.55 705.14 287.89 715.14 294.85 719.9 303.96 723.68 311.72 723.52 319.06 721.34 326.73 716.08 332.39 705.18 334.17 692.95 328.89 681.85 321.29 674.91 308.36 672.03 318.85 664.45 333.71 653.97 344.5 645.54 365.18 624.79 361.61 636.01 359.95 644.34 362.57 653.97 370.16 663.18 377.93 667.22 385.78 668.44 395.31 666.63 402.95 661.91 407.77 656.18 410.05 648 421.35 653.06 416.85 660.45 410.05 673.07 402.66 682.14 398.86 687.58 391.7 697.35 385.73 704.99 377.02 715.14 370.28 721.98 350.7 706.35"/>
      <polygon class="cls-7" points="499.81 731.87 503.45 736.46 510.82 737.35 519.84 741 526.48 746.25 529.61 751.26 531.78 758.72 531.78 768.83 533.54 774.3 523.91 780.76 516.67 785.52 510.82 785.52 502.98 784.5 496.88 782.63 487.41 778.33 472.41 768.83 473.78 762.54 473.78 756.88 480.06 756.94 487.41 754.47 493.17 751.26 497.49 744.54 498.79 737.71 499.81 731.87"/>
      <polygon class="cls-7" points="514.29 708.7 568.96 674.35 573.8 679.92 578.82 684.55 585.11 684.55 593.29 682.33 603.88 674.35 610.35 667.14 612.11 662.05 627.31 679.27 619.38 682.72 611.43 687.58 606.7 691.62 603.24 695.96 601.23 703.74 602.57 710.18 608.25 718.61 563.73 764.22 561.84 758.7 557.97 747.68 556 737.13 551.43 729.29 545.09 722.1 537.28 716.58 529.37 711.31 514.29 708.7"/>
      <polygon class="cls-8" points="140.81 271.09 130.19 233 123.82 203.75 120.93 180.52 121.75 172.97 126.37 164.02 130.87 159.01 139.3 154.27 150.31 151.64 155.43 151.64 155.03 139.87 153.98 130.18 150.76 122.38 145.92 114.08 140.93 109.01 134.53 105.56 129.59 103.48 124.78 99.44 123.92 95.03 126.48 90.53 130.95 87.75 138.18 86.82 144.2 87.69 150.16 89.33 158.34 92.19 167.4 97.87 174.16 104.98 177.4 109.97 180.87 117.58 182.9 124.59 184.01 131.64 185.81 123.81 189.18 112.79 193.63 103.73 197.53 98.17 205.14 90.83 214.08 85.93 222.75 83.7 231.25 83.7 237.43 85.6 239.11 89.08 239.11 93.36 237.51 96.19 234.38 99.32 229.16 101.86 223.05 105.29 218.73 109.46 215.6 114.83 214.25 119.72 212.71 127.64 212.23 135.55 212.76 146.29 213.23 150.25 219.15 149.63 227.47 148.81 233.28 150.28 240.35 152.66 245.66 157.32 248.79 163.58 251.26 169.25 251.26 175.05 250.48 184.11 248.95 192.93 233.28 272.08 234 277.49 234.79 284.78 234.59 290.52 233.88 296.63 232.16 301.85 227.87 310.95 224.71 315.53 217.69 322.8 210.8 327.61 205.8 330.1 200.64 331.96 194.08 333.29 186.1 333.93 175.43 332.5 169.17 330.46 162.3 327.02 156.51 322.89 151.02 317.51 146.22 310.95 142.45 302.81 139.68 292.21 139.68 282.51 140.81 271.09"/>
      <polygon class="cls-3" points="654.6 382.69 658.29 379.54 659.12 377.38 659.12 372.99 656.86 370.71 656.86 367.33 659.12 364.04 661.33 359.72 659.23 354.41 658.99 351.86 660.66 349.34 663.48 347.11 663.48 344.54 662.65 341.66 662.64 338.7 664.89 335.2 668.1 332.92 669.29 330.26 668.63 324.85 669.29 321.53 672.44 320.53 675.15 319.23 677.59 316.66 677.79 313.2 678.11 309.6 680.76 306.65 684.39 304.89 685.2 300.57 686.12 295.93 689.1 293.55 692.47 292.38 694.55 290.06 696.71 293.55 700.16 295.95 703.13 297.66 704.05 301.54 706.18 304.74 710.33 306.66 712.31 308.69 713.51 314.12 716.29 317.51 718.95 318.45 720.28 321.72 719.96 325.01 721.27 327.73 724.96 329.75 726.73 333.35 725.77 337.47 726.11 342.22 729.21 344.69 732.89 348.71 732.79 352.37 731.58 357.48 734.67 359.87 735.84 363.41 735.12 366.15 735.84 370.77 738.83 376.49 738.83 379.48 737.66 381.92 654.6 382.69"/>
      <polygon class="cls-3" points="655.48 482.61 669.79 478.85 687.8 475.85 717.44 475.85 747.3 476.62 745.65 488.9 743.18 508.24 742.73 518.77 702.79 519.53 702.83 513.92 701.16 508.24 696.71 502.12 697.04 497.69 694.58 493.4 690.81 492.81 686.18 495.8 668.38 517.83 668.29 523.22 665.6 524.25 662.82 505.35 658.73 493.73 655.48 482.61"/>
      <path class="cls-3" d="M726.46,732s38.25-9.83,55.7-28.92l14.29,18.23,10.14,12.26,9,10.51,20.18,22.57L827.69,774l-16.14,11-17,9.28-21.42,9.85-19.27,7.54L755,805.2l-1.86-9.06-2.06-10.62-5.84-14.47-8.13-17.65Z"/>
      <path class="cls-7" d="M638.91,614l8-8,5.6-9.59,3-8.19,2.33-12.67V562.29l-.7-15.52.7-9,3.63-9.27,6.85-5.25,3.14,3.33,7.83-1.56,5-4.92L690,512l6.7-9.88,4.45,6.12,1.67,5.68v5.62l-1.4,9.66-1.4,3.6-3.28,7.26L690,544.17l-2.17,5.31L685,558.83l1.87,6.52,2.87,4.31,5.59,1.29-8.46,5-1.36,3.85,2,4.11-.64,4.88,4.45,3.81,5.74,1.07-5.1,2.75-6.47,3-1.16,4,2.54,5.32L692,614l8.89.55L692,617.88l-4.14,2.82-.65,4.89,3.79,3.46,2.14,3.28,4,2.88v10.37H692L677,659.4S669,641.89,638.91,614Z"/>
      <polygon class="cls-7" points="716.66 548.67 738.08 546.77 748.72 546.77 755.45 548.67 759.34 552.51 762.27 559.99 762.69 564.57 761.2 570.79 765.13 574.12 767.26 580.76 767.26 586.38 765.21 591.76 762.8 594.35 765.51 597.34 767.98 603.39 766.96 610.73 763.2 615.12 759.1 618.15 760.65 623.09 760.28 628.1 758.45 632.28 753.96 635.86 746.39 638.21 743.18 635.54 738.39 631.69 729.56 629.94 722.76 630.04 710.54 631.84 699.32 635.18 694.79 634.24 690.94 629.02 696.25 626.62 702.73 624.12 706.7 622.37 714.48 621.63 721.77 620.77 723.9 618.47 723.97 614.51 722.82 611.66 719.47 609.87 714.01 611.52 703.51 613.96 697.04 614.51 691.94 613.96 686.85 608.71 693.08 607.35 699.32 605.1 705.46 603.39 713.79 602.97 718.05 601.27 721.59 598.26 722.76 590 713.79 590 706.47 592.33 697.04 593.64 693.08 592.9 686.85 588.76 687.49 583.88 690.93 583.72 696.07 582.48 702.32 580.76 708.48 579.47 716.28 578.4 720.18 576.81 721.59 572.38 721.24 567.59 712.56 568.23 702.73 570 695.31 570.95 689.72 569.66 687.15 568.23 686.85 565.35 693.08 563.93 702.73 560.96 710.43 559.61 714.48 558.41 719.11 556.6 720.88 554.12 720.18 551.11 716.66 548.67"/>
    </g>
  </g>
  <g id="Capa_2" data-name="Capa 2">
    <g id="Capa_2-2" data-name="Capa 2">
      <g>
        <circle class="cls-6" cx="359.57" cy="434.19" r="55.72"/>
        <path d="M412.29,434.19c-.14,21.91-14,42.17-34.77,49.59A53.32,53.32,0,0,1,319,467.85c-14.28-17-16-42.09-4.49-61a52.72,52.72,0,0,1,97.79,27.36c0,3.85,6,3.86,6,0a58.71,58.71,0,0,0-104-37.41c-15.63,19.08-17.86,46.62-5,67.79a59.34,59.34,0,0,0,62,27.14c23.51-4.69,42.48-24.39,46.17-48.09a64.71,64.71,0,0,0,.77-9.43C418.31,430.32,412.31,430.32,412.29,434.19Z"/>
      </g>
      <path d="M325.58,426.84a34.06,34.06,0,0,0,68.12,0,3,3,0,0,0-3-3H328.58c-3.86,0-3.86,6,0,6H390.7l-3-3c-.13,11.5-7.23,22.26-18.16,26.28a28.06,28.06,0,0,1-38-26.28C331.54,423,325.54,423,325.58,426.84Z"/>
      <circle class="cls-9" cx="361.3" cy="433.2" r="6.36"/>
      <path class="cls-9" d="M312.54,465.78s-29.42,12.34-27,42.68S318,547.69,318,547.69"/>
      <path d="M346.09,485.26c-9.87.52-18.79,7.83-23.7,15.95-6,9.91-7.58,22-7.48,33.38a149.26,149.26,0,0,0,1.82,20.47,34.91,34.91,0,0,0,1.53,6.12A38.53,38.53,0,0,0,336,582.67c8.15,4.44,16.93,4.83,25.89,5.87l57.73,6.66,8.7,1,1.32.15c-1.62-.19-.5-.05-.12,0a24.37,24.37,0,0,0,2.56.25c4.55.17,9.37-1.18,12.36-4.8,4.29-5.19,3.38-12.93,3.35-19.23,0-1.32.1-2.8-.94-3.82a3,3,0,0,0-3.63-.47,3.53,3.53,0,0,0-1.56,3c-.28,3.33,5.4,4.15,5.89.8,1.46-10-9-15-17.23-16.47-12.85-2.29-25.64-4.87-38.44-7.45-1.73-.34-3.45-.69-5.18-1l-1-.19c-.45-.09.73.37,0,0-3.82-1.92-7.57-4.68-8.48-9.14-.6-2.9.12-6.24.52-9.14a20.89,20.89,0,0,1,1.85-6.93c2.56-4.89,8.42-5.75,13.4-6.26,20.55-2.11,41.28-2.91,61.91-3.93a12.61,12.61,0,0,0,1.94-.1c-1.26.13-.44,0,.42.05.5,0,1,.08,1.52.09,4.2.07,8.59-1.08,11.73-4,4.9-4.55,4.43-11.59,4.55-17.72.09-5.1.28-11.39-3.39-15.45s-8.82-3.3-13.68-3.32c-2.4,0-4.8-.1-7.2-.14-.78,0-1.57-.06-2.35-.05s.81.18,0,0c-3-.63-6.89-1.56-8.29-4.7a8.08,8.08,0,0,1,1.12-7.57c1.21-1.51,3.07-1.72,4.86-1.53a14.77,14.77,0,0,1,2.63.7c3.58,1.47,5.13-4.34,1.6-5.78a13.16,13.16,0,0,0-10.63.26c-5.34,2.81-7.35,10.54-5.19,15.93,3.34,8.32,12.77,8.65,20.29,8.8,2.07,0,4.06,0,6.12-.1s4.66-.1,6.17,1.45c1.33,1.37,1.63,3.7,1.78,5.57a92.49,92.49,0,0,1,0,9.42c-.15,5.13-.52,10.22-6.22,11.76a13.42,13.42,0,0,1-4.55.42c-.24,0-1.59-.13-.82-.05s-.37,0-.67-.06c-2.56-.08-5.19.25-7.74.38l-15.77.85c-11.94.67-23.88,1.35-35.79,2.38-5.58.48-11.47.74-16.54,3.34s-7.7,7.64-8.68,13.14c-1.08,6.13-2.27,13,1.19,18.61a21.21,21.21,0,0,0,10.08,8.31c2.41.92,5.16,1.17,7.68,1.68q9.78,2,19.57,3.88c6.59,1.29,13.24,2.39,19.82,3.73,4.83,1,9.89,3.14,11,7.85.18.72,0,0,0,.31v.69c0,.23-.16,1.43.07-.11l5.89.8v-.15A2.82,2.82,0,0,1,446,573.4l-3.63-.47c-.75-.73-.82-2.84-.82-1.27v2.53c0,3.47.36,7.3-.49,10.67-1,4.09-4.54,5.63-8.2,5.69a19,19,0,0,1-2-.07c-1.14-.06.34.06-.54-.07l-1.53-.2-7-.81L366.18,583c-6.5-.75-13.45-.85-19.73-2.55a32.61,32.61,0,0,1-21.13-17.36,35.8,35.8,0,0,1-2.65-7.79q-.12-.54-.21-1.08c0-.22-.2-1.23-.09-.48s-.06-.47-.08-.62c-.34-2.36-.66-4.72-.91-7.1-1.24-12.13-1.29-25.19,3.4-36.67A30.7,30.7,0,0,1,337,494.55a28.68,28.68,0,0,1,3.25-1.7c.5-.22-.5.2.13-.05l.73-.29c.46-.16.91-.32,1.37-.46.75-.23,1.51-.43,2.28-.59s1.79-.26.76-.15a4.93,4.93,0,0,1,.54-.05c3.84-.21,3.86-6.21,0-6Z"/>
      <path d="M266.9,449.85a67.38,67.38,0,0,1-3.1-21.7c0-14.92,4.58-29.72,15.22-40.54,8.61-8.76,19.93-14.08,31.63-17.38,3.71-1.05,2.13-6.84-1.6-5.78-20.25,5.71-38.35,17.66-46.52,37.67-5.24,12.83-5.72,27.23-3.4,40.77a59.61,59.61,0,0,0,2,8.55c1.2,3.65,7,2.09,5.79-1.59Z"/>
      <path d="M318.71,368.21c.76-.12-.68.08-.19,0l1.6-.19q2.89-.3,5.8-.46a133.07,133.07,0,0,1,19.15.29c16.79,1.46,34.28,6.48,47,18.07,8.69,7.94,14.17,18.33,16.92,29.7.9,3.76,6.69,2.17,5.78-1.59a64.5,64.5,0,0,0-15.31-29.24,67.77,67.77,0,0,0-24.08-16.06c-14.82-6.06-31.37-7.9-47.29-7.27a100.27,100.27,0,0,0-10.94.94c-3.81.57-2.19,6.36,1.6,5.79Z"/>
      <path class="cls-9" d="M415.18,430.83s1.53,8.74,13.15,8.74c9.69,0,17.11-.07,17.11-.07s22.93-1.8,22.93,18.4c0,16.24-12.28,16.18-12.28,16.18"/>
      <path d="M252.61,540.28c.13,4.69,3,9.29,5.8,12.84,8.6,10.87,22.47,17,35.3,21.14,14.13,4.6,28.89,7,43.62,8.73,3.83.43,3.8-5.57,0-6-20.73-2.35-42.94-6.16-61.2-16.87a47.16,47.16,0,0,1-12.32-9.85c-.32-.36-.64-.74-.94-1.12-.5-.62.36.5-.1-.12l-.4-.54c-.48-.67-.94-1.35-1.36-2.06a18.44,18.44,0,0,1-1-1.88c-.14-.28-.27-.57-.4-.86-.28-.59.19.63-.14-.34s-.56-1.85-.8-2.8,0,.75,0-.27c-.11-3.86-6.11-3.87-6,0Z"/>
      <path d="M232,462.78c-6.7-.45-12,3.06-12.75,9.92a16.1,16.1,0,0,0,2,10.3c1.45,2.3,3,4.44,5.44,5.78,3.64,2,8.33,2.18,12.36,1.81S247.11,489,250,486c3.08-3.24,4.24-7.53,4.84-11.84a53.55,53.55,0,0,0-.79-20.49c-3.14-12.49-12.57-21.28-25.39-23.21-13.38-2-27.45,1-35.63,12.45a37.85,37.85,0,0,0-6.58,19.72,47.24,47.24,0,0,0,9.26,29.55,34.61,34.61,0,0,0,5.48,6.11c.52.41-.14-.59.12.28.2.65.41,1.28.57,1.94,1.63,6.59,1.93,14.09,1.77,20.79-.1,4.2-.31,8.44,2.88,11.77,4,4.19,10.76,2.92,16,3a10.41,10.41,0,0,0,9.34-4.58c3.22-4.72,2.22-11.45,2.36-16.92l.15-6-3,3c5,0,10.12.28,15.14,0,8.12-.49,13.53-6.6,14.25-14.55.6-6.63-1.69-13.48-7.91-16.61-3.45-1.73-6.49,3.44-3,5.18,5.28,2.66,6.31,9.89,4,15-1.34,3.06-4.06,4.5-7.09,5,.71-.11-.58,0-1,0H231.39a3.06,3.06,0,0,0-3,3c-.1,4-.31,8.05-.31,12.06,0,2.42.32,5-.93,7.15a5.45,5.45,0,0,1-1.4,1.62c-1,.68-.6.35-1.53.7-.77.29-.16,0,0,0h-2.57c-2,0-4.08-.13-6.11,0-2.24.13-4.34,0-5.4-2.12a8.43,8.43,0,0,1-.75-4.34c0-.46.06-.92.09-1.38-.12,1.6,0-.18,0-.65.06-1.37,0-2.76,0-4.13-.09-3.87-.27-7.74-.71-11.59-.38-3.35-.7-7.22-2.29-10.29a12.41,12.41,0,0,0-2.52-2.84,40.7,40.7,0,0,1-7.22-10.27,42.81,42.81,0,0,1-4.28-16.18,33.33,33.33,0,0,1,0-4.24,11.57,11.57,0,0,1,.11-1.17c0-.1.12-1,0-.45s.08-.49.11-.66a40.42,40.42,0,0,1,1-4.46c2.27-7.88,7.63-15,15.86-17.75,10.83-3.69,25.83-2.24,33.51,7,5.32,6.41,6.6,15.26,6.31,23.27a38.51,38.51,0,0,1-.28,3.87c0,.2-.05.41-.07.61-.06.51.12-.84,0-.21a4.2,4.2,0,0,1-.08.47c-.5,3.4-1.05,7.21-3.75,9.65-2.91,2.63-7.34,2.72-11,2.49-2.47-.15-4.9-.72-6.52-2.71-.47-.57-.92-1.46-1.41-2.13-.12-.17-.8-1.29-.43-.43a1.27,1.27,0,0,0-.1-.37c-.8-2.4-1.27-6.41.44-8.62,1.28-1.65,3.75-1.7,5.82-1.56,3.85.27,3.84-5.73,0-6Z"/>
      <path class="cls-9" d="M245.92,508.46l2.84,4.15A37.19,37.19,0,1,1,201.46,501l3.25-1.57"/>
      <path class="cls-9" d="M242.09,562a35.19,35.19,0,1,1-49.77,0h0"/>
      <path class="cls-9" d="M210.17,571.31v17.14s-.35,7.3,4.29,7.36c2.75,0,7.19,1.33,7-6.13-.17-9.2,0-18.51,0-18.51"/>
      <path class="cls-9" d="M303.86,424s-42.34,8.89-52.4,57.69"/>
      <path class="cls-9" d="M412.82,450.64s-6.8,36.67,21.09,37,38.2,0,38.2,0"/>
      <path class="cls-9" d="M374.48,531.14A18.15,18.15,0,0,0,390.7,529a21.24,21.24,0,0,1,16.24-3.37"/>
      <path d="M395.28,514.72a20.92,20.92,0,0,1,8.3,7.53c1.48,2.41,1.87,4.84,2.31,7.57.18,1.07.62,3.39-1.28,3.94a3,3,0,0,0-.72,5.48c7.69,5,16.25-1.32,19.71-8.31a18.29,18.29,0,0,0-4.73-22.37c-3-2.38-7.26,1.84-4.24,4.25a12.42,12.42,0,0,1,4.12,14.38c-1.37,3.32-4.22,7.44-8.16,7.76a6.35,6.35,0,0,1-2.92-.49c-.4-.14.29,0-.36-.17a1.9,1.9,0,0,1-.39-.23l-.71,5.49c7.71-2.24,6.31-12,3.94-17.61a25.83,25.83,0,0,0-11.84-12.4c-3.44-1.72-6.48,3.45-3,5.18Z"/>
      <circle class="cls-10" cx="483.11" cy="437.7" r="20.03"/>
      <circle class="cls-10" cx="487.11" cy="470.85" r="18.74"/>
      <circle class="cls-10" cx="526.31" cy="481.88" r="20.46" transform="translate(-33.65 924.21) rotate(-80.78)"/>
      <circle class="cls-10" cx="523.61" cy="430.83" r="20.46" transform="translate(14.47 878.67) rotate(-80.78)"/>
      <g>
        <path class="cls-6" d="M620.87,393.21s5.21,14.65,6.13,49.16l-65.59-2.8s-18.45,1.29-17.34-12.73,7.54-13.72,23.17-17.85S620.87,393.21,620.87,393.21Z"/>
        <path d="M618,394a71.91,71.91,0,0,1,2.68,11.41,247.43,247.43,0,0,1,3.32,37l3-3-62.57-2.67c-6.06-.26-16.45.53-17.37-7.6-.36-3.19.33-7.56,2.27-10.2,1.64-2.23,4.42-3.2,7-4,7.68-2.34,15.58-4,23.32-6.27,14.06-4,28.06-8.27,42-12.55,3.68-1.13,2.11-6.93-1.59-5.79q-19.29,5.91-38.66,11.57c-8.18,2.37-16.42,4.44-24.63,6.66-7.39,2-13.35,5.33-15,13.33-.89,4.22-1.26,8.9.9,12.81a14.58,14.58,0,0,0,7.75,6.26c3.6,1.39,7.39,1.58,11.2,1.62,10.45.11,20.93.9,31.37,1.35l34,1.45a3,3,0,0,0,3-3,261.43,261.43,0,0,0-3.47-38.09,75.31,75.31,0,0,0-2.76-11.86C622.49,388.8,616.69,390.36,618,394Z"/>
      </g>
      <g>
        <path class="cls-6" d="M627,502.37S623.43,517.5,605.48,547l-53.57-37.94s-15.63-6.71-7.67-20.11c7.18-12.08,13.78-7.43,29.15-2.42S627,502.37,627,502.37Z"/>
        <path d="M624.11,501.57a71.33,71.33,0,0,1-3.94,11,251.61,251.61,0,0,1-17.28,32.87l4.1-1.08-50.22-35.57c-5.69-4-14.56-7.85-10.93-16.47,1.27-3,3.73-6.83,7.06-7.81,3.08-.89,6.62.43,9.51,1.38,7.6,2.48,15.12,5.09,22.77,7.39,13.64,4.11,27.32,8.06,41,11.94,3.72,1.06,5.31-4.73,1.59-5.78q-18.82-5.34-37.6-10.92-12.28-3.66-24.38-7.81c-7.22-2.47-15-4.28-20.79,2-6,6.53-8.39,15.77-2.34,23,2.3,2.76,5.26,4.27,8.18,6.17,9,5.83,17.57,12.44,26.31,18.63l26.79,19a3,3,0,0,0,4.1-1.08,258.19,258.19,0,0,0,17.71-33.86,77.6,77.6,0,0,0,4.12-11.47C630.79,499.41,625,497.81,624.11,501.57Z"/>
      </g>
      <path d="M422.7,526.86,464.19,528l5.89.17a3.06,3.06,0,0,0,3-3c.47-6.31-.23-13.94-4.56-18.87-2.55-2.91-6.78,1.35-4.24,4.24,3.15,3.59,3.13,10.11,2.8,14.63l3-3L428.58,521l-5.88-.17c-3.86-.11-3.86,5.89,0,6Z"/>
      <path d="M418,510.29v3.85a3,3,0,0,0,6,0v-3.85a3,3,0,1,0-6,0Z"/>
      <line class="cls-9" x1="435.75" y1="510.29" x2="435.75" y2="524.23"/>
      <line class="cls-9" x1="451.99" y1="508.7" x2="451.99" y2="524.32"/>
      <path d="M444,527.47c.7.06-.49-.08-.25,0,.47.09,1,.16,1.42.26A33.52,33.52,0,0,1,450,529.2a37.22,37.22,0,0,1,12.85,8.94A49.68,49.68,0,0,1,474.51,561a31.5,31.5,0,0,0,3.76,9.86c4.66,7.61,12.43,11.59,21.2,12.19l-3-3v.9c0,.07.16-.64,0,.12a10.72,10.72,0,0,1-1.21,3.37,9.59,9.59,0,0,1-3.34,3.33,16.4,16.4,0,0,1-7.6,2A39.73,39.73,0,0,1,449,571.27a49.33,49.33,0,0,1-3.22-5.94c-.39-.83,0-.06-.23-.51l-.3-.76c-.08-.23-.17-.46-.24-.69-1.18-3.66-7-2.09-5.79,1.6,3,9.37,10.07,17.89,18.15,23.31a45.7,45.7,0,0,0,26,7.5c6.16-.14,12.47-2,16.23-7.18a14.9,14.9,0,0,0,2.9-8.6,3.06,3.06,0,0,0-3-3,19.9,19.9,0,0,1-16.63-10.27c-1.76-3.21-2.31-6.85-3.41-10.49-4.25-14-13.15-26.79-27-32.51a29.3,29.3,0,0,0-8.43-2.25c-3.84-.35-3.82,5.66,0,6Z"/>
      <path d="M454.57,300.23c-7.22,1.53-14.33,4.87-20.7,8.5a86.09,86.09,0,0,0-34.3,35.83c-5.93,11.79-9,24.66-10.12,37.77-.32,3.84,5.68,3.82,6,0,1.69-20.13,8.94-39.65,23.14-54.29a82.19,82.19,0,0,1,16.7-13.19c2.54-1.52,5.16-2.91,7.84-4.17a60.86,60.86,0,0,1,6.08-2.53,50.42,50.42,0,0,1,7-2.13c3.77-.8,2.17-6.58-1.6-5.79Z"/>
      <path d="M434.88,293.27a55.91,55.91,0,0,0-12.42,5.9A88.23,88.23,0,0,0,398,321.59,102.45,102.45,0,0,0,385.41,344c-1.48,3.56,4.32,5.11,5.79,1.59,8.05-19.36,22.52-36.58,41.89-45.28l.62-.27.5-.2c.4-.16.8-.32,1.2-.46s.71-.26,1.06-.36c3.69-1.11,2.12-6.9-1.59-5.79Z"/>
      <path d="M411.72,288.15A68.66,68.66,0,0,0,400.78,296a93,93,0,0,0-20.06,23.41,87.51,87.51,0,0,0-9,20.92c-1.07,3.72,4.72,5.31,5.78,1.6a84.74,84.74,0,0,1,33.68-46.32c1.16-.79,2.35-1.57,3.59-2.25,3.39-1.85.37-7-3-5.18Z"/>
      <path d="M394.16,284.93a110.19,110.19,0,0,0-15.09,15.45c-9.36,11.35-17.08,24.3-20.66,38.67-.94,3.75,4.85,5.35,5.78,1.6,3.42-13.73,10.83-26.17,19.88-36.93a108.86,108.86,0,0,1,14.33-14.55c3-2.43-1.27-6.66-4.24-4.24Z"/>
      <path d="M375,281.38a94.47,94.47,0,0,0-11.66,15.4,122.08,122.08,0,0,0-16.54,40.55c-.77,3.77,5,5.38,5.79,1.59a117,117,0,0,1,15.94-39.11,87.5,87.5,0,0,1,10.71-14.18C381.94,282.85,377.7,278.63,375,281.38Z"/>
      <path d="M354.05,280.49a95.25,95.25,0,0,0-9.38,16.83,112.61,112.61,0,0,0-10.23,41.43c-.17,3.87,5.83,3.86,6,0a105.31,105.31,0,0,1,9.91-39.5,92.23,92.23,0,0,1,8.88-15.73c2.28-3.12-2.92-6.12-5.18-3Z"/>
      <path d="M337.34,280.49a126,126,0,0,0-7.68,17.35,131.43,131.43,0,0,0-8.43,39.5c-.18,3.86,5.82,3.85,6,0a126.4,126.4,0,0,1,8.21-37.9,115.51,115.51,0,0,1,7.08-15.92c1.88-3.38-3.3-6.4-5.18-3Z"/>
      <path d="M318.4,283.49a74.35,74.35,0,0,0-5.51,15,135.48,135.48,0,0,0-4.38,40.24c.13,3.86,6.13,3.87,6,0a130.06,130.06,0,0,1,4.16-38.64,97,97,0,0,1,3.5-10.49c.34-.86.14-.38.41-1,.18-.41.36-.81.55-1.22s.29-.6.45-.9c1.79-3.41-3.38-6.45-5.18-3Z"/>
      <path d="M298.85,286.26a100,100,0,0,0-2.12,13,389.73,389.73,0,0,0-2.43,41.83c-.05,3.86,5.95,3.86,6,0a392.11,392.11,0,0,1,2.38-41.39,91.63,91.63,0,0,1,1.95-11.86c1-3.74-4.82-5.34-5.78-1.59Z"/>
      <path d="M282.53,288.1c-3.49,19.41-3,40-.1,59.39.57,3.81,6.35,2.19,5.79-1.59a192.9,192.9,0,0,1-1.63-39.75,139.79,139.79,0,0,1,1.73-16.46C289,285.92,283.21,284.3,282.53,288.1Z"/>
      <path d="M264.88,292.48c-.66,7.26-.84,14.59-.78,21.87.12,12.56.81,25.85,5.13,37.76,1.3,3.61,7.1,2.05,5.78-1.59-4.21-11.65-4.83-24.51-4.91-36.79-.05-7.08.14-14.2.78-21.25C271.23,288.64,265.23,288.66,264.88,292.48Z"/>
      <path d="M247.43,300a196.58,196.58,0,0,0,1,21.43c1.23,12.75,3.28,25.77,8.61,37.52,1.59,3.51,6.77.46,5.18-3-5-11.08-6.82-23.71-7.9-35.74a194.27,194.27,0,0,1-.91-20.18c0-3.86-6-3.87-6,0Z"/>
      <path d="M230,308.19A94.91,94.91,0,0,0,232.13,328c2.65,13.19,7.78,25.87,16.17,36.46,2.4,3,6.62-1.25,4.24-4.24-7.85-9.91-12.34-22.1-14.74-34.4a87,87,0,0,1-1.8-17.63C236.06,304.32,230.06,304.32,230,308.19Z"/>
      <path d="M214,321.9a83.58,83.58,0,0,0,4.15,20.57c4.52,14.21,12.2,27.4,23.15,37.6,2.83,2.63,7.08-1.6,4.25-4.24a81.1,81.1,0,0,1-21.79-35.49,95.27,95.27,0,0,1-3.17-13.43,39.88,39.88,0,0,1-.59-5c-.21-3.84-6.21-3.87-6,0Z"/>
      <path d="M199.41,336a151.07,151.07,0,0,0,21.07,42,92.91,92.91,0,0,0,13.61,15.36c2.88,2.56,7.14-1.67,4.25-4.24-10.76-9.54-18.6-21.95-24.9-34.77a144.27,144.27,0,0,1-8.24-19.88c-1.16-3.67-7-2.1-5.79,1.6Z"/>
      <path d="M183.21,347.49A83.91,83.91,0,0,0,189,360.83a135,135,0,0,0,20.15,28.81,139.34,139.34,0,0,0,19.57,17.63c3.09,2.31,6.09-2.9,3-5.19a130,130,0,0,1-28.82-29.79,123.08,123.08,0,0,1-12.33-22.12c-.58-1.4-1.15-2.82-1.61-4.27-1.15-3.67-6.94-2.1-5.78,1.59Z"/>
      <path d="M170.55,363.8a93.73,93.73,0,0,0,7.85,14,126.58,126.58,0,0,0,24.79,28.11,105.76,105.76,0,0,0,22.29,14.33c3.47,1.65,6.52-3.52,3-5.18-21.67-10.28-39.15-28.45-50.39-49.49-.84-1.58-1.67-3.17-2.38-4.81-1.53-3.54-6.7-.49-5.18,3Z"/>
      <path d="M160.32,380a99.15,99.15,0,0,0,9.05,13.72,129.61,129.61,0,0,0,26.5,26.37,101.05,101.05,0,0,0,22.59,12.43c3.6,1.42,5.16-4.38,1.6-5.79-21.63-8.52-39.6-25.69-51.87-45.19-.94-1.5-1.87-3-2.69-4.57-1.79-3.42-7-.39-5.18,3Z"/>
      <path d="M155.81,402.31c13.49,13.76,28,27.12,44,38,3.2,2.18,6.2-3,3-5.19-15.51-10.57-29.64-23.65-42.77-37-2.71-2.77-7,1.48-4.24,4.24Z"/>
      <path d="M152.92,421.54c13.08,9.5,26.21,19,39.1,28.74,3.08,2.33,6.07-2.88,3-5.19-12.89-9.77-26-19.23-39.1-28.73-3.13-2.28-6.12,2.93-3,5.18Z"/>
      <path d="M151.93,440.3c12,6.71,24,13.39,35.95,20.19,3.37,1.91,6.39-3.27,3-5.18-11.95-6.8-24-13.48-36-20.2-3.37-1.88-6.4,3.3-3,5.19Z"/>
      <path d="M151.93,456.69c11.37,7.13,24.12,14.05,37.28,17.06,3.76.85,5.36-4.93,1.59-5.79-12.68-2.9-24.88-9.57-35.85-16.45-3.28-2.06-6.29,3.13-3,5.18Z"/>
      <path d="M150.47,471.79A111.5,111.5,0,0,0,194,488a3.11,3.11,0,0,0,3.69-2.09c.4-1.4-.49-3.47-2.09-3.69a107.62,107.62,0,0,1-42.13-15.64c-3.27-2.08-6.28,3.11-3,5.18Z"/>
      <path d="M150.47,485.47a68.12,68.12,0,0,0,12.5,7,155.35,155.35,0,0,0,37.69,11.47c3.77.68,5.39-5.1,1.59-5.78-12.58-2.26-25.1-5.67-36.72-11.08a66.81,66.81,0,0,1-12-6.76c-3.08-2.33-6.08,2.88-3,5.18Z"/>
      <path d="M150.47,502a93.17,93.17,0,0,0,38.93,11.25c3.86.2,3.85-5.8,0-6a86.22,86.22,0,0,1-35.9-10.43c-3.39-1.85-6.42,3.33-3,5.18Z"/>
      <path d="M150.47,529.93c9.21,5,20.38,7.3,30.76,7.19,3.86,0,3.87-6,0-6-9.33.1-19.44-1.86-27.73-6.37-3.39-1.84-6.42,3.34-3,5.18Z"/>
      <path d="M183.79,544.69c-10.81.2-22-2.45-32-6.26-3.61-1.37-5.18,4.43-1.59,5.78,10.56,4,22.33,6.68,33.64,6.48,3.86-.07,3.87-6.07,0-6Z"/>
      <line class="cls-9" x1="152.59" y1="595.91" x2="182.02" y2="592.78"/>
      <circle class="cls-9" cx="213.42" cy="725.75" r="25.86"/>
      <circle class="cls-9" cx="308" cy="698.04" r="25.86"/>
      <circle class="cls-9" cx="385.43" cy="642.75" r="25.86"/>
      <polyline class="cls-9" points="176.72 707.29 124.58 793.78 221.51 793.78 285.32 682.07"/>
      <path d="M331.74,695.29,387,740l7.67,6.22c1.17.94,3.13,1.35,4.25,0,5.85-7,11.5-14.26,17.07-21.52,9.8-12.79,19.49-25.84,27.63-39.76,3.32-5.66,6.95-11.87,8.2-18.39a3.06,3.06,0,0,0-1.38-3.39l-34.29-15.38-4.89-2.19c-3.49-1.57-6.55,3.6-3,5.18l34.29,15.38,4.9,2.19L446,665c-1,5.32-3.75,10.19-6.39,14.88-3.82,6.75-8.12,13.24-12.54,19.62-8.36,12-17.27,23.69-26.43,35.13q-3,3.72-6,7.4h4.25l-55.26-44.76L336,691.05c-3-2.41-7.24,1.81-4.24,4.24Z"/>
      <path class="cls-9" d="M421,653.28s-27.69,47.11-51.19,69"/>
      <path d="M347.5,707.36l13.43,49.27c1.13,4.15,2.71,8.43,3.42,12.68.08.45,0-.3.06.53V771a6.67,6.67,0,0,1-.3,2.35,7.19,7.19,0,0,1-3.13,4.16c-2.89,1.88-6.64,2.29-10,2.41-3.1.12-6.53.05-9.39-1.31a6.32,6.32,0,0,1-2.37-1.79,5.87,5.87,0,0,1-.78-1.46,11.29,11.29,0,0,1-.27-1.15c.13.75,0-.14,0-.43s.12-1.83,0-.62c.46-3.68.08-7.53,0-11.24s-6.05-3.87-6,0l.1,6.5a23.65,23.65,0,0,0,0,3.15c.17,1.13.2-1,.06,0a11.48,11.48,0,0,0,2.61,9.49c4.58,5.15,12.89,5.34,19.18,4.63s13-3.27,15.42-9.78c1.85-5,.06-9.94-1.26-14.8L360,730.73l-6.8-25c-1-3.72-6.8-2.14-5.79,1.6Z"/>
      <path d="M298.74,762.23l1.54,13.42c.28,2.52.35,4.89,1.69,7.12,3.1,5.13,9.57,6.73,15.15,7a37,37,0,0,0,12.21-1.12c6.85-2.07,10.61-7.52,8.93-14.68-.88-3.76-6.67-2.17-5.79,1.59,2,8.39-9.45,8.43-15,8.22a17.22,17.22,0,0,1-7.88-1.84,6.68,6.68,0,0,1-2.68-2.59c-.49-.8.26.2-.26-.64-.13-.21-.25-1.46,0,.22-.17-1.22-.28-2.46-.42-3.69l-1.49-13c-.43-3.79-6.44-3.83-6,0Z"/>
      <path d="M266.32,763.77v12.79c0,2.68.12,5,1.63,7.37,5.15,8,18.55,7.7,26.88,6.13,5.91-1.11,11.68-4.47,11.82-11.13.08-3.86-5.92-3.86-6,0-.14,6.74-13.27,6.07-17.86,5.74-3.66-.27-7.94-1.1-9.9-4.16-.45-.71-.17-.26-.47-1.14s-.09.21-.09-.34V763.77c0-3.86-6-3.87-6,0Z"/>
      <path d="M229.52,774.52c0,7.08,5.09,13.19,11.69,15.27,3.41,1.07,7.24,1.13,10.82,1.19a28.11,28.11,0,0,0,11.88-2.13,14,14,0,0,0,8.41-13.07c.08-3.86-5.92-3.86-6,0-.16,9-10.18,9.39-17,9.05-4.44-.23-9.11-.65-11.89-4.6A10.83,10.83,0,0,1,235.7,776c-.07-.29-.12-.59-.16-.88.14.91,0,.16,0,0v-.57c0-3.86-6-3.86-6,0Z"/>
      <line class="cls-9" x1="252.4" y1="739.71" x2="358.14" y2="734.98"/>
      <path d="M466.21,712.92l13.34,8.55a24.22,24.22,0,0,0,23.52,1.41A24.58,24.58,0,0,0,501.75,678c-11.21-4.65-24-.13-30.4,10l4.11-1.08L447,672.54c-3.44-1.74-6.48,3.44-3,5.18l28.42,14.37a3.08,3.08,0,0,0,4.1-1.07,18.61,18.61,0,1,1,9.55,27.2,21.59,21.59,0,0,1-4.31-2.45l-12.53-8c-3.26-2.09-6.27,3.11-3,5.18Z"/>
      <path d="M445.59,737.87,457,743.33c1.7.82,3.51,1.53,5.16,2.47a17.47,17.47,0,0,1,6.82,8.06,18.61,18.61,0,1,1-33.75-.8,3.09,3.09,0,0,0-1-4.06L407,732.39c-3.31-2-6.33,3.18-3,5.18l27.2,16.56-1.08-4.1c-4.77,9.89-3,22,5.33,29.48a24.61,24.61,0,0,0,41.13-18.13c0-8.26-4.55-17.53-12.23-21.2l-15.7-7.49c-3.47-1.66-6.52,3.51-3,5.18Z"/>
      <path class="cls-9" d="M494.64,722.2a21.67,21.67,0,0,1-21.16,34.89"/>
      <path d="M470,771.17A101.85,101.85,0,0,0,491.43,784c10,4.39,22,7.48,31.74.92l11.58-7.77c3.19-2.14.19-7.34-3-5.18l-9.8,6.57c-3.22,2.16-6.17,4-10.2,4.21-10.83.55-21.72-5.49-30.59-11.09-1.82-1.14-3.61-2.34-5.36-3.58L474.3,767c-.29-.21-1.31-1-.07,0a3.1,3.1,0,0,0-4.24,0c-1.05,1-1.28,3.25,0,4.24Z"/>
      <path d="M605.83,716.7l-21.57,22.1L550,773.86,542.08,782l2.92-.78c-12.6-2.15-9-16.64-11.07-25.44a25.33,25.33,0,0,0-21.29-20,31.48,31.48,0,0,1-4.82-.71,9,9,0,0,1-6.45-6.62c-1-3.73-6.76-2.15-5.78,1.6,1.78,6.85,8.74,12.16,16,11.63.76-.06-1-.26-.35-.07.35.1.73.16,1.09.25a32.74,32.74,0,0,1,5.11,1.65,16.16,16.16,0,0,1,7.09,5.62c-.42-.56.56.84.71,1.08a13.51,13.51,0,0,1,1,1.87,23.47,23.47,0,0,1,2.13,6.63c.5,2.88.15,5.75.39,8.64.55,6.9,3.14,14.55,9.66,18,2.36,1.25,5.89,2.71,8.1.63.8-.74,1.54-1.57,2.3-2.35l10.29-10.55,30.66-31.4L610.07,721c2.7-2.77-1.54-7-4.24-4.25Z"/>
      <path class="cls-9" d="M510.52,712.46s4.77-6.16,13.69-2.23,27.67,12,32.8,31.06c0,0,2.79,13.63,6.41,23.15"/>
      <path class="cls-9" d="M570.62,673.28S522.19,705,513,710.4"/>
      <path class="cls-9" d="M612.56,664C602.39,678.28,593,682.54,593,682.54a16.16,16.16,0,1,1-16.42-27.84,16.34,16.34,0,0,1,3.13-1.42s24.47-6.39,64.46-44.25c0,0,15-15,13.49-43.38L656.8,547s-1.58-13.29,6.28-20.43l4.36-4.11"/>
      <path class="cls-9" d="M640.77,696.18a664.17,664.17,0,0,0-44.57-50.41"/>
      <path class="cls-9" d="M627,679.49c-14.11,5.14-20.6,12.34-20.6,12.34a16.16,16.16,0,0,0,10.68,28.29c4.12,0,8.34-1.3,13.26-7.91,0,0,13.1-20.54,25.24-32.5s36.06-33.94,36.06-33.94h6.24"/>
      <path class="cls-9" d="M638.6,614.18s25.11,22.82,38.09,45.07"/>
      <path d="M716,552.12c3,.51-.07,2.48-1.43,3a43.8,43.8,0,0,1-7.57,1.94,121.82,121.82,0,0,0-17.58,5.08c-1.43.5-1.53.32-1.75-1.31A5.6,5.6,0,0,1,689,556a11.1,11.1,0,0,1,5.46-2.62c.72-.17,1.45-.14.25-.1h.66c16.66-.77,33.28-2.65,50-3.26a14.93,14.93,0,0,1,9.53,2.7c3.4,2.6,4.54,7.53,4.56,11.6a10.73,10.73,0,0,1-1.1,5.19,3,3,0,0,0,1.07,4.11h0a8,8,0,0,1,4.53,6.63c.45,4.46,0,9.19-3.53,12.22-1.63,1.39-.8,3.64.6,4.71-1.18-.91,0,.05.27.31a11.28,11.28,0,0,1,3.42,8.19c0,5.23-3.39,7.56-7.79,9.52-2,.87-1.66,3.37-.61,4.71-.88-1.12,0,0,.15.37a8.77,8.77,0,0,1,.75,2.1,11.14,11.14,0,0,1-1.07,7.86c-2.15,3.5-7,4.69-10.82,5.32s-2.18,6.41,1.6,5.78c5.76-1,12.33-3.5,15-9.14,2.39-5.14,2.26-12-1.32-16.53l-.6,4.71c6.38-2.85,10.72-7.39,10.76-14.7A17.2,17.2,0,0,0,764,592l.61,4.71c4.9-4.19,5.92-11,5.22-17.18-.51-4.44-3.13-9.26-7.43-11.09l1.07,4.1c3.65-5.55,2-15.08-1.19-20.33-3.36-5.47-9.95-8.18-16.21-8.2-8.2,0-16.54,1-24.73,1.57l-18.45,1.21c-3,.19-6.07.17-9,.64-5.23.83-11,4.14-12,9.73-1,5.38,1.78,13.08,8.6,11,4-1.23,7.9-2.7,11.94-3.82,3.13-.87,6.3-1.38,9.45-2.13,3.4-.81,8.22-1.9,10.23-5.08,2.61-4.11.49-9.9-4.48-10.74-3.78-.64-5.4,5.14-1.59,5.78Z"/>
      <path d="M741.79,607.28a119.25,119.25,0,0,0-17.73.23c-11.74.92-23.56,3.14-34.3,8.13-1.82.85-3.37,1.57-4.52,3.24a10,10,0,0,0-1.51,7.4c.91,5.23,5.35,7,10.09,5.24,2-.73,3.69-1.9,5.59-2.79a46.47,46.47,0,0,1,15.75-4c4.69-.38,10.4-1.37,11.53-6.82a10.85,10.85,0,0,0-1.58-7.57c-2-3.28-7.22-.27-5.18,3a4.44,4.44,0,0,1,.92,3.12c0,.39-.14.83-1,1.34-1.86,1.07-4.42.84-6.46,1.07a49.62,49.62,0,0,0-19.12,5.74,13.46,13.46,0,0,1-2.9,1.36c-1.76.52-2,.2-1.8-1.94a3.12,3.12,0,0,1,1.14-2.39c1.51-1.12,4.67-2,6.59-2.72a102.17,102.17,0,0,1,28.32-5.58,118.22,118.22,0,0,1,16.19-.12c3.86.28,3.84-5.73,0-6Z"/>
      <path d="M743.4,587.46a142,142,0,0,0-43.79,3.44,61.78,61.78,0,0,0-13.55,5,9.4,9.4,0,0,0-5,8.9c.3,5,3.49,7.81,8.37,6.92s9.31-3.43,14.14-4.55c5.44-1.27,11.61.14,16.52-3.14,3.84-2.56,4.73-6.88,5.1-11.19.33-3.85-5.67-3.82-6,0-.19,2.26-.44,4.91-2.49,6.24-3.47,2.27-8.59,1.22-12.5,1.86-4.66.76-8.93,2.68-13.38,4.17-.9.31-2.84,1.25-3.81.82.48.21.31.18.28-.21-.07-1.08-.45-1.79,0-2.86a7.61,7.61,0,0,1,.75-1.1c.24-.36.82-.58,0-.12a34.51,34.51,0,0,1,5.55-2.58,76.5,76.5,0,0,1,12.06-3.36A141.14,141.14,0,0,1,730,593.27c4.45-.1,8.93-.1,13.38.19,3.85.26,3.84-5.74,0-6Z"/>
      <path class="cls-9" d="M686.55,608.93s3,7.93,15.88,5.25"/>
      <path d="M741.79,564.71a123.82,123.82,0,0,0-16.9-.32c-11.24.43-22.77,1.93-33.33,6-3.68,1.41-7.89,2.74-9.09,7-1.41,5,1.66,9.48,6.78,9.75a20.8,20.8,0,0,0,7.56-1.39,86.25,86.25,0,0,1,11.82-3.18c4.75-.88,11.13.66,14.14-4.13,1.63-2.6,1.76-6,1.22-8.92-.69-3.79-6.48-2.19-5.78,1.59.11.6-.07-.79,0-.12,0,.45.08.89.08,1.34a4.59,4.59,0,0,1-.59,2.92c-.72.93-1.76.74-2.87.73a38.69,38.69,0,0,0-7.12.69c-5.34.93-10.3,3-15.55,4.2-1,.21-2.94.72-3.82.06v-.09c.54.44-.12-.65-.12-1a2.07,2.07,0,0,1,.47-1.47c.38-.55,0-.11.45-.37a18.19,18.19,0,0,1,2.09-1,63.39,63.39,0,0,1,7.56-2.67,109.59,109.59,0,0,1,27.36-3.94,124.51,124.51,0,0,1,15.69.37c3.84.38,3.82-5.63,0-6Z"/>
      <path class="cls-9" d="M686.55,565.57s.28,7.15,12.46,5.51"/>
      <path class="cls-9" d="M687.18,584.1s-3.74,11.53,13.91,9.53"/>
      <path class="cls-9" d="M685.87,496l-17.28,20.6s-3.44,7.37,2.54,10.17S684,520.29,684,520.29l10-14.11s4.58-6.62,1.94-10.68C692.1,489.66,685.87,496,685.87,496Z"/>
      <path class="cls-9" d="M695.77,502.77s9.67,3.06,5.86,24.52a29.47,29.47,0,0,1-11.31,17.19s-4.66,3.84-2,8.25"/>
      <path d="M693.73,635.4c-.39,5.32.44,10.85,1.2,16.1,2.28,15.66,6.94,31,12.52,45.76,4.26,11.27,9.14,22.31,14.47,33.13,5.7,11.58,11.76,23,17,34.77s10.74,24.53,12.53,37.52c-.1-.76.06.58.09.8,0,.41.07.82.1,1.23.05.7.07,1.4.06,2.11s-.05,1.15-.09,1.73c-.05.8.19-.78,0,0-.05.18-.06.38-.11.56s-.19.59-.25.88c-.15.75.41-.71,0-.09s.3-.29.19-.18c-2.06,2,0,6,2.91,5,21.94-7.63,43.85-17.47,63.37-30.09A109.24,109.24,0,0,0,837.54,769a3.06,3.06,0,0,0,0-4.24c-16.38-17.53-32-35.88-46.78-54.76-10.8-13.78-21.32-28-30-43.24-3.25-5.72-6.6-11.78-8.41-18.14-1.48-5.22-3.4-10.17-6.92-14.4a18.58,18.58,0,0,0-12.13-6.8,69.91,69.91,0,0,0-20.31,1,73.91,73.91,0,0,0-7.88,2c-2.23.68-4.89,2.17-7.23,2.13s-3.1-2.1-3.36-4c-.22-1.62-2.28-2.47-3.69-2.1-1.74.46-2.31,2.09-2.1,3.69a10.74,10.74,0,0,0,3.36,6.31c3.72,3.29,8.19,1.86,12.37.48a70.42,70.42,0,0,1,14.17-3.29,77.08,77.08,0,0,1,8.86-.44c2.73,0,5.61-.11,8.19.93,5.88,2.4,9.11,9.27,10.63,15a76,76,0,0,0,6.44,15.45c8,15.38,18.34,29.58,28.86,43.31s21.7,27.24,33.12,40.37c6.09,7,12.23,13.94,18.56,20.71v-4.24c-10.5,11-24.16,18.77-37.53,25.67a356.25,356.25,0,0,1-35.61,15.88c-2.45.94-4.9,1.87-7.37,2.73l2.92,5c2.11-2.08,2.09-6,2-8.73-.52-11-4.8-21.94-8.85-32-9.18-22.85-21.76-44.09-31.28-66.79-6.94-16.55-12.79-33.77-16-51.47-1.14-6.3-2.3-12.93-1.82-19.6.28-3.85-5.72-3.83-6,0Z"/>
      <path class="cls-9" d="M726.16,732.18s40.74-10.67,55.69-28.92"/>
      <path d="M735.67,670.12c6,11.49,12.19,22.88,18.48,34.2,11.43,20.61,23.14,41.17,36.28,60.75,5.3,7.91,10.8,16.27,17.82,22.79,2.82,2.63,7.08-1.61,4.24-4.24-5.84-5.43-10.48-12.21-15-18.75C791,755.38,785,745.58,779.07,735.7c-11.05-18.51-21.53-37.36-31.72-56.35-2.18-4.08-4.36-8.16-6.5-12.25-1.78-3.43-7-.4-5.18,3Z"/>
      <path d="M720.35,674.8q9.48,19.38,18.63,38.94c10.36,22.06,20.73,44.19,29.75,66.83,1.78,4.47,3.51,9,5,13.53.54,1.65,1,3.32,1.46,5,.14.61.26,1.22.38,1.84.16.82-.06-.63,0,.13v.78c.06,3.85,6.06,3.86,6,0A28.61,28.61,0,0,0,780,794.2c-1.19-3.9-2.62-7.73-4.09-11.54-4.12-10.69-8.7-21.21-13.34-31.68-9.67-21.79-19.82-43.37-30.14-64.86q-3.46-7.18-7-14.36c-1.7-3.47-6.87-.43-5.18,3Z"/>
      <path d="M744.79,546c-.59-14.81.62-29.7,2.14-44.43.84-8.08,1.77-16.09,3-24a3.06,3.06,0,0,0-2.23-3.71,3.62,3.62,0,0,0-.66-.09c-21.33-1-42.83-1.39-64.12.55-8.58.79-17.51,1.72-25.73,4.46a19.13,19.13,0,0,0-3.49,1.4,3,3,0,0,0-1.38,3.38c1.73,5.27,3.31,10.59,4.79,15.93,2.25,8.06,4.82,16.51,5.23,24.92.19,3.84,6.19,3.86,6,0-.43-8.77-3-17.53-5.28-25.94q-2.29-8.3-4.95-16.5l-1.38,3.39a3,3,0,0,0,.51-.25c0-.12.93-.34-.35.15.13-.05.26-.12.4-.16l1-.38a62.21,62.21,0,0,1,7.94-2.08c12.91-2.63,26.33-3.24,39.58-3.53,13.74-.29,27.48,0,41.2.66L744.1,476a505.9,505.9,0,0,0-5.1,50.35c-.32,6.56-.46,13.13-.2,19.69.16,3.85,6.16,3.86,6,0Z"/>
      <path class="cls-9" d="M702.48,519.75s26.48-1.13,39.94-.76"/>
      <path d="M741,473.58c-1.29-2.06-2.51-3.81-1-6.06,1.15-1.76,2.27-3.25,2.57-5.39a9.19,9.19,0,0,0-1-5.82c-.46-.81-1.27-1.45-1.66-2.27.32.66-.62.59.33.26a4.17,4.17,0,0,0,1.25-1.11c3-3,3.34-7.45,2.2-11.38-.31-1.07-.72-2.1-1.13-3.13-.11-.29-.72-2.39-.94-1.6.16-.58,1.61-1.37,2-1.84a9.08,9.08,0,0,0,1.72-2.92c1.38-3.75,0-7.08-2.69-9.74-.64-.63-2-1.51-2.11-2.48-.23-1.66,2-4.06,2.6-5.6,1.58-3.84,1.27-7.64-1.68-10.67-.5-.51-.88-.64-.93-1.28s.65-1.61.9-2.16a9.24,9.24,0,0,0,1-5.24,7.64,7.64,0,0,0-2.35-4.24c-.91-.9-2.65-1.7-2.28-3.11.46-1.77,2.55-3.21,3.31-4.93a8.55,8.55,0,0,0,.13-6.33,28.75,28.75,0,0,0-2-5.15,20,20,0,0,1-1.45-2.49c-.43-1.21.05-2,.36-3.26a8.21,8.21,0,0,0-.52-6,7.69,7.69,0,0,0-1.52-2.06,9.57,9.57,0,0,0-1.18-.92c-.29-.18-.58-.35-.88-.51-.42-.34-.47-.18-.13.49,1.9-3.57,2.79-7.6.24-11.11a14,14,0,0,0-3.76-3.22c-1.81-1.2-2.67-1.56-2.06-3.84,1-3.65,2-7.53-1.22-10.39a17.47,17.47,0,0,0-3.52-2c-1.36-.75-1-1.36-.8-2.89.28-2.17.24-4.36-1.34-6.07a6.82,6.82,0,0,0-2.84-1.72c-.56-.2-1.61-.23-2-.66-1.06-1-.81-3.69-1.15-5.06a8.27,8.27,0,0,0-3-4.72c-1.42-1.11-3.12-1.53-4.69-2.37-1.82-1-.88-3-1.57-4.81-.87-2.24-2.92-3.49-5.06-4.31s-4-1.5-3.92-4.27h-6c.1,1.09-4.25,2-5.25,2.61a9.17,9.17,0,0,0-3.67,4.73c-.62,1.79-.39,3.44-.36,5.28,0,1.11,0,1.2-1,1.62a13.43,13.43,0,0,0-3.27,1.66,8.48,8.48,0,0,0-3,4.42,11.25,11.25,0,0,0-.3,3.22c0,.86.4,2.38,0,3.18-.83,1.71-4.39,2.34-5.89,3.42a7.54,7.54,0,0,0-2.87,3.6c-.84,2.43.44,4.31.34,6.68-.09,2.17-2.41,2.67-3.85,3.86a8.25,8.25,0,0,0-2.82,5,11.88,11.88,0,0,0,.33,5.3c.21.77.83,1.82.5,2.38s-1.88,1.11-2.42,1.61c-3.19,2.94-2.17,7.29-.56,10.78.25.54,1,1.43.88,2-.09.78-1.12,1.31-1.67,1.76a8.64,8.64,0,0,0-3.16,5.11,8.45,8.45,0,0,0,1.21,6c.71,1.21,1.71,2.37,1.35,3.86-.31,1.25-1.47,1.18-2.48,1.85a8.32,8.32,0,0,0-3.35,4.75,6.52,6.52,0,0,0,1.28,5.61c.59.73,1.37,1.22,2,1.91,0,0,.56.7.58.39,0,.3-1.06,1-1.27,1.21-2.86,2.9-4.47,7.2-2.64,11.1.82,1.76,2.26,2.25,3.39,3.63.65.81.7.21-.2,1.42a16.35,16.35,0,0,0-1.87,2.93c-1.82,4-.11,7.21,2.15,10.55a5.9,5.9,0,0,1,.81,5.7c-.61,2.26-1.41,4.54-1.1,6.91a6.78,6.78,0,0,0,1.16,3c.64.92,1.83,1.58,2.25,2.62.93,2.29-.6,5.51-.23,8a7.28,7.28,0,0,0,3.27,5.32,8.24,8.24,0,0,0,1.18.51l.47.14c.62.23.63.17,0-.17l-.44-.3c-.19.32-.37.65-.54,1a11.81,11.81,0,0,0-.77,1.7c-1.58,4.55.28,8.68,3.54,11.84,1,1,1.26,1,.75,2.21-.43,1-1.44,1.8-2,2.76a6.67,6.67,0,0,0-.2,6.77c1.88,3.37,7.07.35,5.18-3-.39-.7,2.49-4,2.82-4.77a6.38,6.38,0,0,0-.2-5.62c-.91-1.61-2.49-2.52-3.57-4a4.77,4.77,0,0,1-.23-5.2c.91-1.79,1.77-3.56,1.14-5.62s-2.08-2.32-3.71-3.3-.76-3.29-.56-4.87a10.45,10.45,0,0,0-1-6.75c-.93-1.57-2.67-2.19-2.43-4.17.3-2.43,1.46-4.65,1.59-7.13a10,10,0,0,0-1.36-5.45c-.81-1.44-2.62-3-2.86-4.68-.29-2,1.88-3.62,2.74-5.24a5.59,5.59,0,0,0-.16-5.87c-.9-1.33-2.58-1.83-3.48-3.07-1.23-1.7.33-3.71,1.52-4.91s2.52-2.46,2.77-4.36a6.48,6.48,0,0,0-2.35-5.46c-1.33-1.27-2.49-2.09-.31-3.27,1.61-.86,2.84-1.54,3.73-3.23a9.22,9.22,0,0,0-.17-8.49c-1-1.88-2.56-3.3-.61-5.16,1.48-1.41,3-2.34,3.65-4.46a7.62,7.62,0,0,0-.67-5.48c-.5-1.11-2-3.41-1.46-4.7.23-.53,1.35-.86,1.81-1.17a7,7,0,0,0,2-1.84c1.26-1.86,1-4,.4-6-.46-1.52-1.23-3.54-.11-5,.59-.77,1.87-1.16,2.66-1.72a8.61,8.61,0,0,0,3.64-7.33c-.06-1.57-1.39-3.78-.13-5,1-.94,2.67-1.33,3.86-1.95a9.06,9.06,0,0,0,3.65-3.07,9.27,9.27,0,0,0,1.08-5.7c-.16-3,.49-3.67,3.13-4.75a6.44,6.44,0,0,0,4.15-4.53c.46-2-.48-4.29.34-6.11,1-2.17,4-2.11,5.88-3.19a6.2,6.2,0,0,0,3.25-5.8c-.35-3.8-5.82-3.91-6,0a9.38,9.38,0,0,0,6.18,9.27,12.09,12.09,0,0,1,2.47.94c1.06.73.75,1.45.87,2.65a6.7,6.7,0,0,0,2.55,4.77,18.89,18.89,0,0,0,4,2,3.58,3.58,0,0,1,2.5,3.3c.62,3.49,1.17,6.74,4.83,8.23.5.2,2.06.38,2.39.78-.1-.13-.12,1.06-.17,1.47-.22,2-.44,3.92.58,5.74a7.64,7.64,0,0,0,3.13,2.86c.77.42,2.24.72,2.75,1.49.81,1.21-.94,4.44-1.16,5.73a7.2,7.2,0,0,0,1.28,5.8c1.69,2.23,7.13,3.76,6.25,7.12-.51,1.92-1.78,3.29-1.72,5.39.06,2.35,1.62,3.49,3.35,4.72,2,1.39.77,2.94.39,4.93a8.78,8.78,0,0,0,1.24,6.12,31.07,31.07,0,0,1,2.37,5.22c.78,2.32,0,3.26-1.45,5.11-2.46,3.22-3.12,7.08-.21,10.27.72.79,2.74,1.88,2.89,3,.17,1.32-1.42,3.26-1.78,4.51a6.62,6.62,0,0,0,.3,4.85c.79,1.54,2.83,2.56,3,4.29.2,2-1.31,3.83-2.18,5.45a9.17,9.17,0,0,0-1.3,6.05,8.27,8.27,0,0,0,2,3.8c.89,1,2.4,1.91,3,3.15,1,2.14-1.12,3.27-2.34,4.58a5.89,5.89,0,0,0-1.06,6.27c.78,2.26,2.11,4.54,2,7s-2,3.19-3.29,5a5.34,5.34,0,0,0-.33,5.93c1.24,2.14,2.87,3.32,1.25,5.85-1.31,2-2.73,3.77-2.76,6.34s1.27,5.13,2.67,7.36c2.06,3.25,7.25.25,5.18-3Z"/>
      <line class="cls-9" x1="654.3" y1="382.91" x2="738.52" y2="381.36"/>
      <path class="cls-9" d="M653.42,415.8l14-.95S679.5,414.08,681,424s-4.91,13.13-8.89,13.74a99.26,99.26,0,0,1-13.34.95"/>
      <path d="M195.74,336.34a50.83,50.83,0,1,0-12.5.68c7.23.52,14.25-.37,20.06-5.08,13.3-10.78,9.89-32.47-5.81-39-10.55-4.37-22.34.55-23.45,12.8-.39,4.23,1.37,9.05,5,11.42,5.1,3.33,14.53,1.56,15.76-5.15a8.8,8.8,0,0,0-.36-4.66c-1.4-3.56-7.2-2-5.79,1.59a5.91,5.91,0,0,1,.24.82,2.13,2.13,0,0,1,0,1.32c-.62,1.58-3.52,1.94-5.18,1.6a4.51,4.51,0,0,1-3.26-3.17,12.42,12.42,0,0,1-.49-2v-.31c.14-4.51,2.35-8.28,6.57-9.53a14.15,14.15,0,0,1,1.93-.43c-.78.12,0,0,.29,0a17.31,17.31,0,0,1,8.21,2.1c12.14,6.75,11.26,25.17-1.67,30.53-5.09,2.12-11.75,1.52-17,.48a45.75,45.75,0,0,1-17.77-7.7,44.72,44.72,0,1,1,43.24,5.18,47.6,47.6,0,0,1-9.58,2.72c-3.79.69-2.18,6.47,1.6,5.79Z"/>
      <path d="M138.91,299.44l14.46,7.46c3.43,1.77,6.46-3.41,3-5.18l-14.46-7.46C138.48,292.49,135.45,297.67,138.91,299.44Z"/>
      <path d="M154.42,289.89l-13-9c-3.19-2.19-6.19,3-3,5.19l13,8.95c3.19,2.2,6.19-3,3-5.18Z"/>
      <path d="M140.57,270.08l14.63,17c2.52,2.93,6.75-1.33,4.24-4.24l-14.62-17c-2.53-2.94-6.75,1.32-4.25,4.24Z"/>
      <path d="M149.91,255.12l12.58,22.09c1.91,3.36,7.1.34,5.18-3L155.09,252.1c-1.91-3.36-7.1-.34-5.18,3Z"/>
      <path d="M165.33,243.18l6.9,27.84c.93,3.74,6.72,2.16,5.79-1.6l-6.91-27.83c-.92-3.75-6.71-2.16-5.78,1.59Z"/>
      <path d="M197.33,241.6l-3.44,28.62c-.46,3.82,5.54,3.79,6,0l3.44-28.62C203.79,237.77,197.79,237.81,197.33,241.6Z"/>
      <path d="M211.77,246.88l-8.34,25.28c-1.21,3.68,4.58,5.25,5.79,1.6l8.34-25.28C218.77,244.8,213,243.23,211.77,246.88Z"/>
      <path d="M224.57,259.48l-12.5,17.6c-2.24,3.15,3,6.15,5.18,3l12.51-17.59c2.24-3.15-3-6.15-5.19-3Z"/>
      <path d="M230.85,272.32l-13.1,12.61c-2.79,2.69,1.46,6.92,4.24,4.24l13.1-12.61C237.88,273.88,233.64,269.64,230.85,272.32Z"/>
      <path d="M222.43,300.36l12.66-7.29c3.34-1.92.33-7.11-3-5.18l-12.66,7.29C216.08,297.1,219.1,302.29,222.43,300.36Z"/>
      <path d="M189.1,268c.32-14.44.61-28.76.21-43.19l-2-73.37c-.37-13.3,0-26-5.48-38.45a47,47,0,0,0-11.24-15.81c-6.28-5.68-13.5-8.58-21.52-10.86-4.93-1.41-9.83-2.67-15-2.09-6.86.78-15.58,6.58-13.22,14.64,1.58,5.41,7.67,8.28,12.62,9.84l1.3.42c.55.17-.75-.35-.22-.1.17.08.35.15.51.24.55.29,1.1.57,1.63.89a16.09,16.09,0,0,1,3.55,2.7,28.19,28.19,0,0,1,4.25,5c3.87,5.79,5.9,12.59,6.92,19.43a87.88,87.88,0,0,1,.72,15.38l3-3c-8.94-1.07-19.07,1.35-26.09,7a31.84,31.84,0,0,0-10.74,16.89c-1.36,6.14-.17,12.39.57,18.52,2.63,21.62,8.18,42.8,13.64,63.86q2.51,9.68,5.14,19.34c1,3.72,6.81,2.14,5.78-1.6q-6.18-22.49-11.57-45.2c-2.35-9.9-4.68-19.86-6.2-29.93-.77-5.16-1.52-10.77-1.89-16.13a23.2,23.2,0,0,1,4.38-15.87c6.06-8.62,16.7-12.13,27-10.9,1.64.2,3-1.53,3-3,.42-14.59-1.67-30.94-11.86-42.22-3.68-4.07-7.75-6.17-12.7-8-4.12-1.54-9.73-4.89-5.2-9.54,4.21-4.33,12-2.93,17.11-1.42,6,1.74,11.76,3.38,17,6.92A39.58,39.58,0,0,1,175,112.57c6.27,11.74,5.87,22.35,6.22,35.33l2,71.54c.18,6.59.46,13.19.54,19.78.1,8.38-.35,16.81-.53,25.19L183.1,268C183,271.86,189,271.86,189.1,268Z"/>
      <path d="M154.62,174.71c-6.32-7.79-16.14-14.08-26.1-15.49a3.11,3.11,0,0,0-3.69,2.1c-.4,1.4.49,3.46,2.09,3.69,9.11,1.28,17.69,6.83,23.46,13.94,2.43,3,6.66-1.27,4.24-4.24Z"/>
      <path d="M149.77,183.14c-6.59-8.28-17.84-12.77-28.05-13.84-3.84-.4-3.81,5.6,0,6,8.72.91,18.21,5.06,23.8,12.09C147.93,190.39,152.15,186.14,149.77,183.14Z"/>
      <path d="M237.16,151.25c-9.49,5.44-19.18,12.08-26.35,20.39-2.51,2.91,1.71,7.17,4.24,4.24,6.87-8,16-14.24,25.14-19.45,3.35-1.92.33-7.11-3-5.18Z"/>
      <path d="M247,161.21c-10.15,5.27-20.41,11.43-28.8,19.25-2.83,2.64,1.42,6.88,4.24,4.24,8-7.46,17.89-13.28,27.59-18.31,3.42-1.78.39-7-3-5.18Z"/>
      <path d="M124.37,215.3l32.15,10c3.7,1.16,5.28-4.63,1.6-5.78l-32.16-10c-3.69-1.15-5.28,4.64-1.59,5.79Z"/>
      <path d="M126.92,228.36l29.6,7.75c3.74,1,5.34-4.8,1.6-5.78l-29.6-7.75C124.78,221.58,123.19,227.39,126.92,228.36Z"/>
      <path d="M244.52,206.42l-31.37,15c-3.48,1.66-.44,6.84,3,5.18l31.36-15c3.49-1.67.44-6.84-3-5.18Z"/>
      <path d="M242.65,221.13l-26.43,9.2c-3.62,1.26-2.07,7.06,1.6,5.78l26.42-9.19c3.63-1.26,2.07-7.06-1.59-5.79Z"/>
      <path d="M186.81,133.61c1.71-12.9,5.84-26.4,15.07-36a36.34,36.34,0,0,1,9.12-7,23.84,23.84,0,0,1,6.3-2.51c.56-.14,1.12-.24,1.68-.36s-.62.08-.53.07l1.59-.25c3.69-.59,8.53-1.21,12.63-.39,2.27.46,3.09.8,3.18,2.7.14,3-1.53,5.51-3.83,7.32a29.21,29.21,0,0,1-7.23,3.64,19.58,19.58,0,0,0-8.52,6.88c-8.6,11.93-8.15,28.86-6.34,42.69a3.08,3.08,0,0,0,3.16,3,3.4,3.4,0,0,0,.64-.09c.18,0,1-.14.57-.09l.73-.08,1.48-.16a71.26,71.26,0,0,1,8-.34c5.6.08,12.63.62,16.83,4.8,6.3,6.26,7.15,14.73,6.32,23.13-.07.69-.15,1.38-.23,2.07,0,.35.14-.89,0-.07l-.24,1.52c-.23,1.46-.48,2.9-.74,4.35-3.72,21-7.91,42-12,63q-1.86,9.53-3.74,19c-.74,3.77,5,5.38,5.79,1.59q5.07-25.71,10-51.45c2-10.28,4-20.56,5.78-30.86,2-11.62,3.31-24-4.45-33.93-8.13-10.42-23.73-10.25-35.7-8.28l3.8,2.89c-1.68-12.8-2.54-28.76,5.61-39.78a15.19,15.19,0,0,1,3.76-3.39,45.43,45.43,0,0,1,4.86-2.11,22.91,22.91,0,0,0,7.93-5.43c4-4.46,6.12-13.36-.08-17-4.57-2.65-10.91-2.08-15.93-1.48-1.07.13-2.13.27-3.19.44-.37.06-2.22.4-.45.11-.56.09-1.12.15-1.68.26-6.35,1.29-12.3,5-17,9.24-11.88,10.75-16.87,26.82-18.91,42.23-.21,1.62,1.53,3,3,3a3.08,3.08,0,0,0,3-3Z"/>
      <path class="cls-9" d="M158.79,545.58s-9.88,21.69-5.53,50.33l2.21-.3"/>
      <path d="M152.47,595.61c.41,10.21.67,20.42.86,30.64.35,19.1.51,38.25-.39,57.34-.37,7.89-.73,15.88-2.39,23.51a3,3,0,0,0,2.09,3.69,3.09,3.09,0,0,0,.8.11c4.92.19,9.88,0,14.8-.16A357.18,357.18,0,0,0,206.86,707a337.91,337.91,0,0,0,51.8-11.85A269,269,0,0,0,315,670.37a207.43,207.43,0,0,0,51.46-42.58q2.85-3.3,5.55-6.73a3.07,3.07,0,0,0-.19-4.34,3.19,3.19,0,0,0-1.14-.66c-10.87-4.21-21.37-8.95-32.15-14.09-20.57-9.81-41-20.7-59.2-34.5-8.62-6.54-17.22-14.06-22.91-23.38-2-3.29-7.19-.28-5.18,3,5.23,8.57,12.69,15.66,20.45,21.93a241.19,241.19,0,0,0,29.22,19.87,489.44,489.44,0,0,0,55.67,27.77c4.15,1.77,8.3,3.53,12.51,5.16l-1.33-5c-26.66,33.82-64.1,56.84-104.56,70.57a338.29,338.29,0,0,1-91.58,17.2c-6,.3-12.11.54-18.15.31l2.89,3.8a135.55,135.55,0,0,0,2.4-21.06c.54-9.4.74-18.83.81-28.24.14-17.56-.16-35.12-.69-52.67-.11-3.71-.23-7.42-.38-11.12-.15-3.85-6.15-3.87-6,0Z"/>
    </g>
  </g>
</svg>
