<svg id="Capa_1" data-name="Capa 1" xmlns="http://www.w3.org/2000/svg" width="900" height="900" viewBox="0 0 900 900">
  <defs>
    <style>
      .cls-1, .cls-6 {
        fill: #fff;
      }

      .cls-1 {
        stroke: #fbfff2;
        stroke-miterlimit: 10;
      }

      .cls-2 {
        fill: #ce2828;
      }

      .cls-2, .cls-7 {
        opacity: 0.8;
      }

      .cls-2, .cls-3, .cls-5, .cls-7, .cls-8 {
        isolation: isolate;
      }

      .cls-3, .cls-5 {
        opacity: 0.9;
      }

      .cls-4, .cls-5 {
        fill: #e5e5e3;
      }

      .cls-7 {
        fill: #146f67;
      }

      .cls-7, .cls-8, .cls-9 {
        fill-opacity: 0.67;
      }

      .cls-8, .cls-9 {
        fill: #fc0;
      }

      .cls-8 {
        opacity: 0.6;
      }

      .cls-10 {
        fill: #ccccca;
      }

      .cls-11 {
        fill: #fbfff2;
      }

      .cls-12 {
        fill: none;
        stroke: #000;
        stroke-linecap: round;
        stroke-linejoin: round;
        stroke-width: 6px;
      }
    </style>
  </defs>
  <title>mictla_ntecihuatl</title>
  <g id="Capa_4" data-name="Capa 4">
    <polygon class="cls-1" points="563.33 495.5 554.82 495.04 549.81 490.73 538.04 494.32 503.97 499.59 486.5 499.84 470.18 499.84 470.18 450.13 489.26 449.65 510.48 451.02 527.26 453.39 549.81 458.69 558.21 451.58 568.33 448.63 578.4 449.81 578.67 441.6 582.68 426.88 589.79 412.94 596.79 404.01 609.19 393.71 623.77 387.06 637.03 384.37 652.28 385.23 667.43 389.72 678.61 395.57 688 404.01 695.88 413.97 701.26 424.34 705.06 438.08 705.84 448.55 705.44 455.34 713.16 456.01 722.6 459.96 730 469.57 731.74 477.54 731.59 483.7 722.81 482.03 712.94 485.51 707.2 490.28 703.6 497.22 699.87 490.28 691.31 484.29 680.51 481.86 672.59 482.48 665.3 485.51 660.47 491.23 665.42 500.09 672.59 496.82 681.64 498.71 686.99 505.87 688.37 512.71 688.27 522.04 689.65 526.25 688.51 541.7 683.93 545.33 678.27 545.96 672.54 545.96 667.43 544.08 664.75 545.96 663.55 551.13 657.42 554.35 648.49 554.29 641.45 553.47 636.88 547.7 632.39 553.07 625.75 556.35 618 556.28 606.8 552.23 601.35 555.83 594.4 557.72 588.86 557.66 579.5 555.59 576.46 550.73 566.61 559.26 558.78 559.5 551.78 558.48 547.83 555.14 546.66 534.51 547.39 525.68 546.66 517.05 547.39 506.53 548.56 501.49 551.75 497.58 563.33 495.5"/>
    <polygon class="cls-1" points="726.71 523.08 733.96 522 741.03 520.55 732.51 552.26 726.71 523.08"/>
    <path class="cls-2" d="M613.24,296.54l6.07-94.31,100.32,15.41-9.88,74.68S645.39,286.68,613.24,296.54Z"/>
    <polygon class="cls-2" points="753.11 222.79 741.11 298.34 747.64 296.54 755.5 297.53 762.08 301.51 765.27 304.69 768 309.35 772.14 298.85 795.09 236.73 782.18 230.97 772.64 227.59 753.11 222.79"/>
    <polygon class="cls-2" points="589.79 191.34 588.88 214.94 588.89 230.12 590.4 249.39 574.13 251.01 569.98 251.01 568.49 238.32 568.33 218.14 569.98 188.19 589.79 191.34"/>
    <polygon class="cls-2" points="515.48 180.7 552.31 185.64 551.38 202.24 550.63 231.51 552.31 252.56 539.98 253.64 519.09 255.47 515.96 245.57 514.49 205.32 515.48 180.7"/>
    <polygon class="cls-2" points="432.05 178.74 464.46 182.68 464.45 192.44 464.22 202.24 463.33 211.1 461.76 220.3 436.21 219.29 429.56 219.22 430.44 208.28 432.05 190.67 432.05 178.74"/>
    <polygon class="cls-2" points="328.79 160.95 364.85 169 400.3 174.49 400.3 185.64 399.06 198.44 397.26 219.1 348.76 217.64 322.7 218.14 322.62 202.81 323.92 180.7 328.79 160.95"/>
    <polygon class="cls-2" points="322.57 241.85 350.65 238.7 368.8 236.66 394.23 233.81 395.83 241.85 398.74 259.85 400.3 276.35 380.41 279.95 357.6 284.78 329.66 290.74 325.47 282.53 322.57 272.06 321.89 257.26 322.57 241.85"/>
    <polygon class="cls-2" points="426.45 230.19 459.53 226.47 461.76 233.81 463.11 240.54 463.86 248.23 463.86 254.79 463.72 262.66 431.23 269.32 431.6 255.47 430.8 244.57 426.45 230.19"/>
    <polygon class="cls-2" points="387.02 472.67 401.9 466.81 423.55 458.73 447.2 452.92 463.99 450.13 470.18 450.13 470.18 466.78 470.18 499.84 459.53 499.35 447.69 497.73 433.75 495.49 419.52 489.63 407.09 484.02 387.02 472.67"/>
    <polyline class="cls-2" points="547.5 512.71 575.33 512.71 575.33 512.71 665.69 511.49 665.42 500.09 661.51 493.1 655.2 490.34 650.79 490.28 643.47 491.09 638.35 495.49 636.69 501.32 636.76 505.15 633.89 498.01 628.33 493.08 622.74 492.28 614.92 492.5 610.7 494.36 606.72 499.84 604.02 498.17 601.29 495.49 593.59 493.65 587.99 493.65 581.55 495.73 578.67 499.59 577.01 504.69 574.16 501.49 568.94 496.39 563.33 495.5 557.94 495.49 551.75 497.58 548.56 501.49 547.39 506.53 547.5 512.71"/>
    <polyline class="cls-2" points="546.66 542.95 666.95 536.62 665.56 542.49 663.55 551.13 657.42 554.35 648.49 554.29 641.45 553.47 636.88 547.7 633.89 549.29 632.39 553.07 625.75 556.35 618 556.28 612.25 555.88 606.8 552.23 604.5 552.35 601.35 555.83 594.4 557.72 588.86 557.66 583.77 557.72 579.5 555.59 576.46 550.73 574.09 554.35 572.01 557.72 566.61 559.26 558.78 559.5 551.78 558.48 547.83 555.14 546.66 550.5 546.66 542.95"/>
    <polyline class="cls-2" points="667.02 502.59 669.33 497.22 677.29 496.82 681.64 498.71 686.99 505.87 688.37 512.71 688.37 519.86 688.27 522.04 689.65 526.25 690.21 535.3 688.51 541.7 683.93 545.33 678.27 545.96 672.54 545.96 667.43 544.08 666.26 538.1 666.95 524.31 667.02 502.59"/>
    <polyline class="cls-2" points="726.43 587.45 730.45 567.04 695.88 571.68"/>
    <g class="cls-3">
      <path class="cls-4" d="M860.9,516.36l-4.34,1.77-16.68,1.08L835,517.05l-4.37,4.34-11,.55-8.29-.55-.09,7.67-2.43,6.69-8.48,4.9-8.49,1.05-5.28-1.05,1,21.49,2.33,18.22,2,15.93,5,16.6,1.56,9.53H719.63l2.76-13.83,9.35-46.45,1.22-5.79,5.17-25.24,5.71-14.06,3.08-7,2.63-4.27-2.63-10.41-5.75-7.73-9.43-3.39v-3.76l-2.38-11.36-5.43-7.48c-4.19-7.89-18.77-6.35-18.77-6.35s.46-11.95-1.07-20.78-8.7-31.69-27.54-39.95-25.36-12.61-47.31-8.94-34.59,20.76-34.59,20.76l6.35-13.7,9.26-11L601,363.6l-17.19-22.13L564.1,328.88l-12.63-6.39-16.91-3.1s63.49-34,161.32-28.28q7.14.42,13.87,1.21l9.88-74.68,33.48,5.15-12,75.55c12.1,3.32,18.47,5.41,28.15,10.22l25.83-71.83,12.74,7.32,13,9.81,12.48,13,10.77,15.51,4.11,11.29,5.24,19.57L856,336.76l4.92,106Z"/>
    </g>
    <polygon class="cls-5" points="661.22 489.45 666.95 484.83 672.59 482.48 680.71 481.86 691.35 483.25 697.9 488.2 702.72 494.79 703.6 501 705 493.65 709.06 488.74 715.68 484.29 719.63 483.15 726.71 481.86 735.03 484.29 743.1 490.28 746.92 495.41 748.33 501 746.92 510.09 743.84 517.05 737.07 522.32 730.45 522.52 726.89 522.63 731.74 551.33 733.02 559.57 731.74 562.14 728.76 566.49 721.87 568.19 573.82 587.45 563.35 587.45 556.92 585.4 551.24 581.11 549.81 574.58 549.81 556.81 555.66 559.5 561 559.57 568.41 558.81 574.09 554.35 575.33 548.06 579.5 555.59 583.77 557.72 594.4 557.72 601.35 555.83 605.39 550.32 609.19 554.35 616.33 556.35 622.8 556.35 628.66 555.37 633.89 551.22 635.23 545.96 637.56 550.52 641.45 553.47 648.49 554.29 655.2 554.27 663.55 551.13 665.56 542.49 670.12 545.26 678.27 545.96 683.93 545.33 688.51 541.7 690.21 535.3 689.65 526.25 688.37 519.86 687.96 510.67 685.69 502.59 679.83 496.82 674.37 496.82 669.33 497.22 665.42 500.09 663.55 494.74 661.22 489.45"/>
    <polygon class="cls-6" points="745.99 623.27 745.07 690.49 746.63 705.77 752.44 713.29 761.5 715.73 774.39 715.16 781.63 707.78 786.76 710.29 791.89 716.68 802.43 719.34 809.77 717.95 816.6 714.95 826.34 704.13 830.24 711.68 836.15 716.68 844.09 717.95 855.33 715.16 862.35 708.28 864.67 697.97 863.79 677.7 860.9 590.28 857.77 529.06 856.57 518.13 835 518.89 826.12 521.39 819.67 521.94 811.38 521.39 811.29 529.06 808.86 535.75 800.38 540.65 791.89 541.7 786.62 540.65 786.76 554.35 788.46 568.75 791.89 596.29 798.44 622.42 745.99 623.27"/>
    <polygon class="cls-4" points="589.79 191.34 600.96 193.63 606.8 195.5 614.89 200.86 618.75 210.92 619.31 222.79 617.22 233.6 611.58 242.76 601.6 248.23 590.4 249.39 588.88 236.73 588.88 209.38 589.79 191.34"/>
    <polygon class="cls-4" points="552.31 185.64 569.98 188.19 569.98 199.52 568.33 218.14 568.42 230.12 569.98 251.01 552.31 252.56 550.63 239.03 550.63 212.78 552.31 185.64"/>
    <path class="cls-4" d="M464,182.63l50.5,5.56V220.3s-.51,29.45,2.65,32.26-53.42,10.1-53.42,10.1,3.31-22.35-4.19-36.19l47.21-6.11-45-1.26S466.55,207.76,464,182.63Z"/>
    <polygon class="cls-4" points="400.3 174.49 432.05 178.74 429.56 219.22 397.26 218.88 400.3 174.49"/>
    <path class="cls-4" d="M394.23,233.8l32.84-3.68s7.19,21.16,4.95,39l-31.72,6.62S398.43,252,394.23,233.8Z"/>
    <path class="cls-7" d="M589.79,622.42l106.09-50.74,30.55,15.77-6.8,35,26.36.85-.74,73.3S653.6,694.52,589.79,622.42Z"/>
    <circle class="cls-8" cx="573.82" cy="643.13" r="25.86"/>
    <circle class="cls-8" cx="651.24" cy="699.53" r="25.86"/>
    <path class="cls-8" d="M705.9,743.13s-85.19-1.79-101.39-5.48L601,756.9l-1.88,11.91,1.88,10.5,10.34,3.57,9,.37,8.94-3.94,4.39,3.94,8.91,2.59h9.94l8.27-2.59,2.63-5.15,2.24,5.29,9.7,3.66,11.86-1.21,6.27-2.59v-3.94l4.27,6.07,10.41,1.67,12-3,6.57-4.71Z"/>
    <polygon class="cls-1" points="610.9 705.77 604.51 737.65 657.86 741.64 705.9 743.13 677.1 695.22 677.1 705.77 675.04 711.9 671.23 716.68 663.55 723.02 651.24 725.38 645.08 725.38 639.18 723.24 630.81 717.95 627.83 710.49 625.39 699.53 625.65 695.83 610.9 705.77"/>
    <polygon class="cls-7" points="665.64 677.57 736.58 794.16 830.64 794.16 781.63 707.78 777.62 711.9 771.85 714.45 764.17 715.61 755.14 714.56 748.33 709.11 745.25 696.57 727.82 695.83 718.36 693.92 694.66 688.4 665.64 677.57"/>
    <polygon class="cls-6" points="726.58 318.11 729.72 308.56 736.22 300.42 742.93 297.23 752.44 296.54 759.93 299.94 765.27 304.69 768.44 310.6 769.26 317.18 767.93 324.12 764.65 331.15 762.12 334.58 759.93 336.62 753.11 331.36 745.35 326.57 737.31 322.49 726.58 318.11"/>
    <polygon class="cls-6" points="806.8 378.33 812.08 375.6 820.84 373.58 829.54 374 840.28 378.33 844.93 384.37 848.29 391.59 848.29 399.38 847.71 405.05 845.34 411.62 842.44 416.44 837.71 420.43 832.43 422 826.62 422.36 819.76 422.36 814.19 420.43 815.2 409.37 815.2 399.38 812.55 388.97 806.8 378.33"/>
    <polygon class="cls-6" points="611.58 326.1 608.13 319.06 606.27 310.6 608.92 298.85 616.65 290.74 627.29 288.53 637.72 290.74 644.34 296.54 649.11 306.42 650.29 318.11 637.03 318.11 623.77 320.94 611.58 326.1"/>
    <path class="cls-2" d="M612.47,327.36s6.61,8.32,11.31,10.93S642,345,642,345l4.28-8.81,2.37-10.08,1.47-8.92-13.11.93-14.73,4-9.83,4Z"/>
    <polygon class="cls-2" points="726.58 318.11 726.01 326.57 727.93 336.76 731.74 345.28 736.31 351.69 742.38 348.66 750.67 343.79 759.93 336.62 748.8 327.36 726.58 318.11"/>
    <polygon class="cls-2" points="806.8 378.33 802.31 381.56 795.09 387.53 790.99 394.25 784.91 405.2 795.09 411.62 804.68 416.3 814.19 420.43 815.2 409.37 814.02 394.61 811 384.98 806.8 378.33"/>
    <circle class="cls-8" cx="745.99" cy="726.13" r="25.86"/>
    <polygon class="cls-1" points="549.81 652.72 488.85 692.11 483.56 686.19 473.78 683.27 465.86 684.48 458.63 688.5 453.88 694 451.23 700.23 450.54 705.77 428.6 690.49 359.02 643.13 363.09 637.6 364.68 630.99 363.16 622.85 357.78 615.84 350.77 611.86 343.62 611.86 339.41 613.34 332.44 618.71 326.49 612.89 320.02 603.84 315.76 594.21 314.4 581.2 317.03 565.54 319.57 550.93 319.24 537.89 316.31 526.84 311.74 516.2 306.4 506.71 300.41 497.98 288.28 483.52 284.05 486.75 280.84 493.06 282.01 495.92 279.24 496.42 274.3 500.05 271.59 509 272.46 521.19 275.06 528.77 282.01 543.92 275.12 540.09 266.1 537.89 249.62 535.73 229.8 533.07 218.33 534.01 210.94 537.89 207.39 544.79 206.85 551.75 208.3 556.44 204.13 557.63 200.02 561.09 197.61 565.43 196.2 570.83 196.05 575.54 196.61 579.7 200.94 582.18 198.06 584.87 195.32 589.12 194.19 594.65 195.16 599.35 199.24 605.82 204.28 608.13 202.79 612.89 202.67 618.71 204.93 622.85 210.55 625.3 217.75 625.67 224.85 625.26 227.15 622.61 235.53 624.41 248.15 626.51 253.51 626.65 260.45 630.42 268.19 632.65 273.48 632.01 275.56 636.99 283.29 647.09 295.38 662.64 291.41 667.61 288.09 673.67 287.09 682.78 290.31 690.49 296.78 696.57 303.42 698.94 310.16 698.83 318.81 694.72 322.26 690.49 333.78 699.53 405.12 755.76 403.07 760.53 401.35 766.46 401.62 773.47 404.47 780.33 409.13 785.38 416.67 789.68 424.33 789.68 431.71 787.05 436.6 783.22 441.05 775.88 442.27 768.46 448.02 768.81 456.22 766.41 460.48 762.35 462.91 756.9 462.95 749.29 460.66 744.99 465.7 743.13 471.39 742.71 473.67 751.41 477.11 756.9 486.81 761.54 493.6 761.72 500.17 761.1 502.24 764.87 503.75 771.23 508.21 778.22 516.87 783.98 524.61 785.38 534.14 783.25 542.33 776.71 545.87 770.19 546.66 762.79 546.66 758.08 544.44 753.28 538.65 750.21 561 737.65 584.91 721.98 625.65 695.83 628.11 687.98 635.23 679.98 640.54 675.99 646.71 674.08 658.78 674.42 646.71 668.16 625.65 654.92 610.22 643.13 596.27 629.15 598.85 636.6 599.68 647.09 597.83 652.72 592.46 661.04 585.54 665.93 578.67 668.52 573.82 668.98 564.1 667.09 555.18 661.04 549.81 652.72"/>
    <polygon class="cls-9" points="442.27 768.46 449.36 779.31 458.04 785.38 471.16 788.32 479.68 787.13 490.09 781.85 497.59 773.47 502.24 764.87 500.17 761.1 493.6 761.72 486.81 761.54 477.11 756.9 472.25 747.41 471.39 742.71 460.66 744.99 462.95 749.29 462.91 756.9 460.48 762.35 456.22 766.41 448.02 768.81 442.27 768.46"/>
    <polygon class="cls-2" points="50.99 366.71 53.47 361.86 59 355.84 68.28 351.22 79.37 350.41 88.65 354.63 93.79 360.09 96.35 366.71 95.16 374.61 93.79 377.69 100.39 378.81 109.41 378.81 119.01 377.69 134.08 376.2 144.5 375.73 153.12 376.79 161.37 378.05 169.89 380.22 178.4 383.45 188.1 388.58 184.58 392.73 182 399.6 182.33 408.31 173.31 404.18 162.89 402.34 150.93 399.27 140.25 398.83 129.17 398.36 115.32 399.34 89.03 400.66 77.39 400.94 69.2 400.46 63.27 398.35 57.82 395.9 53.46 389.58 50.28 382.6 49.33 376.2 50.99 366.71"/>
    <polygon class="cls-2" points="49.33 434.35 56.6 427.24 66.75 419.21 76.52 412.96 90.32 406.19 100.56 402.58 106.39 401.05 113.2 408.31 118.06 417.7 121.63 433.3 121.49 443.77 119.6 456.65 115.32 465.39 110.18 474.1 103.58 479.04 98.73 480.96 90.32 476.92 77.42 468.57 65 457.26 53.47 442.49 49.33 434.35"/>
    <polygon class="cls-2" points="80.75 472.07 63.27 472.07 51.44 472.95 42.8 477.19 35.75 485.42 32.85 495.04 33.64 504.07 37.74 512.5 44.54 518.8 49.33 521.94 58.06 522.72 67.57 521.94 72.71 518.04 77.81 512 79.37 506.71 79.37 502.73 82.49 500.32 102.37 504.79 118.72 511.01 128.57 512.86 140.25 513.34 149.1 512.77 159.55 511.33 169.89 509.24 168.31 504.33 167.43 497.39 169.7 489.18 171.36 486.59 161.66 487.68 150.32 489.18 140.25 489.11 130.7 488.46 121.36 487.68 110.18 485.05 98.73 480.96 80.75 472.07"/>
    <polygon class="cls-8" points="118.06 417.7 121.63 433.3 121.49 443.77 120.56 450.13 115.32 465.39 110.18 474.1 98.73 480.96 144.75 489.14 161.66 487.68 175.33 483.7 169.7 489.18 167.95 501.49 169.89 509.24 179.15 516.2 186.71 518.95 194.19 519.43 202.01 517.67 210.16 512.71 215.25 506.71 218.4 499.59 219.22 489.18 216.94 480.96 211.06 472.67 198.54 465.79 212.87 468.35 224.85 473.48 233.1 479.81 239.55 489.18 241.88 496.82 242.87 508.89 242.94 524.31 242.03 534.71 255.25 535.73 270.66 538.99 270.66 497.39 269.63 482.47 266.98 474.55 263.68 468.61 258.71 462.36 250.34 455.04 242.19 449.91 235.81 446.72 225.72 442.75 215.81 439.81 209.99 437.98 217.72 435.08 223.73 431.05 228.53 425.53 231.76 418.79 233.07 415.16 233.07 409.01 231.9 402.24 228.58 395.14 220.91 387.35 213.86 383.92 206.61 381.98 197.42 382.6 191.83 386.03 183.17 393.71 181.31 401.03 182.33 408.31 179.18 406.58 171.36 404.18 162.89 402.34 152.8 399.75 141.94 399.07 131.55 398.46 123.25 398.46 115.32 399.34 106.39 401.05 113.2 408.31 118.06 417.7"/>
    <polygon class="cls-8" points="227.15 622.61 248.15 626.51 253.51 626.65 260.45 630.42 270.66 633.37 268.64 642.62 267.24 661.04 262.81 719.34 268.62 717.77 274.3 718.11 283.29 722.04 287.28 728.26 288.51 735.87 287.55 744.99 285.49 750.27 282.01 754.97 276.8 760.53 269.4 762.2 260.83 762.59 251.59 759.75 245.51 755.62 237.47 746.69 237.11 737.65 239.2 719.17 243.16 685.15 239.84 699.53 233.1 705.77 224.85 712.28 216.43 715.73 204.28 718.79 194.19 719.17 181.31 718.07 172.56 719.34 164.55 723.13 161.12 728.26 161.12 735.87 164 744.06 169.89 747.39 178.44 747.6 191.82 747.6 204.28 747.6 215.36 747.6 227.19 748.53 235.1 750.38 250.74 756.9 264 767.96 269.4 777.34 272.82 785.84 275.56 797.53 275.56 804.75 271.59 807.87 266.1 807.87 261.66 804.37 258.28 795.06 254.07 788.32 245.55 780.08 237.11 775.64 226 772.46 216.91 771.23 210.01 770.89 198.51 771.31 184.69 773 176.29 773.27 165.65 772.38 155.43 768.81 146.7 764.14 141.89 757.91 138.05 747.63 136.72 734.65 138.46 721.43 141.89 710.91 147.14 701.34 155.76 697.97 167.43 694.72 173.89 695.33 189.41 695.22 198.13 695.22 206.14 692.21 212.61 686.86 217.5 678.74 220.58 658.81 227.15 622.61"/>
  </g>
  <g id="Capa_5" data-name="Capa 5">
    <g>
      <circle class="cls-10" cx="636.88" cy="446" r="26.67"/>
      <path d="M660.55,446a23.67,23.67,0,1,1-23.66-23.68h0a24.31,24.31,0,0,1,4.66.47,23.92,23.92,0,0,1,19,23.21c.05,3.86,6.05,3.87,6,0a29.66,29.66,0,1,0-24.08,29.13c13.94-2.53,23.9-15.17,24.08-29.13C666.6,442.14,660.6,442.14,660.55,446Z"/>
    </g>
    <g>
      <circle cx="636.88" cy="446" r="9.33"/>
      <path d="M643.21,446c-.3,8.15-12.66,8.2-12.66,0s12.36-8.14,12.66,0c.14,3.85,6.15,3.87,6,0a12.33,12.33,0,1,0-12.33,12.34A12.52,12.52,0,0,0,649.21,446C649.36,442.14,643.35,442.15,643.21,446Z"/>
    </g>
    <g>
      <circle class="cls-11" cx="636.88" cy="446" r="2.99"/>
      <path d="M636.87,446v.15c.23-.19.12-.18,0-.16s0,.09.08,0-.43,0-.07,0-.15.05-.15-.05.51.39.16.05,0,.06,0,.08V446c0,.34,0-.17.05-.14s-.14.28-.16.26.32-.41,0-.08c-.08.08.26,0,.15,0-.5-.17.06.11.07.06s-.3-.13-.27-.15.47.36.09,0c-.1-.08,0,.44,0,.07a3,3,0,1,0,6,0,6,6,0,1,0-6.15,6,6.09,6.09,0,0,0,6.15-6,3,3,0,0,0-6,0Z"/>
    </g>
    <path d="M734.59,483.7c.66-9-1.22-18.72-8.45-24.8a29.92,29.92,0,0,0-16.76-6.46,23.58,23.58,0,0,0-3.94-.1l3,3a67.42,67.42,0,0,0-45.09-70.42,64.87,64.87,0,0,0-75.44,25.42,76.3,76.3,0,0,0-10.26,22.18,45.34,45.34,0,0,0-2,9.14c-.16,2.42,0,4.91,0,7.33,0,3.86,6,3.87,6,0,0-4.48,0-7.69,1-11.81a72.43,72.43,0,0,1,7.29-18.73,61.62,61.62,0,0,1,27.43-25.78c24.68-11.51,54.71-3.52,71.84,17.16a60.9,60.9,0,0,1,13.24,45.51,3,3,0,0,0,3,3,24.32,24.32,0,0,1,12.15,2.2c9.27,4.23,11.69,13.65,11,23.16-.28,3.85,5.72,3.83,6,0Z"/>
    <path d="M596.15,408.91c.11-.39.24-.77.37-1.16s.28-.8.43-1.2.76-1.9.49-1.25a64.58,64.58,0,0,1,5.66-10.44,69.81,69.81,0,0,1,29-24.46c34.56-16,75.84-6.21,103,19.32,12.48,11.74,23,27.16,25.3,44.46.22,1.62,2.28,2.47,3.69,2.1,1.74-.46,2.31-2.1,2.1-3.69C764,416.52,754.9,401.79,744,390.14a107.59,107.59,0,0,0-48.09-29.68c-33.47-9.72-73.52-1-95.24,27.53-4.33,5.68-8.39,12.37-10.3,19.33-1,3.73,4.77,5.32,5.79,1.59Z"/>
    <path d="M570.51,480c.21-4.91,6.7-7.05,9.4-2.65a7.14,7.14,0,0,1,.86,3.44c0,.31-.11-1.08-.08-.58s.07.93.08,1.39a18.47,18.47,0,0,1-.11,2.1c.08-.75-.1.56-.14.73a15.37,15.37,0,0,1-.43,1.65,10.55,10.55,0,0,1-3.54,5,17.1,17.1,0,0,1-9.06,3c-4.84.38-9.72.06-13.5-3.32-7-6.23-8.32-17.71-4.45-25.94a23.28,23.28,0,0,1,28.07-12.15c3.7,1.13,5.28-4.66,1.59-5.79a29.31,29.31,0,0,0-33.75,12.88c-6.28,10.61-5.27,26,3.83,34.81,4.74,4.58,10.79,5.89,17.22,5.57,5-.25,10-1.42,14-4.59a17.63,17.63,0,0,0,6.26-14.82c-.31-4.58-2.2-9.08-7.06-11-7.36-3-14.84,2.66-15.17,10.27-.16,3.86,5.84,3.85,6,0Z"/>
    <path d="M550.61,455.8a147.65,147.65,0,0,0-15.36-3.91,246.53,246.53,0,0,0-39.87-5,221.71,221.71,0,0,0-49.87,3.31,203.35,203.35,0,0,0-37.89,11.15L385.68,470c-2.29.9-3.12,4.09-.72,5.48l15.32,8.86a89.4,89.4,0,0,0,9.72,4.54c4.32,1.84,8.63,3.7,13.05,5.29a145.3,145.3,0,0,0,38.75,8.38c7.3.52,14.66.32,22,.21s14.49-.34,21.73-.83c15.22-1,30.72-3,45.11-8.29,3.59-1.34,2-7.14-1.6-5.79-12.51,4.64-25.82,6.66-39.06,7.75a400.89,400.89,0,0,1-42.59,1.21,134.5,134.5,0,0,1-38.78-7.07c-4.62-1.53-9.15-3.29-13.61-5.21a114.48,114.48,0,0,1-11-5c-5.35-3-10.64-6.15-16-9.23l-.71,5.48c17.15-6.76,34.16-14.17,52.21-18.24,29.62-6.68,60.88-6.33,90.63-.57A155,155,0,0,1,549,461.59c3.68,1.21,5.26-4.59,1.6-5.79Z"/>
    <path d="M467.18,450.13v49.46c0,3.86,6,3.87,6,0V450.13C473.18,446.27,467.18,446.26,467.18,450.13Z"/>
    <path d="M575.26,550.7c3.86,0,3.87-6,0-6S571.39,550.7,575.26,550.7Z"/>
    <path d="M575.2,524.53c-7.58-.42-15.19.5-22.78.23a5,5,0,0,1-1.54-.09c.65.24,0-.44-.19-1.16a18,18,0,0,1-.05-2.75l-.2-11.48c-.06-3.3,0-6.49,2.65-8.91s7.39-2,11-1.88,6.52,1.68,7.6,4.81c.18.52.29,1.05.42,1.58.21.91,0-.5,0,.3V506c.19,13,.08,25.92.12,38.88a47,47,0,0,1,0,5.31c-.36,3.28-2.71,5.16-5.64,5.94a14.24,14.24,0,0,1-1.7.35c.78-.11-.2,0-.4,0h-2.61c-3.43,0-7.93.8-10.65-1.76a5.15,5.15,0,0,1-1.51-2.88c-.29-1-.1,0-.11-.85v-.55c-.06-2.91,0-5.83,0-8.74v-6.2c0-1.41.36-3.35,0-4.72,0-.11.07-.39,0-.48v-.18c0-.51-.33-.21-1,.89a11.79,11.79,0,0,0,2.14-.07l5.07-.17c3.85-.12,3.87-6.12,0-6-3.21.11-8.62-.73-10.94,2-2,2.35-1.25,6.79-1.25,9.64V548.8a19.5,19.5,0,0,0,.4,5c2.34,9.16,12.44,9.09,20.13,8.82a17.06,17.06,0,0,0,8.26-2.39c4.52-2.79,5.94-7.41,5.81-12.48-.36-13.54-.09-27.13-.13-40.68,0-5.56-2.33-10.91-7.75-13.25-3.8-1.64-8.35-1.4-12.44-1.28A13.88,13.88,0,0,0,544.48,505c-.39,3.39,0,6.94,0,10.35,0,3.23-.5,7.3.47,10.45,1.58,5.13,6.1,5.09,10.47,5.08,5,0,9.91-.2,14.87-.28,1.61,0,3.23-.08,4.84,0,3.85.21,3.84-5.79,0-6Z"/>
    <path d="M670,502.59c.16-2.64,3.32-2.84,5.38-2.76a9.19,9.19,0,0,1,7.11,3.71c2.49,3.44,3,8.19,3,12.3,0,2.51-.68,5.35.14,7.72.06.18.18.35.26.53-.28-.67.33,1,.41,1.32a27.8,27.8,0,0,1,.91,8.07c0,2.35-.17,4.93-1.51,7a8,8,0,0,1-1.07,1.25c-.53.41-1.38.7-1.06.61-.3.08-.6.15-.9.2a3.2,3.2,0,0,1-.87.12c-.87.1-1.73.18-2.6.24-2.56.17-7,.55-9-1-.5-.4-.35-.79-.35-2v-5.69q0-15.81.07-31.63c0-3.86-6-3.87-6,0q0,16.81-.07,33.65c0,3.9-.62,8.21,3.12,10.67s8.67,2.23,12.8,1.9c2.26-.17,4.68-.26,6.74-1.29,4.91-2.45,6.46-8.07,6.64-13.15a36,36,0,0,0-.93-9.92c-.2-.79-.7-3.48-1.45-3.91.69.39.2,2.26.49.72a17.65,17.65,0,0,0,.15-2.3,46.6,46.6,0,0,0-.22-7.09c-.75-6.58-3.07-13.4-9.45-16.48-6.71-3.24-17.26-1.71-17.82,7.2C663.77,506.44,669.77,506.43,670,502.59Z"/>
    <path d="M606,522.69c-7.75-.42-15.54.43-23.29.24a12.46,12.46,0,0,1-1.83-.08c-.6-.1.29.3,0,0s-.34-.13-.43-.58a15.85,15.85,0,0,1-.17-3l-.21-11.47c-.07-3.46-.12-6.79,2.78-9.29s7.15-1.89,10.74-1.88c3.75,0,7.4,1.22,8.73,4.61a14.63,14.63,0,0,1,.46,1.6c.06.2.08.42.12.62-.15-.91,0-.44,0-.23V504c.27,13,.09,26,.13,39a39.68,39.68,0,0,1,0,5.56c-.5,3.27-3.09,5-6,5.71-.26.07-1.86.35-1.17.26a10,10,0,0,1-1.09.1h-2.85c-3.48,0-7.91.76-10.77-1.66a5,5,0,0,1-1.74-3.06c-.29-1-.09,0-.1-.8v-.53c-.06-2.9,0-5.82,0-8.73V533.2c0-1.26.39-3.25,0-4.46s-.11,1-.82.41c.28.25,2-.06,2.4-.08l5-.15c3.85-.12,3.87-6.12,0-6-3.23.1-8.6-.73-11.09,1.77-2.28,2.29-1.48,6.92-1.48,9.86v12.51a17.91,17.91,0,0,0,.46,5c2.62,9.16,13,8.89,20.73,8.64a18.52,18.52,0,0,0,8.23-2.17c4.66-2.58,6.52-7.23,6.37-12.36-.41-13.72-.12-27.49-.16-41.22,0-5.73-2.77-11-8.33-13.19-3.91-1.56-8.77-1.3-12.94-1.12a14.1,14.1,0,0,0-13.47,12.41c-.42,3.47,0,7.12,0,10.61.06,3.3-.55,7.71.76,10.85,2,4.81,6.61,4.44,10.93,4.42,5.09,0,10.17-.2,15.26-.28,1.6,0,3.21-.07,4.82,0,3.85.2,3.84-5.8,0-6Z"/>
    <path d="M635.09,521.31c-7.74-.42-15.54.43-23.29.24a12.46,12.46,0,0,1-1.83-.08c-.59-.1.29.3.06,0s-.34-.12-.44-.58a16.72,16.72,0,0,1-.16-3l-.22-11.46c-.06-3.47-.12-6.8,2.79-9.3s7.15-1.89,10.74-1.87,7.39,1.21,8.72,4.6a14.68,14.68,0,0,1,.47,1.6c.05.2.08.42.11.62-.15-.91,0-.44,0-.22v.8c.27,13,.08,26,.13,39a39.68,39.68,0,0,1,0,5.56c-.49,3.28-3.08,5-6,5.72-.26.06-1.85.34-1.16.25a10,10,0,0,1-1.09.1h-2.85c-3.48,0-7.92.76-10.78-1.66a5,5,0,0,1-1.73-3.06c-.29-1.05-.1.06-.11-.8v-.52c-.06-2.91,0-5.83,0-8.74v-6.68c0-1.26.39-3.26,0-4.47s-.11,1-.83.41c.29.25,2-.06,2.41-.07l5-.16c3.85-.12,3.87-6.12,0-6-3.23.1-8.6-.73-11.08,1.77-2.29,2.29-1.48,6.92-1.48,9.86v12.52a17.53,17.53,0,0,0,.45,5c2.63,9.16,13,8.89,20.73,8.65a18.53,18.53,0,0,0,8.24-2.18c4.65-2.57,6.51-7.23,6.36-12.36-.4-13.72-.11-27.49-.16-41.22,0-5.73-2.76-11-8.32-13.18-3.91-1.57-8.78-1.3-13-1.13a14.1,14.1,0,0,0-13.47,12.42c-.41,3.47,0,7.11,0,10.6.06,3.31-.54,7.71.76,10.85,2,4.81,6.61,4.44,10.94,4.42,5.09,0,10.17-.2,15.26-.28,1.6,0,3.21-.07,4.81,0,3.86.2,3.85-5.8,0-6Z"/>
    <path d="M665.49,519.32c-7.7-.42-15.46.43-23.18.24a12.19,12.19,0,0,1-1.81-.08c-.6-.1.28.3,0,0s-.33-.15-.42-.58a15.85,15.85,0,0,1-.16-3l-.22-11.47c-.06-3.46-.12-6.79,2.77-9.29s7.11-1.89,10.68-1.88c3.74,0,7.35,1.23,8.67,4.61a14.63,14.63,0,0,1,.46,1.6c.06.2.08.42.12.62-.15-.92,0-.44,0-.23a3.66,3.66,0,0,1,0,.81c.27,13,.09,26,.13,39a39.68,39.68,0,0,1,0,5.56c-.49,3.27-3.06,5-6,5.71a14.52,14.52,0,0,1-1.72.34c.8-.11-.32,0-.53,0h-2.83c-3.46,0-7.88.75-10.72-1.66a5,5,0,0,1-1.72-3.06c-.29-1-.1,0-.11-.8v-.53c-.06-2.9,0-5.82,0-8.73v-6.69c0-1.26.39-3.26,0-4.46s-.1,1-.83.41c.28.24,2-.06,2.39-.08l5-.15c3.85-.12,3.87-6.12,0-6-3.22.1-8.57-.73-11,1.77-2.28,2.29-1.48,6.92-1.48,9.86v12.51a17.91,17.91,0,0,0,.46,5c2.6,9.14,12.89,8.89,20.64,8.64a18.4,18.4,0,0,0,8.21-2.17c4.64-2.58,6.49-7.24,6.33-12.36-.4-13.72-.11-27.49-.15-41.22,0-5.72-2.75-11-8.3-13.19-3.89-1.56-8.74-1.3-12.89-1.12a14.07,14.07,0,0,0-13.42,12.41c-.41,3.48,0,7.12,0,10.61.06,3.31-.54,7.71.76,10.85,2,4.8,6.58,4.44,10.9,4.42,5.06,0,10.12-.2,15.18-.28,1.6,0,3.2-.07,4.79,0,3.86.2,3.85-5.8,0-6Z"/>
    <path d="M662.35,493c3.24-4.46,6.95-7.11,12.58-7.93,6.67-1,14.5.16,19.91,4.43a17.6,17.6,0,0,1,4.06,4.5,23.27,23.27,0,0,1,1.1,2.1c.24.49.16.36.12.26.11.26.2.52.3.78s.13.55.24.81c-.16-.39,0-1-.09-.08-.09,1.94,0,3.9,0,5.84V517c0,3.86,6,3.87,6,0v-9.4c0-3.35.4-7,0-10.32.13,1.09-.09.55.21-.33.14-.42.48-1.2.27-.73.27-.58.55-1.15.86-1.71a16.39,16.39,0,0,1,7-6.67c5-2.51,11.19-2.28,16.53-1.11,4.82,1.06,9.33,3.36,11.77,7.81a18.51,18.51,0,0,1,1.93,10,18.79,18.79,0,0,1-.74,4.88,2,2,0,0,1-.15.57c-.11.38-.51,1.5-.41,1.28a14.13,14.13,0,0,1-3.3,4.85c-3.73,3.51-8.93,3.18-13.69,3.49a3.06,3.06,0,0,0-3,3.12v0a3.74,3.74,0,0,0,.09.66l4.37,25.9c.33,1.93.86,3.64,1.3,5.54.67,2.88,1,6.83-2,8.82-2.8,1.88-6.66,1.36-9.91,1.8L706.4,567,673,571.58l-11.31,1.54-1.81.24-.46.06-24.7,3.16-33.23,4.25c-4.82.61-9.72,1-14.51,1.93-8.63,1.61-18.57,3-27.28.44a11.72,11.72,0,0,1-5.31-2.88,6.39,6.39,0,0,1-1.33-2.11c-.11-.27-.37-1.63-.28-.74a5,5,0,0,1,0-.55v-19c0-3.86-6-3.87-6,0v13.47c0,4.51-.39,8.64,2.65,12.39,3.44,4.23,9.1,5.69,14.27,6.33a69,69,0,0,0,16.62-.25,54.06,54.06,0,0,0,9.2-1.46c-1.63.49.14,0,.68-.08l4-.52,31.19-4c14.32-1.83,28.64-3.6,42.94-5.55l33.33-4.53,14.61-2c2.69-.37,5.3-.48,7.69-.75,5.8-.64,10.79-3.9,11.8-9.94.6-3.62-.24-6.88-1.16-10.33-.79-3-1.07-6.18-1.58-9.22L730.23,525l-.52-3.11-2.9,3.8c5.23-.34,10.64-.2,15.22-3.14A19.32,19.32,0,0,0,750,512a28.46,28.46,0,0,0,.08-16.65c-4.15-12.74-19.12-17-31.25-14.91A22.62,22.62,0,0,0,701,495.56c-.8,2.55-.36,5.53-.36,8.15V517c0,3.86,6,3.87,6,0V503.71c0-2.7.47-5.8-.45-8.4-4.44-12.54-18.48-17.67-30.89-16.27a24.79,24.79,0,0,0-12.06,4.3,28.15,28.15,0,0,0-6,6.65c-2.27,3.13,2.93,6.12,5.18,3Z"/>
    <path d="M782.49,462.41c3.24,7.84-1,15.51-9.43,16.93-10.7,1.81-19.85-6.9-20-17.49-.13-9.23,2.77-17.74,9.78-24a33.45,33.45,0,0,1,27.46-7.52A32.78,32.78,0,0,1,813.73,447c4.11,7.87,4.48,18.94-.87,26.34-2.16,3-4.56,5.58-6,9a35.75,35.75,0,0,0-2.45,16.46c.44,6.87,2.57,13.26,3.66,20,1.24,7.7.8,17.41-8.25,19.48a22.67,22.67,0,0,1-12.08-.78c-3.68-1.18-5.26,4.61-1.59,5.78a30.73,30.73,0,0,0,13.77,1.07c8.84-1.38,13.84-8.27,14.61-16.89.75-8.38-2.42-16.25-3.67-24.38-.91-6-1-12.6,1.41-18.25,1.59-3.71,4.59-6.4,6.68-9.79,5.92-9.56,4.74-23.1-.81-32.51a38.86,38.86,0,0,0-28-18.27,39.57,39.57,0,0,0-32,9.76c-7.86,7.3-11.23,17.39-11.07,27.93.18,12.22,10,23.56,22.53,23.63,10.4.05,20.21-6.77,20.1-17.89a18.28,18.28,0,0,0-1.41-6.88c-1.46-3.52-7.27-2-5.79,1.59Z"/>
    <path d="M530.77,322.08a9.52,9.52,0,0,1,1.41.07c.47.07,1.13.08,1.69.14l.87.1.57.06h.23a81.26,81.26,0,0,1,13.86,3.3A86.62,86.62,0,0,1,587,351.06a110.23,110.23,0,0,1,19.3,32.44c1.4,3.55,7.2,2,5.79-1.6-7.93-20.13-20.4-38.33-38.41-50.69a87.53,87.53,0,0,0-35.19-14.31,51.32,51.32,0,0,0-7.72-.82C526.91,316.08,526.91,322.08,530.77,322.08Z"/>
    <path d="M549,309.52a56.78,56.78,0,0,1,12.27,4.31,100.84,100.84,0,0,1,28.18,19.55,118.93,118.93,0,0,1,17.14,21.21c2.08,3.24,7.28.24,5.18-3-13.28-20.74-32.77-38.67-56.49-46.5a37.79,37.79,0,0,0-4.68-1.32c-3.77-.75-5.39,5-1.6,5.78Z"/>
    <path d="M568.47,300.81A170.77,170.77,0,0,1,605.35,331a79.92,79.92,0,0,1,11.37,15.54c1.86,3.39,7,.37,5.18-3-5.72-10.44-14.11-19.32-22.94-27.2a212.42,212.42,0,0,0-22.67-17.53c-1.58-1.06-3.17-2.12-4.79-3.11-3.31-2-6.32,3.17-3,5.18Z"/>
    <path d="M613.09,328.69a2.75,2.75,0,0,1,.36-.15c.86-.36,1.72-.7,2.58-1,2.8-1.08,5.64-2.06,8.5-2.94A95.62,95.62,0,0,1,650,319.94c3.86-.11,3.87-6.11,0-6a107.25,107.25,0,0,0-40,9.57c-3.52,1.57-.48,6.74,3,5.18Z"/>
    <g>
      <circle cx="629.24" cy="311.29" r="7.79"/>
      <path d="M634,311.29c-.26,6.16-9.58,6.21-9.58,0s9.32-6.15,9.58,0c.17,3.85,6.17,3.87,6,0a10.79,10.79,0,1,0-10.79,10.79h0A11,11,0,0,0,640,311.29C640.2,307.43,634.2,307.44,634,311.29Z"/>
    </g>
    <path d="M588.27,296.26c6,3.93,11.24,9.71,15.86,15.21,2.49,3,6.71-1.31,4.24-4.25-5-5.91-10.56-11.88-17.07-16.14-3.24-2.12-6.25,3.07-3,5.18Z"/>
    <path d="M603.63,293.33l.24.18c.63.46-.28-.24.26.2s1.32,1.07,2,1.64a25.52,25.52,0,0,1,4.57,5c2.11,3.22,7.31.22,5.18-3a36.21,36.21,0,0,0-9.17-9.18,3,3,0,0,0-4.1,1.08,3.06,3.06,0,0,0,1.07,4.1Z"/>
    <path d="M614.53,290.65a30.09,30.09,0,0,1,6.65,8.36c1.75,3.45,6.92.42,5.19-3a34.59,34.59,0,0,0-7.6-9.58c-2.84-2.61-7.1,1.63-4.24,4.24Z"/>
    <path d="M636.89,288.25c3.7,3.05,6.19,6.93,8.55,11.09,6.34,11.25,8.77,24.22,8.82,37,0,3.86,6,3.87,6,0-.06-13.7-2.72-27.56-9.42-39.64-2.5-4.52-5.66-9.37-9.7-12.72-3-2.44-7.22,1.78-4.25,4.25Z"/>
    <path d="M617.8,287.55c-8.4,3.75-14.47,12.68-14.56,21.85-.16,16.36,13.33,30.28,27.77,35.83a41,41,0,0,0,11.5,2.76,2.9,2.9,0,0,0,2.59-1.49,122.06,122.06,0,0,0,4.69-13c2-6.65,3.94-14,3.45-21-.66-9.24-5.22-19.32-13.49-24.09-6.53-3.76-14.25-3.38-21.23-1.17-3.67,1.16-2.11,6.95,1.59,5.78,5.18-1.64,11-2.4,16,.23a19.93,19.93,0,0,1,8.34,9.23c4.39,9,2.77,18.23,0,27.8q-1.38,4.82-3.14,9.52c-.37,1-.74,2-1.14,2.94a7.19,7.19,0,0,0-.4,1c-.07.31.3-.71.11-.27l2.59-1.48a1.84,1.84,0,0,1-.52-.05c-.38-.36.1,0,0,0l-1-.15a44,44,0,0,1-5.55-1.36,39.67,39.67,0,0,1-14.86-8.33c-9.15-8.29-16.33-23.87-6.55-34.34a20.15,20.15,0,0,1,6.81-5C624.35,291.16,621.3,286,617.8,287.55Z"/>
    <path d="M653.73,288.19a55,55,0,0,1,5.5,11.69,114.42,114.42,0,0,1,6.41,35.19c.13,3.85,6.13,3.87,6,0A119.48,119.48,0,0,0,665,298.29a61.7,61.7,0,0,0-6.1-13.13c-2.14-3.19-7.34-.19-5.18,3Z"/>
    <path d="M670,287.64c.13.25.25.5.37.76s.29.63.44.94c.39.87.06.12.36.85a87.88,87.88,0,0,1,3.11,9.37,127.25,127.25,0,0,1,4,35.51c-.07,3.87,5.93,3.87,6,0A133.16,133.16,0,0,0,680.06,298a64.13,64.13,0,0,0-4.88-13.35c-1.82-3.41-7-.38-5.18,3Z"/>
    <path d="M685.42,286.13a115.9,115.9,0,0,1,2.34,12.27,365.26,365.26,0,0,1,3.55,38.36c.19,3.84,6.19,3.87,6,0a384.13,384.13,0,0,0-3.69-39.48,117.23,117.23,0,0,0-2.42-12.74C690.2,280.81,684.42,282.39,685.42,286.13Z"/>
    <path d="M700.71,288.23a270.05,270.05,0,0,1,2.84,50.9c-.14,3.86,5.86,3.85,6,0a273.7,273.7,0,0,0-3.06-52.5C705.89,282.83,700.11,284.44,700.71,288.23Z"/>
    <path d="M725.78,321a96.27,96.27,0,0,1,32,17.74c2.91,2.51,7.17-1.71,4.24-4.24a103.82,103.82,0,0,0-34.68-19.29c-3.67-1.22-5.24,4.57-1.59,5.79Z"/>
    <g>
      <circle cx="748.8" cy="319.06" r="7.52"/>
      <path d="M752.22,322c-4.07,4.1-10.67-1.44-6.85-5.9s10.62,1.43,6.85,5.9c-2.47,2.93,1.75,7.2,4.25,4.24,3.68-4.37,3.85-10.79-.48-14.86a10.52,10.52,0,1,0,.47,14.87h0C759.19,323.51,755,319.26,752.22,322Z"/>
    </g>
    <g>
      <circle class="cls-6" cx="748.8" cy="319.06" r="1.88"/>
      <path d="M748.06,318.2c-.22.22-.13.16.26-.17-.26.16-.16.12.33-.1l-.21.06c-.24.06-.09,0,.44-.05-.32,0-.19,0,.37.07l-.28-.07.44.18c-.26-.16-.18-.09.24.2-.22-.22-.16-.13.17.27-.15-.27-.12-.16.1.32v-.14c-.07-.31-.06-.18,0,.37,0-.53-.23.79,0,.16.07-.23,0-.1-.17.37.17-.25.1-.17-.2.24.37-.4-.58.32-.14.1-.49.18-.6.23-.31.13s.19-.06-.37,0c.55,0-.76-.18-.22,0,.29.09.19,0-.31-.14q.39.24-.24-.21c.39.38-.34-.6-.09-.13-.19-.5-.24-.61-.14-.32s.06.19,0-.37c0,.52.2-.75,0-.22-.1.29,0,.19.14-.31-.16.26-.1.18.2-.24a3.26,3.26,0,0,0-.88,2.13,3.08,3.08,0,0,0,.88,2.12,3,3,0,0,0,4.24,0,5.12,5.12,0,0,0,1.37-3.48,4.88,4.88,0,1,0-1.37,3.48,3,3,0,1,0-4.24-4.25Z"/>
    </g>
    <path d="M714.67,289.27c.78,16.3,1.57,33,0,49.23-.37,3.84,5.63,3.81,6,0,1.57-16.27.78-32.93,0-49.23C720.49,285.43,714.49,285.41,714.67,289.27Z"/>
    <path d="M727.88,291.11v15.31c0,3.86,6,3.86,6,0V291.11C733.88,287.25,727.88,287.25,727.88,291.11Z"/>
    <path d="M756.29,294.64a24.64,24.64,0,0,0-22.68,4c-6.22,5.05-9.24,13.3-10.24,21a42.61,42.61,0,0,0,3.72,23.1,40.34,40.34,0,0,0,7.1,11,3.07,3.07,0,0,0,3.63.47,109.89,109.89,0,0,0,10.53-5.53c5.81-3.42,11.95-7.36,16.34-12.56,5.79-6.86,9.26-17.1,6.77-25.95-2-7.22-7.85-12.23-14.45-15.3-3.48-1.62-6.53,3.55-3,5.18,4.92,2.28,9.72,5.63,11.49,11a19.63,19.63,0,0,1-.46,12.26c-3.08,9.38-10.72,14.84-19.12,19.85a113,113,0,0,1-11.1,5.86l3.64.47a31.6,31.6,0,0,1-4.66-6.79,37.52,37.52,0,0,1-4.75-18.2c.08-11.46,5.93-24.62,18.72-25a17.15,17.15,0,0,1,7,.87C758.37,301.64,760,295.85,756.29,294.64Z"/>
    <path d="M776.27,306.42v.89c0,.3-.19,1.46,0,.48-.07.51-.16,1-.25,1.54a49.52,49.52,0,0,1-2.83,9.31c-4.93,12.14-13.5,22.61-22.77,31.69-2.76,2.71,1.48,6.95,4.24,4.25,9.94-9.75,18.82-20.94,24.14-33.91,1.8-4.39,3.54-9.43,3.57-14.25,0-3.86-6-3.87-6,0Z"/>
    <path d="M789,313.87c-1.17,4.52-3.2,8.2-5.58,12.43-6.77,12.05-15.8,22.68-25.61,32.35-2.75,2.72,1.49,7,4.24,4.24,10.16-10,19.55-21.1,26.55-33.57,2.43-4.32,4.94-9,6.18-13.86,1-3.74-4.82-5.34-5.78-1.59Z"/>
    <path d="M802.09,322.6a105.19,105.19,0,0,1-9.41,16.17c-7.62,11.12-17,21.22-28.34,28.67-3.21,2.11-.21,7.31,3,5.18,11.87-7.83,21.72-18.24,29.83-29.86a107.41,107.41,0,0,0,10.07-17.13c1.57-3.49-3.6-6.55-5.18-3Z"/>
    <path d="M813.67,334.64c-4.26,5.45-8.79,10.7-13.42,15.84-8.33,9.26-17.15,18.52-27.37,25.71-3.14,2.2-.14,7.41,3,5.18,10.5-7.37,19.59-16.68,28.16-26.16,4.78-5.29,9.46-10.71,13.85-16.33,2.35-3-1.87-7.28-4.24-4.24Z"/>
    <path d="M823.59,346.54,796.32,371.1c-2.88,2.59,1.37,6.82,4.24,4.25l27.28-24.57C830.71,348.19,826.46,344,823.59,346.54Z"/>
    <path d="M789.77,376.66c-3.36,3-6.71,6-10.26,8.75-1.3,1-1,3.19,0,4.24a3.06,3.06,0,0,0,4.24,0c3.55-2.75,6.9-5.77,10.26-8.75C796.91,378.33,792.65,374.1,789.77,376.66Z"/>
    <path d="M787.8,406c-.46,1.11-.13.3.06-.1.33-.7.65-1.4,1-2.08a73.11,73.11,0,0,1,3.77-6.61c3.84-6,8.64-11.62,14.59-15.59,6.87-4.59,15.08-6.68,23.14-4.3a25.42,25.42,0,0,1,6.34,2.89c.27.18,1.62,1.12,1.16.79l.63.46c.13.1.28.18.41.28.32.24-.52-.46.1.1a17.56,17.56,0,0,1,1.73,1.72,18.16,18.16,0,0,1,3.2,5.83c2.28,6.83,2.21,15.85-1.94,22-5.47,8-16.93,9.57-25.48,6.72-10.6-3.53-20.69-9.47-30.09-15.46-3.26-2.08-6.28,3.11-3,5.18,9.44,6,19.49,11.71,30,15.55a30.35,30.35,0,0,0,15.67,1.7c6-.93,12.06-3.51,16.13-8.16,5.8-6.62,6.88-16,5.58-24.42-.86-5.51-3.27-11.17-7.58-14.87a12.19,12.19,0,0,0-1.62-1.24c-.66-.39,1.25.94-.41-.29a27.75,27.75,0,0,0-5-2.91,31.55,31.55,0,0,0-25.13-.37c-13.36,5.49-23.65,18.48-29.07,31.62C780.54,408,786.35,409.52,787.8,406Z"/>
    <path d="M804.68,380.45c.16.16.31.34.47.52s.73.95.17.19c.24.32.48.65.7,1a30,30,0,0,1,3.26,6.51c3.54,9.85,3.47,20.73,2,31a3.11,3.11,0,0,0,2.1,3.69c1.4.41,3.46-.49,3.69-2.09,1.59-11.29,1.89-23.28-2-34.16-1.35-3.77-3.2-8-6.14-10.86-2.77-2.69-7,1.54-4.24,4.24Z"/>
    <g>
      <circle cx="822.72" cy="396.49" r="7.52"/>
      <path d="M826.14,399.44c-4.07,4.11-10.67-1.44-6.85-5.9s10.62,1.44,6.85,5.9c-2.47,2.94,1.75,7.2,4.25,4.24,3.68-4.37,3.85-10.79-.48-14.86a10.52,10.52,0,1,0,.47,14.87h0C833.11,400.94,828.87,396.69,826.14,399.44Z"/>
    </g>
    <g>
      <circle class="cls-6" cx="822.72" cy="396.49" r="1.88"/>
      <path d="M822,395.64c-.22.21-.13.15.26-.18-.26.16-.16.12.33-.1l-.21.06c-.24.06-.09,0,.44-.05-.31,0-.19,0,.37.07a1.28,1.28,0,0,1-.28-.07l.44.18c-.25-.16-.18-.09.24.21-.21-.23-.16-.14.17.26-.15-.27-.12-.16.11.32v-.14c-.07-.31-.06-.18,0,.37,0-.53-.23.79,0,.16.07-.22,0-.1-.16.38.16-.26.09-.18-.21.23.37-.4-.58.32-.13.1-.5.19-.61.23-.32.13s.19-.05-.37,0c.55,0-.76-.17-.22,0,.29.09.19.05-.31-.14q.39.24-.24-.21c.39.38-.34-.6-.09-.13-.19-.5-.23-.6-.14-.31s.06.18,0-.37c0,.51.2-.76,0-.23-.1.29,0,.19.14-.31-.16.26-.09.18.2-.23a3.22,3.22,0,0,0-.88,2.12,3,3,0,0,0,5.13,2.12,5.13,5.13,0,0,0,1.36-3.47,4.87,4.87,0,1,0-1.36,3.47,3,3,0,0,0-4.25-4.24h0Z"/>
    </g>
    <path d="M830.31,358.82a52.23,52.23,0,0,1-16.62,13.08c-3.45,1.75-.41,6.93,3,5.18a56.4,56.4,0,0,0,17.84-14c2.43-3-1.79-7.23-4.24-4.24Z"/>
    <path d="M783.83,399.49c3.54.23,7.82-.17,10.76-2.29,3.11-2.23.12-7.44-3-5.18-2.14,1.54-5.17,1.64-7.73,1.47-3.85-.25-3.83,5.75,0,6Z"/>
    <path d="M791,421.43c6.32,0,13.59.11,19.58-2.1,3.59-1.33,2-7.13-1.6-5.79-5.52,2-12.15,1.89-18,1.89-3.86,0-3.87,6,0,6Z"/>
    <path d="M851.92,409a75.64,75.64,0,0,1-12,6.67A119.71,119.71,0,0,1,807,425.32c-3.81.56-2.19,6.34,1.59,5.78a124.6,124.6,0,0,0,33.77-10,76.18,76.18,0,0,0,12.55-6.9c3.12-2.22.13-7.43-3-5.18Z"/>
    <path d="M837.76,368.85a13.13,13.13,0,0,1-6.13,4.45c-3.66,1.18-2.1,7,1.6,5.78a18.44,18.44,0,0,0,8.77-6,3.1,3.1,0,0,0,0-4.24c-1-1-3.24-1.28-4.24,0Z"/>
    <path d="M854.46,421.75A83.89,83.89,0,0,1,842.82,427,138.5,138.5,0,0,1,811,435c-3.78.49-3.83,6.49,0,6,15.8-2,32.53-6.15,46.49-14.15,3.35-1.92.33-7.11-3-5.18Z"/>
    <path d="M858,435.19a205.69,205.69,0,0,1-42.2,10.91c-1.62.22-2.47,2.27-2.09,3.69.45,1.73,2.09,2.31,3.69,2.09A204.91,204.91,0,0,0,859.61,441c3.6-1.31,2-7.11-1.6-5.78Z"/>
    <path d="M859.38,448.43c-11.92,6.4-26.34,9.42-39.71,10.26-3.83.24-3.86,6.24,0,6,14.45-.91,29.86-4.16,42.74-11.08,3.4-1.83.38-7-3-5.18Z"/>
    <path d="M857.3,463.57c.82-.36.39-.16-.18.06-.76.3-1.53.59-2.3.87-2.88,1-5.8,1.93-8.75,2.73a150.74,150.74,0,0,1-30.87,5c-3.84.23-3.86,6.23,0,6,15.13-.89,31.1-3.35,45.12-9.44,3.54-1.54.49-6.71-3-5.18Z"/>
    <path d="M858,477.64c-15.73,6.09-33.4,8.65-50.18,8.65v6c6.45-.84,13.57-.82,19.8,1.17,4.4,1.4,6.78,3.79,7.81,8.27,1.2,5.2,1,11-3.89,14.24-5.27,3.51-13.3,4.3-19.37,2.53-3.71-1.09-5.3,4.7-1.6,5.78a32.29,32.29,0,0,0,20.82-1.49,16.85,16.85,0,0,0,10.67-16.55c-.18-6.14-1.91-12.38-7.19-16-4.64-3.14-10.65-4-16.12-4.32a60.49,60.49,0,0,0-10.93.33c-3.7.48-4,6,0,6,17.26,0,35.58-2.6,51.78-8.87,3.56-1.38,2-7.18-1.6-5.78Z"/>
    <path d="M837.7,499.82c7.65-.51,15.77-1.42,22.95-4.17,3.57-1.37,2-7.17-1.59-5.79-6.71,2.57-14.21,3.48-21.36,4-3.83.26-3.86,6.26,0,6Z"/>
    <path d="M839,511.83c7.16,0,14.94-.53,21.68-3.07,3.58-1.34,2-7.15-1.59-5.78-6.29,2.36-13.41,2.85-20.09,2.85-3.86,0-3.87,6,0,6Z"/>
    <path d="M835.41,521.69c8.23,1.09,17.34.92,25.24-1.75,3.64-1.23,2.08-7-1.59-5.78-7.44,2.51-15.91,2.56-23.65,1.53-1.62-.22-3,1.53-3,3a3.08,3.08,0,0,0,3,3Z"/>
    <path d="M837.28,519.21q.48,27.84,1,55.67c.57,31.28,1.15,62.56,1.9,93.83.24,9.75.32,19.53.92,29.26.23,3.84,6.23,3.87,6,0-1.39-22.77-1.31-45.71-1.78-68.51q-.92-45.11-1.68-90.22-.18-10-.35-20c-.06-3.85-6.06-3.87-6,0Z"/>
    <path d="M816.76,522.32l.53,21.39,1.21,48.85,1.35,54.18.91,36.6c.24,9.52.39,19.48,5.51,27.9,2.35,3.85,5.91,7,10.46,7.9a48.81,48.81,0,0,0,14.48.24c4.66-.61,8.88-2.5,11.76-6.32,3.07-4,4.18-9.26,4.63-14.22,1.06-11.63.2-23.6-.17-35.24-.59-18.77-1.45-37.53-2.38-56.29q-1.37-27.63-2.94-55.26-.9-15.66-1.83-31.32l-.09-1.52c-.24-3.83-6.24-3.86-6,0q.64,10.66,1.26,21.33,1.44,24.93,2.74,49.87,1.5,28.61,2.67,57.23c.57,14.42,1.18,28.87,1,43.31-.06,5.4,0,11.3-2.36,16.28-1.85,3.86-5.1,5.77-9.27,6.26a42.78,42.78,0,0,1-6.79.12c-2.11-.08-4.46.07-6.5-.58-7.27-2.29-9.22-13.17-9.88-19.65-.25-2.44-.21-4.88-.27-7.33l-.77-31-1.28-51.52-1.27-50.84-.71-28.94v-1.41c-.1-3.86-6.1-3.87-6,0Z"/>
    <path d="M799.43,540.65q.52,25.08,1,50.16c.53,27.8,1.05,55.6,1.36,83.4.09,7.88.5,15.88,0,23.76-.23,3.86,5.77,3.85,6,0,.39-6.52.08-13.13,0-19.65-.12-12.71-.32-25.41-.52-38.11q-.66-40.65-1.49-81.28-.18-9.13-.37-18.28c-.08-3.85-6.08-3.87-6,0Z"/>
    <path d="M780.26,622.42v60.49c0,5.81-.43,11.79,0,17.59a23.45,23.45,0,0,0,5,12.86c5.11,6.28,13.49,8.11,21.24,7.47s15.23-3.85,18.93-11a21.14,21.14,0,0,0,2.57-10.7c-.25-3.83-6.26-3.86-6,0a16.17,16.17,0,0,1-.06,2.2,1.9,1.9,0,0,1-.08.67c0-.11.11-.64,0-.06-.07.41-.14.81-.23,1.21a20.91,20.91,0,0,1-.86,2.79c-2.2,5.2-7.4,8-13,8.77-6.46.86-14-.08-18.23-5.63a16,16,0,0,1-2.7-5.75c-.2-.78-.36-1.57-.49-2.37-.06-.37,0,.51,0-.38a3.07,3.07,0,0,0-.05-.68c-.27-5.64,0-11.35,0-17V622.42c0-3.86-6-3.87-6,0Z"/>
    <path d="M761.83,622.55v77c0,3.86,6,3.86,6,0v-77C767.83,618.69,761.83,618.68,761.83,622.55Z"/>
    <path d="M743,622.42l-.68,56c-.08,6.49-.35,13-.24,19.51.18,10.4,6.62,19.72,17.48,20.68,9.8.87,26.63-3.13,26.71-15.79,0-3.86-6-3.87-6,0a4,4,0,0,1,0,.49c.16-1.18-.07.3-.19.71a8.42,8.42,0,0,1-1.83,3.34c-4.15,4.67-11.51,5.51-17.37,5.33a12.17,12.17,0,0,1-11.57-8.47,24.42,24.42,0,0,1-.8-2.9c-.09-.44-.17-.89-.24-1.33,0,.2,0-.15-.07-.67a12.56,12.56,0,0,1-.08-1.5c-.21-18,.44-36,.66-53.9l.26-21.54c0-3.86-6-3.86-6,0Z"/>
    <path d="M719.63,626.27l69.89-1.12,10-.15a3,3,0,0,0,3-3,3.09,3.09,0,0,0-.11-.8,282.2,282.2,0,0,1-11.14-53.1,219.54,219.54,0,0,1-1-40.85,35.42,35.42,0,0,0-3.2-18c-4.73-9.59-14.79-11.9-24.72-11.15-9.17.69-16.43,5-20.7,13.29-4.73,9.12-6.65,19.67-8.82,29.63-2.24,10.25-4.31,20.55-6.35,30.84-3.27,16.55-6.55,33.11-9.53,49.72a5.36,5.36,0,0,1-.16.89c-.7,3.77,5.08,5.39,5.78,1.59q3.7-20,7.61-39.94,3-15.71,6.28-31.38c2-9.62,3.92-19.33,6.73-28.75,2.18-7.3,5.25-15.86,13.08-18.65,4.37-1.56,9.27-1.6,13.83-1.16a13.93,13.93,0,0,1,10.12,5.3c3.63,4.81,4.4,11.34,4.09,17.13a242.8,242.8,0,0,0,.37,35.78,299.81,299.81,0,0,0,11.66,59.42l.3,1,2.9-3.79-69.9,1.12-10,.15C715.77,620.34,715.76,626.34,719.63,626.27Z"/>
    <path d="M765.77,534.64c.17,24.25.43,48.61,2.18,72.8.37,5.16.47,10.81,2,15.78,1.15,3.67,6.94,2.1,5.78-1.6-1.3-4.15-1.33-7.91-1.69-12.5-.56-7.21-.88-14.43-1.16-21.65-.55-14.38-.85-28.76-1-43.15,0-3.23-.08-6.46-.1-9.68,0-3.86-6-3.87-6,0Z"/>
    <path d="M750.11,534.64l-2.41,29.71-3.82,47.13L743,622.42c-.31,3.85,5.69,3.83,6,0l2.41-29.71,3.82-47.13.89-10.94c.31-3.85-5.69-3.83-6,0Z"/>
    <path d="M727.53,587l-28.85-16.32c-1.39-.79-3.18-2.19-4.77-2a8,8,0,0,0-2.2.88L683,573.85l-73.16,35.51-21.57,10.47a3,3,0,0,0-1.07,4.1h0c6.75,8.84,15.26,16.54,23.82,23.57a236.85,236.85,0,0,0,71.86,40.13A260.57,260.57,0,0,0,745.07,701c3.85.36,3.82-5.64,0-6-33.89-3.16-67.14-12.87-96.93-29.45a209.68,209.68,0,0,1-48.9-37c-1.86-1.93-3.68-3.89-5.42-5.93l-1.41-1.7c-.26-.31-.91-1.18,0,0L591.3,625l35.25-17.11,56.26-27.31,13-6.32h-3l31.7,17.94c3.37,1.9,6.39-3.28,3-5.18Z"/>
    <circle class="cls-12" cx="573.82" cy="643.13" r="25.86"/>
    <circle class="cls-12" cx="651.24" cy="700.27" r="25.86"/>
    <circle class="cls-12" cx="745.25" cy="726.08" r="25.86"/>
    <path d="M666.05,682.66l18,29.87,33,55,12.39,20.61,3.47,5.77c.93,1.54,1.58,3.05,3.66,3.27,4.28.45,8.85,0,13.14,0h29.66c16.77,0,33.57.29,50.33,0h.93a3,3,0,0,0,2.59-4.51c-5.31-9-10.47-18.16-15.63-27.29L791,718.18l-6.73-11.92c-1.9-3.36-7.09-.34-5.18,3l17.78,31.48L820.67,783c2.41,4.26,4.9,8.47,7.38,12.68l2.59-4.51H736.58l2.59,1.49-23.08-38.39L679.63,693.6l-8.4-14c-2-3.31-7.18-.29-5.18,3Z"/>
    <path d="M622.93,652l-34,20.63-54.18,32.93-12.51,7.6c-3.29,2-.28,7.2,3,5.18l34-20.64,54.18-32.92,12.51-7.6C629.23,655.18,626.21,650,622.93,652Z"/>
    <path d="M548.3,650.13l-53.4,34.51-7.57,4.88,4.11,1.08c-9.26-16.11-33-11.9-41,3.27a25.76,25.76,0,0,0,3,28.22,26.09,26.09,0,0,0,20.7,9.17c10-.15,19.73-5.32,27.52-11.19,3-2.29.06-7.5-3-5.18-9.91,7.48-24.68,14.89-36.5,7.05a19.47,19.47,0,0,1,9.45-35.59c6.1-.38,11.41,1.65,14.65,7.28a3,3,0,0,0,4.1,1.07l53.4-34.5,7.56-4.89c3.24-2.09.23-7.28-3-5.18Z"/>
    <path d="M514.77,733.61c-7.9,5.54-13.7,13.61-15.22,23.27-1.05,6.72-.19,13.8,3.53,19.63a25.45,25.45,0,0,0,46.72-10c1.06-7.66-.85-17.12-9.64-19l.72,5.49,29.2-18.22,46.34-28.9,10.75-6.7c3.27-2,.26-7.23-3-5.18L595,712.21l-46.34,28.9-10.75,6.7c-2.06,1.29-1.91,4.93.72,5.49,5,1.05,5.68,6.08,5.5,10.33a19.47,19.47,0,0,1-35.81,9.87,22.12,22.12,0,0,1-3-14.52c.94-8.07,5.78-15.43,12.53-20.17,3.14-2.21.14-7.41-3-5.18Z"/>
    <path d="M472.16,726.75c-5.16,7.94-4.64,18.85-.66,27.09,4.58,9.48,14.41,11.93,24.13,10.36a34.55,34.55,0,0,0,7.41-2c3.53-1.43,2-7.24-1.6-5.78-5.89,2.39-14,3.73-19.69.36s-7.66-11.21-7.32-17.31a20.22,20.22,0,0,1,2.91-9.71c2.11-3.25-3.08-6.26-5.18-3Z"/>
    <path d="M499,760.53a28,28,0,0,1-53.87,6.93c-1.38-3.56-7.19-2-5.78,1.6a33.93,33.93,0,0,0,58.15,9.76,34.85,34.85,0,0,0,7.5-18.29C505.43,756.7,499.43,756.73,499,760.53Z"/>
    <path d="M458.07,746.51a12.37,12.37,0,0,1-14.77,18.38c-3.64-1.3-5.21,4.5-1.59,5.79a18.26,18.26,0,0,0,21.54-27.2c-2.08-3.24-7.28-.24-5.18,3Z"/>
    <path d="M438.46,733.7c7.13,11.25,21.25,15.57,33.73,11.9,3.69-1.09,2.12-6.88-1.6-5.78-7.13,2.09-14.3,1.41-20.52-2.8a26.47,26.47,0,0,1-5-4.45c-.27-.31-.53-.62-.79-.94s.21.29-.22-.29c-.16-.22-.31-.44-.46-.67-2.06-3.25-7.25-.25-5.18,3Z"/>
    <path d="M347.53,677l24.3,18.24,38.52,28.91,8.92,6.69c3.09,2.32,6.08-2.89,3-5.18L398,707.43l-38.52-28.91-8.92-6.69c-3.09-2.32-6.08,2.89-3,5.18Z"/>
    <path d="M426.89,749.23c6.9,4.45,12.23,11,12.37,19.08a3.3,3.3,0,0,1-.05.7c.09-1.86,0,1.1-.07,1.53a17.32,17.32,0,0,1-2.23,7.28A17.54,17.54,0,0,1,406,761.25c1.06-2.07,3.16-4.53,1.67-7a6.47,6.47,0,0,0-1.71-1.59l-60-47.27-21.58-17a3.07,3.07,0,0,0-4.33.11,3.14,3.14,0,0,0-.38.5,15.77,15.77,0,0,1-17.18,6.73,16.4,16.4,0,0,1,1.86-32.19c.3,0,4.16-.31,2.35-.15a25.48,25.48,0,0,1,4.19-.07c7.48.53,13.77,4.83,18.32,10.61,2.39,3,6.6-1.24,4.24-4.24a31.74,31.74,0,0,0-21.34-12.26,28.33,28.33,0,0,0-15.94,2.49,22.39,22.39,0,0,0,3.44,41.23,22,22,0,0,0,25.3-9.15l-4.71.6,28.09,22.15,44.38,35L403,757.89l-.88-2.12a6.17,6.17,0,0,1,0,.86v.22q.11-1.35-.48,0A10.4,10.4,0,0,0,400,760a23.49,23.49,0,0,0,22,32.66c14.91-.25,25.09-14.24,23-28.17-1.36-8.87-7.77-15.75-15.07-20.46-3.25-2.09-6.26,3.1-3,5.18Z"/>
    <path d="M452.05,703.18l-31.21-21-49.51-33.4L359.9,641v5.18c13.77-10.42,7.8-33-8.61-36.78A21.15,21.15,0,0,0,330,616.94,22.1,22.1,0,0,0,327.71,641,59.87,59.87,0,0,0,341,657.45c2.86,2.57,7.12-1.66,4.24-4.25-7.39-6.64-16.94-16.85-13.2-27.72a15.78,15.78,0,0,1,13-10.57,15.4,15.4,0,0,1,14.7,7.71c3.24,5.68,2.57,14.31-2.83,18.4a3,3,0,0,0-1.08,4.1,2.94,2.94,0,0,0,1.08,1.08l31.21,21,49.52,33.41,11.42,7.7c3.21,2.17,6.22-3,3-5.18Z"/>
    <path d="M308.21,658.12a13.79,13.79,0,0,1,18.38-19c3.44,1.74,6.48-3.44,3-5.18A19.79,19.79,0,0,0,303,661.15c1.83,3.4,7,.37,5.19-3Z"/>
    <path d="M195.84,498.5c2-6.58,1-13.65-5.29-17.38a15.9,15.9,0,0,0-7.88-2.3,18.47,18.47,0,0,0-13.33,5.76c-5.51,6.12-6.27,15.85-2.89,23.17,2.08,4.52,5.77,7.77,9.93,10.33a30.56,30.56,0,0,0,28.5,1.62c16.42-7.49,22.56-28.82,12.64-43.9a30.57,30.57,0,0,0-24.31-13.75c-4.94-.19-9.9,0-14.84,0-3.86,0-3.87,6,0,6,9.57,0,19.81-1.32,28,4.61,12,8.68,13.21,26.69,2.65,37a24.44,24.44,0,0,1-20.38,6.65,26.44,26.44,0,0,1-11.29-4.76l-.84-.56c-.27-.19.17.18-.43-.34-.35-.3-.68-.6-1-.92a16.14,16.14,0,0,1-3.91-16.42c1.4-4.66,5-7.4,9.64-8.3a23.14,23.14,0,0,1,2.49-.17c.22,0-.79-.19.19.05.7.17,1.4.32,2.1.55a8.31,8.31,0,0,1,4.17,2.91c1.77,2.53,1.11,5.83.27,8.58-1.14,3.7,4.65,5.28,5.78,1.59Z"/>
    <path d="M204.34,405.05c.44,4.86-.68,9.23-5.55,10.48a12.08,12.08,0,0,1-3.64.35c-1.5,0,.89.35-.71-.11-3.3-1-6.51-2.67-8.37-6.12-2.87-5.31-1.39-12.9,2.5-17.32a16.6,16.6,0,0,1,4.8-3.73l.9-.44c.53-.25-.59.25,0,0,1-.42,2-.87,3.1-1.22a24.89,24.89,0,0,1,23.8,4.38c11.81,10,11.69,28.92-.66,38.5A25.25,25.25,0,0,1,200,434.39l-13.06-2.51c-3.77-.73-5.38,5.05-1.59,5.78,4.46.86,8.92,1.73,13.39,2.58,8.3,1.58,16.83.31,23.89-4.53,15.5-10.65,18-33.24,4.81-46.81-10.69-11-30.42-12.79-41.94-2a22.8,22.8,0,0,0-6.13,21.87c1.57,6,6.18,10.25,11.87,12.28a15.46,15.46,0,0,0,8.86.33c7.75-1.8,11-8.87,10.27-16.34-.34-3.81-6.35-3.85-6,0Z"/>
    <path d="M196.61,468.39a46.7,46.7,0,0,1,8.66,1.14,58.3,58.3,0,0,1,18.5,6.79c6.4,3.84,11.68,9.46,14,16.64,1.75,5.31,1.66,10.74,1.79,16.27l.36,16c.06,3.08.48,6.38.19,9.47l4.52-2.59h0l1.48,2.59v-.13c-.12-3.85-6.12-3.87-6,0a3.28,3.28,0,0,0,1.49,2.72c2,1.48,4.33-.59,4.51-2.59a67.65,67.65,0,0,0-.16-7.8q-.16-7.59-.34-15.2c-.14-6.11.09-12.34-1.46-18.3-4.24-16.33-19.46-25.51-35-29.15a67.22,67.22,0,0,0-12.62-1.87c-3.86-.14-3.85,5.86,0,6Z"/>
    <path d="M204.28,440.47c-1.61-.21,0,0,.44.07,1.08.17,2.15.37,3.21.57,3.56.69,7.08,1.54,10.56,2.52,10.15,2.87,20.07,6.93,28.8,12.92,9.6,6.58,17.24,15.89,19.62,27.49a50.63,50.63,0,0,1,.75,10.21v43.64c0,3.86,6,3.86,6,0V512.11c0-8.64.73-17.65-.41-26.25-3.37-25.42-27.06-39.85-49.51-46.92a112.72,112.72,0,0,0-19.46-4.47C200.46,434,200.5,440,204.28,440.47Z"/>
    <path d="M182.11,404.78c-12.06-5.08-25.25-7.35-38.22-8.63a120.87,120.87,0,0,0-27.55.05C94.4,399.05,73.9,408.86,57,423a82.43,82.43,0,0,0-9.78,9.27,3,3,0,0,0-.77,2.92c4.42,10.69,12.2,20.4,20.46,28.33C82.8,478.76,104,489,126,491.22c15.26,1.52,31.13,1.72,46.14-1.74,3.76-.86,2.17-6.65-1.59-5.78-13.29,3.05-27.28,2.93-40.8,1.85q-3-.24-6.06-.58l-1.57-.19h0a116.93,116.93,0,0,1-19.84-5.57,95.47,95.47,0,0,1-44.65-36.07,80.87,80.87,0,0,1-4.33-7.35c-.36-.69-.7-1.38-1-2.08-.24-.51-.56-1.3-.08-.16l-.78,2.92c7.68-8.89,17.87-16.09,28.05-21.76a107,107,0,0,1,32.63-11.83,108.7,108.7,0,0,1,28.14-1.05c13.64,1.08,27.58,3.4,40.25,8.74,1.5.63,3.28-.69,3.69-2.1.49-1.72-.61-3.06-2.1-3.69Z"/>
    <path d="M104.85,403.62l.36.26c.5.35-.62-.52-.08-.06l.72.61a30.15,30.15,0,0,1,3.64,3.85,43.75,43.75,0,0,1,7.62,16.61,66.23,66.23,0,0,1-.32,30.67c-1.78,7.06-5.22,13.85-11,18.46a18.09,18.09,0,0,1-7.86,4.05c-3.78.78-2.18,6.56,1.59,5.79,10.79-2.21,18.55-13.08,21.89-22.77,3.63-10.53,4-22.6,2.32-33.54a50.11,50.11,0,0,0-8.31-21.29,30.15,30.15,0,0,0-7.54-7.82c-3.24-2.12-6.25,3.07-3,5.18Z"/>
    <path d="M72.19,369.93c-1.23,5.18.8,10.89,5.66,13.4,5.81,3,13.16,1,17.45-3.72,5.24-5.72,5.24-13.85,1.48-20.38a23.34,23.34,0,0,0-14-10.65,28.33,28.33,0,0,0-17.55,53.87c.63.21,1.26.39,1.9.55,5.34,1.46,10.77.86,16.23.73,8.67-.21,17.38-.3,26.05.26,3.85.25,3.84-5.75,0-6A323.76,323.76,0,0,0,76,398a22.32,22.32,0,0,1-8.22-43.51c9.93-3.16,23.73,1.06,25.63,12.58a10.07,10.07,0,0,1-8.26,11.57c-.27,0-.54.08-.82.1-2.46.14-5.09-.88-6-3.29a7.45,7.45,0,0,1-.41-2.92,2.13,2.13,0,0,1,.12-1c.89-3.75-4.9-5.35-5.78-1.59Z"/>
    <path d="M91.67,379.81a6.52,6.52,0,0,0,3.51,1.5,52.67,52.67,0,0,0,12.42.37c16.41-.88,32.54-3.95,49-1.44a80.15,80.15,0,0,1,28.6,10.11c3.34,2,6.36-3.23,3-5.18-15-8.78-31.81-12.23-49.06-11.95-8.3.14-16.5,1.17-24.75,1.95a92.37,92.37,0,0,1-16.29.52,10.36,10.36,0,0,1-1.12-.12c.63.08-.09,0-.32-.06-.41-.09-.81-.22-1.21-.3-.79-.15.68.32,0,0-.41-.19.53.45.43.35-2.66-2.81-6.9,1.44-4.24,4.24Z"/>
    <path d="M91.83,353.25a28.75,28.75,0,0,0-17.18-5.84c-3.86-.06-3.86,5.94,0,6a23.49,23.49,0,0,1,14.16,5c3.06,2.34,6-2.87,3-5.18Z"/>
    <path d="M91.67,379.81a6.52,6.52,0,0,0,3.51,1.5,52.67,52.67,0,0,0,12.42.37c16.41-.88,32.54-3.95,49-1.44a80.15,80.15,0,0,1,28.6,10.11c3.34,2,6.36-3.23,3-5.18-15-8.78-31.81-12.23-49.06-11.95-8.3.14-16.5,1.17-24.75,1.95a92.37,92.37,0,0,1-16.29.52,10.36,10.36,0,0,1-1.12-.12c.63.08-.09,0-.32-.06-.41-.09-.81-.22-1.21-.3-.79-.15.68.32,0,0-.41-.19.53.45.43.35-2.66-2.81-6.9,1.44-4.24,4.24Z"/>
    <path d="M61.38,501.6a6.47,6.47,0,0,1-.06-2.63,5.21,5.21,0,0,1,3.75-4.28c4-1.28,8.47,1.16,10.5,4.56,2.67,4.47,1,9.84-1.94,13.72-2.73,3.55-7.1,5.54-11.43,6.37a22.33,22.33,0,0,1-14.26-41.85c4.09-2.12,8.36-2.47,12.85-2.31,7.37.26,14.74.38,22.11.28,3.85,0,3.86-6,0-6q-11.58.17-23.16-.32a29.07,29.07,0,0,0-16,3.8,28.32,28.32,0,0,0,23.52,51.23,23.08,23.08,0,0,0,12.75-10c3.52-5.89,4.08-13.43-.11-19.14-4-5.39-11.45-8.33-17.82-5.59-5.38,2.31-7.84,8.2-6.52,13.78.89,3.75,6.68,2.16,5.79-1.6Z"/>
    <path d="M79.37,503.05a73.63,73.63,0,0,1,13.84,2.2,83.94,83.94,0,0,1,13.67,4.45,80.22,80.22,0,0,0,12.1,4.48c16.94,4.26,34.92,1.75,51.7-2,3.77-.85,2.18-6.64-1.59-5.78-16.46,3.73-34.38,6.29-50.88,1.39-4.34-1.28-8.34-3.36-12.57-5A92,92,0,0,0,92.92,499a81.58,81.58,0,0,0-13.55-2c-3.86-.18-3.85,5.82,0,6Z"/>
    <path d="M287.48,480.63a13.58,13.58,0,0,0-6.2,4.82c-3.22,4.52-2.44,10.07-.57,15a91.27,91.27,0,0,0,8.68,16.7c1.41,2.19,2.64,4.47,4.93,5.84,6.77,4,20.26,1.42,18.65-8.38-1.15-7.06-6.54-13.67-10.77-19.17-3.72-4.84-7.64-9.55-11.8-14-2.64-2.83-6.87,1.42-4.24,4.24,7,7.5,14,15.67,18.88,24.76a23.78,23.78,0,0,1,1.58,3.49,7,7,0,0,1,.54,2.7c-.06.81.07-.44,0,0a3.47,3.47,0,0,1-.16.55c.1-.32,0-.08-.06-.07,1.14-.49-1.44.82-1.33.77a11,11,0,0,1-1.55.64,7.83,7.83,0,0,1-5.9-.29c-.41-.19-1.15-.89-1.56-.93.23,0,.42.44.53.63a10.23,10.23,0,0,0-.73-1,110.54,110.54,0,0,1-6.55-10.78c-2.24-4.24-6.29-10.79-4.45-15.77a7.78,7.78,0,0,1,2.31-3.07c.42-.31.89-.54,1.33-.81s.62-.26,0,0C292.66,485.07,291.11,479.27,287.48,480.63Z"/>
    <path d="M334.56,616.59a48.4,48.4,0,0,1-12.48-15.24c-5.11-9.82-3.88-21.53-2.55-32.14.72-5.77,2.28-11.44,2.93-17.2a52.89,52.89,0,0,0-4.83-29.39,59.62,59.62,0,0,0-3.69-6.75,5.45,5.45,0,0,0-2.85-2.56c-2.93-.78-4.27,2.08-3.85,4.45.68,3.79,6.47,2.19,5.79-1.6a1.57,1.57,0,0,1-.29,1.63l-1.92.53c-.93.8-1.72.87-2.36.19.14-.16.34.94,0-.06a12.3,12.3,0,0,0,1.11,1.75A50.28,50.28,0,0,1,315.7,535a53.37,53.37,0,0,1,1,13.58c-.05,1.19-.18,2.37-.27,3.55-.07.86.24-1-.09.3A147,147,0,0,0,312.9,575c-.91,10.39-.78,20.65,4.29,30a52.53,52.53,0,0,0,13.11,15.86c3,2.38,7.26-1.84,4.24-4.24Z"/>
    <path d="M281.22,492.15c-5.2,1.52-9.1,6.31-11,11.17-2.18,5.63-1.91,11.93-.85,17.76.81,4.49,2.4,7.84,4.41,11.83l5.62,11.16c1.74,3.45,6.92.41,5.18-3l-4.09-8.13c-1.38-2.74-3.35-5.62-4.31-8.53-2.58-7.86-2.89-18.9,3.58-24.64.15-.13.77-.6.3-.26.25-.18.5-.36.76-.53.44-.27.89-.51,1.33-.76.85-.47-.17,0,.27-.13l.37-.13c3.7-1.08,2.13-6.87-1.59-5.78Z"/>
    <path d="M279.44,566.05c6.85-2.12,9.72-8.64,8.88-15.29a15.33,15.33,0,0,0-6.26-10.71c-4.3-3.11-10.1-3.93-15.2-4.91-10.32-2-20.79-3.33-31.24-4.49-7.8-.86-16.74-1.49-23.73,2.72a16.36,16.36,0,0,0-7.1,9.55c-1.39,4.59-1.83,10.79.92,15l2.59-4.51c-7.46.07-12.67,7.11-14.39,13.68-1.52,5.81-1.68,16.49,6.24,18l-.72-5.49c-5.67,4-9.19,10.84-7.93,17.78,1.09,6,5.87,13.67,12.78,13.76l-2.59-4.51c-2.88,6.28-3.89,15.27,2.7,19.6,2.6,1.71,5.76,2.12,8.79,2.41a27.2,27.2,0,0,0,9.43-.54c2.36-.62,5.2-1.89,6.47-4.14l-3.39,1.38c4.05,1,8.14,1.83,12.24,2.6,3.38.62,6.77,1.17,10.18,1.58,1.32.16,2.65.29,4,.36a5.57,5.57,0,0,0,1,0c1.57-.21-.78-.14-.53-.38a6.42,6.42,0,0,1,.65.41c4.58,3.2,11.13,6.13,16.79,5.66,7-.59,11.93-4.23,13.55-11.22.87-3.72,1.24-8-.47-11.49-1.55-3.21-4.66-5-8-5.82l-.8,5.89c11.56.38,15.37-17.33,9.62-25-3-4-8-5.51-12.68-6.52-5.65-1.23-11.36-2.23-17.08-3.07a175.3,175.3,0,0,0-29.92-2.24c-3.85.1-3.87,6.1,0,6,13.86-.34,27.79,1.59,41.36,4.26a54.2,54.2,0,0,1,9.47,2.36,8,8,0,0,1,4.67,3.79c1.12,2.45.86,5.71.3,8.25-.51,2.28-1.51,4.54-3.66,5.66a7.64,7.64,0,0,1-1.8.55c.32-.06.28,0-.28,0-3.38-.11-4.08,5.06-.8,5.9,2.09.53,3.89,1.34,4.54,3.53.75,2.58.09,6-.83,8.4-1.76,4.76-7.28,5.58-11.69,4.33a33.57,33.57,0,0,1-7-3c-1.25-.7-2.57-1.83-4-2.09-2.39-.43-5-.29-7.39-.61-2.84-.38-5.66-.88-8.47-1.41-3.79-.73-7.57-1.52-11.33-2.43A3.08,3.08,0,0,0,224,621c-.13.23-.44.48.22-.26a3,3,0,0,1-.63.61c.41-.25-.39.24-.76.43a10.3,10.3,0,0,1-1.72.6,20.88,20.88,0,0,1-6.64.42c-2.24-.14-5.06-.26-7-1.68-2.12-1.59-2.2-4.51-1.84-6.8a19.34,19.34,0,0,1,.9-3.52c.14-.42.3-.82.46-1.23s-.31.69-.07.16a3,3,0,0,0-2.59-4.52c-.69,0,.5.24-.36-.07a5.92,5.92,0,0,1-1.88-.85c-2.63-1.77-4.27-5.32-4.74-8.37a10.93,10.93,0,0,1,2.45-8.35,18.89,18.89,0,0,1,2-2.1c.15-.13,1-.84.64-.56s0,0,.08,0c1.9-1.34,2-5-.72-5.49a1.1,1.1,0,0,1-.26-.06c-.75-.27.23.15-.14,0a2.57,2.57,0,0,1-1.36-1.11c-1.9-2.58-.94-7.19-.07-10.11.91-3.08,2.58-6,5.45-7.6a9.46,9.46,0,0,1,2.42-.87c.74-.2-.43,0,.52-.06A3,3,0,0,0,210.9,555c-2.72-4.19-1-12.75,3.31-15.91,5.3-3.87,13.25-3.23,19.44-2.57,8.21.87,16.41,1.9,24.56,3.23,4.72.77,9.43,1.62,14.06,2.78,3.73.92,7.52,2.23,9.27,6a10.43,10.43,0,0,1,1,4.18c0,.61,0,1.21-.05,1.82-.05,1.1.06.06-.08.69a6.57,6.57,0,0,1-4.5,5.17c-3.68,1.14-2.11,6.93,1.59,5.79Z"/>
    <path d="M224.85,559.44a211,211,0,0,1,28.88,1.34c6.69.77,13.54,1.89,19.85,4.29,4.72,1.8,9.7,4.86,9,10.66-.49,4.3-5.71,6.09-9.32,6.63-3.8.56-2.19,6.34,1.6,5.78,4.65-.69,9.82-3.21,12.24-7.38,3.76-6.44.12-14.54-5.6-18.37-5.88-3.94-13.46-5.46-20.33-6.58a190.07,190.07,0,0,0-23.09-2.19c-4.42-.18-8.85-.28-13.27-.18-3.85.09-3.87,6.09,0,6Z"/>
    <path d="M222,604.8a123.66,123.66,0,0,1,16.78.27c11.56.84,23.31,2.94,34,7.49a3.1,3.1,0,0,0,4.1-1.07c.75-1.26.41-3.47-1.08-4.11-16.56-7-35.85-9.72-53.82-8.58-3.83.24-3.86,6.25,0,6Z"/>
    <path d="M249.21,534.93a14.87,14.87,0,0,0,.44,8.15c1.89,5,6.22,6.11,11,6.91,8,1.35,16,3,24,4.66,3.76.79,5.37-5,1.59-5.79-6.81-1.43-13.65-2.81-20.5-4.05q-3-.54-6-1c-1.62-.26-3.18-.57-4.08-2.07a6.46,6.46,0,0,1-.74-3.45c0-.23.13-2,0-1.12a6.17,6.17,0,0,1,.11-.62c.82-3.77-5-5.37-5.79-1.6Z"/>
    <path class="cls-12" d="M252.4,557.64s-4.25,11.36,6.78,13.19c0,0,20.15,4.43,26.46,6.73"/>
    <path class="cls-12" d="M248.15,581.2s-3.94,9.08,5.49,11.45c0,0,20.43,3.46,29.65,6.7"/>
    <path class="cls-12" d="M247.33,602.94s-1.86,11,7.07,12.6c0,0,17.29,2.79,26.44,7.31"/>
    <path class="cls-12" d="M273.48,632.67s1.28,6.6,22.61,30.78"/>
    <path d="M267,734.74c-1,2.07-5,1.4-6.13-.27s-1-3.77-1-5.55a3.21,3.21,0,0,1,.05-.69c.05-.23-.22.81,0-.1a13.35,13.35,0,0,1,.92-2.69c4.2-7.48,18.29-5.86,22.51,1.46,3.14,5.46,2.65,13.37.85,19-4.17,13-20.38,17-31.55,11.07-7.52-4-13.37-11.75-12.4-20.51L242,720.8l6.1-55.29,2.76-25.1c.48-4.35,1.19-8.75,1.45-13.12a2,2,0,0,1,.07-.64c.42-3.83-5.58-3.8-6,0l-4.2,38.14L235.56,725c-.48,4.3-1.2,8.66-1.44,13-.79,14.6,13.69,26.21,27.07,27.62,12.45,1.31,26.29-6.86,29.18-19.53,2-8.6,2.13-19.74-4.93-26.18-7.88-7.2-24.49-7.86-29.86,2.74a15.11,15.11,0,0,0-1.69,6.38,16.37,16.37,0,0,0,1.36,7.59c1.58,3.27,4.58,4.68,8.06,5.16s7.24-.57,8.88-4-3.53-6.52-5.18-3Z"/>
    <path d="M240.08,684c0,.4-.07.79-.11,1.19-.07.62.13-.82,0,0l-.12.74c-.12.64-.25,1.27-.4,1.9a32.56,32.56,0,0,1-3.93,9.82c-6.24,10.59-17.56,16-29.38,17.91-9,1.42-18.5.82-27.57.7A28.52,28.52,0,0,0,167.36,718c-6.61,2.7-10,8.46-9.87,15.55.2,8.85,5.42,16.94,14.86,17,9.86.07,19.72,0,29.58,0,6.27,0,12.66-.34,18.93.12a69.22,69.22,0,0,1,20.57,5,76.59,76.59,0,0,1,14.35,7.79c.66.46,1.37.9,2,1.42,0,0-.64-.55-.28-.21.2.19.4.37.59.57.75.8,1.47,1.62,2.14,2.49a66.23,66.23,0,0,1,10.58,21.63c1.09,3.73,2.32,8,1.59,11.94a5.08,5.08,0,0,1-1,2.5,2.61,2.61,0,0,1-.89.69c-.79.42.44-.22-.28.11a2.17,2.17,0,0,1-.56.13c-.43.1.92-.12.28,0l-.94.11c.9-.08-.24,0-.85,0a5.07,5.07,0,0,1-2.78-.79c-1.4-1-1.67-2.54-2.08-4.07a36.44,36.44,0,0,0-2.7-7,49,49,0,0,0-4.28-6.66c-8.72-11.46-22.43-16.17-36.29-17.8a97.51,97.51,0,0,0-26.49.36l-1.16.2c-1.72.3-2.34.38-3.8.54a92.05,92.05,0,0,1-15.92.52c-6.08-.36-12.4-1.42-17.9-4.15-6.67-3.31-10.58-8.7-12.85-15.73-2.8-8.63-2.74-18-.85-26.76a67.91,67.91,0,0,1,2.5-8.73c.16-.45.33-.9.5-1.34l.28-.69c-.1.24.46-1.17.57-1.49,3.82-10.71,17.27-12.58,27.17-12.93a93,93,0,0,1,12.82.42l1.53.17c1,.1-1.09-.06.22,0a43.57,43.57,0,0,0,12.78-1c9.73-2.28,17.91-9.28,20.76-19,1.53-5.16,1.89-10.83,2.75-16.12l5.37-33.07,1.07-6.6c.61-3.78-5.17-5.41-5.79-1.6l-8.59,53a22.72,22.72,0,0,1-.84,3.65,18.55,18.55,0,0,1-2,4.25,21,21,0,0,1-4.3,5c-5.31,4.52-12.47,5.75-19.24,5.64-2.59,0-5.52-.51-8.26-.65-10.9-.56-23.88,0-33.15,6.45a21.48,21.48,0,0,0-6,6.2,16.31,16.31,0,0,0-1.84,4,4.92,4.92,0,0,1-.33,1.07,78.13,78.13,0,0,0-4.68,17.32c-2.18,16.13,1.53,35.9,17.4,43.79,10.9,5.41,24,5.81,35.84,4.56,2.49-.26,5-.59,7.42-1l.57-.09c-1.24.21.65-.07,1-.11,1.89-.21,3.78-.37,5.69-.46,12.26-.66,25.55.21,36.73,5.71a35.24,35.24,0,0,1,8.4,5.59,30.51,30.51,0,0,1,3.48,3.71c.37.47.73,1,1.09,1.44.09.13.29.39-.07-.09l.62.84a35.76,35.76,0,0,1,5.25,11.53,10.55,10.55,0,0,0,6.85,7.54,12,12,0,0,0,3.67.56c.5,0,3.46-.34,1.49-.1a9.88,9.88,0,0,0,3.3-.82c4.84-2.33,5.81-8.23,5.33-13.08-.91-9.31-4.72-18.74-9.48-26.74a55.76,55.76,0,0,0-5.46-7.75,27.38,27.38,0,0,0-6.29-5.1c-11.67-7.6-26-12.71-40-12.68h-45c-.39,0-1.77-.15-.82,0-4.21-.7-6.9-3.71-7.64-8.43-.49-3.19-.45-7,1.65-9.63a11.53,11.53,0,0,1,6.18-3.59,27.71,27.71,0,0,1,7.86-.72H195c13,0,26.4-2.7,36.73-11.11a39.92,39.92,0,0,0,13.67-22.38,28.2,28.2,0,0,0,.7-4.75c.17-3.86-5.83-3.85-6,0Z"/>
    <path d="M659.61,762.71V773c0,2.17,1,6.82-1.15,8.24-2.33,1.57-5.89,1.56-8.58,1.61-3.75.08-8,.18-11.65-.68-4.63-1.09-4.42-4.94-4.42-8.77V761.1c0-3.86-6-3.87-6,0v12.69c0,5.27.69,10.48,6,13.1,3.77,1.86,8.4,1.78,12.52,1.91s8.21.12,12-1c3-.91,5.83-2.71,6.84-5.79a16.24,16.24,0,0,0,.42-5.06V762.71c0-3.86-6-3.87-6,0Z"/>
    <path d="M608,705l-9.17,45.71c-2.2,11-7,28,6.41,33.82a17.23,17.23,0,0,0,4.72,1.24c1,.13,1.75.09,2.4.14a54.81,54.81,0,0,0,6.14.35c6.38-.25,12.63-2.41,15.19-8.72,1.45-3.57-4.35-5.13-5.78-1.59-1.61,4-7.29,4.36-10.91,4.33q-1.25,0-2.49-.12l-.89-.08c-.74-.07.46,0,0,0-2.1-.22-4.21-.2-6.18-1.08-3.28-1.48-4.77-4.87-5.24-8.18a24.79,24.79,0,0,1-.12-4.87,19,19,0,0,1,.17-2c.07-.65-.09.55,0-.19a3.79,3.79,0,0,1,.11-.66c2.41-12.91,5.17-25.76,7.75-38.63l3.6-17.93c.75-3.77-5-5.39-5.79-1.6Z"/>
    <path d="M690,764.15v11.34a21.18,21.18,0,0,0,1.1,7.74c2.39,6.25,8,8.13,14.32,7.64a47.73,47.73,0,0,0,23.89-8.69c3.1-2.24.11-7.44-3-5.18a42,42,0,0,1-20.44,7.83c-2.48.23-5.51.59-7.54-1.21a7.74,7.74,0,0,1-2.07-4.15,28.16,28.16,0,0,1-.23-5.27V764.15c0-3.87-6-3.87-6,0Z"/>
    <path class="cls-12" d="M662.61,779.31s2.81,7.93,14.49,7.78c0,0,13.42.9,16.36-6.42"/>
    <line class="cls-12" x1="269.4" y1="632.65" x2="262.81" y2="719.33"/>
    <path d="M863.9,442.75c0-7-.24-13.95-.49-20.91-.74-20.57-2-41.13-3.49-61.67-1.1-14.89-2-29.86-3.75-44.69a102.87,102.87,0,0,0-7.89-29.68c-7-16.1-18.74-29.61-32.77-40.05a141.32,141.32,0,0,0-38-19.71,137,137,0,0,0-22.7-6c-4.77-.79-9.56-1.47-14.33-2.21l-42.13-6.47L650.43,204l-28.92-4.44-1.4-.22a3.06,3.06,0,0,0-3.71,2.23h0a3.74,3.74,0,0,0-.09.66l-2,30.67L611,281.79,610.24,293c-.26,3.86,5.74,3.84,6,0l2-30.66,3.27-48.89.75-11.23-3.79,2.9,65.17,10,68.5,10.52a141.13,141.13,0,0,1,49.28,18c13.94,8.23,26.38,19.2,35.1,32.94a90,90,0,0,1,11.07,25.54c3.29,12.61,3.71,25.84,4.77,38.78,2.75,33.45,5.24,67.09,5.48,100.68v1.19c0,3.86,6,3.86,6,0Z"/>
    <path d="M716.63,217.64,708,282.88l-1.23,9.34c-.22,1.62,1.53,3,3,3a3.1,3.1,0,0,0,3-3L721.39,227l1.24-9.34c.21-1.62-1.53-3-3-3a3.08,3.08,0,0,0-3,3Z"/>
    <path d="M750.21,222l-10.36,64.6-1.46,9.14c-.61,3.78,5.17,5.41,5.78,1.6l10.36-64.62,1.47-9.14c.61-3.77-5.17-5.4-5.79-1.59Z"/>
    <path d="M792.2,235.93l-22.66,61.33-3.17,8.57c-1.34,3.63,4.46,5.2,5.79,1.6l22.66-61.33,3.16-8.57c1.34-3.63-4.46-5.2-5.78-1.6Z"/>
    <path d="M512.48,180.7c-1.18,19.34-1.73,39-.19,58.3.47,5.81,1.05,11.77,2.74,17.37a3,3,0,0,0,2.9,2.2l37.85-3.32c15-1.31,29.91-2.54,44.85-3.93,4.33-.41,8.35-3,11.63-5.71a27.8,27.8,0,0,0,8.38-12.25c2.06-5.88,1.86-12.35,1.49-18.48-.27-4.47-.86-9.07-3-13.08a19.24,19.24,0,0,0-9-8.12c-10-4.71-21.89-5.7-32.72-7.37-20.19-3.13-40.45-5.85-60.72-8.45l-1.22-.16c-3.82-.48-3.79,5.52,0,6q24.81,3.17,49.55,6.77c11,1.61,22.18,3,33,5.53,4.29,1,9,2.19,12.59,4.91,2.82,2.15,4.15,5.18,4.85,8.62a60.56,60.56,0,0,1,.76,15.09,23,23,0,0,1-5.68,14.3,24.79,24.79,0,0,1-8.19,5.85c-.55.25,0,0-.12,0l-.59.23a4.2,4.2,0,0,0-.78.26c.14-.1,1.15-.09.19,0-13.62.85-27.23,2.39-40.83,3.58l-26.35,2.31c-5,.44-10.27.48-15.24,1.34a3,3,0,0,0-.74.06l2.89,2.2c-3.18-10.53-3.11-22.24-3.28-33.14-.18-11.29.08-22.59.58-33.88.1-2.35.21-4.7.36-7C518.71,176.85,512.71,176.86,512.48,180.7Z"/>
    <path class="cls-12" d="M552.31,185.64s-3.78,55.58,0,66.92"/>
    <path class="cls-12" d="M570,188.19s-3.72,50.42,0,62.82"/>
    <path class="cls-12" d="M589.79,191.34s-2,45.26,0,57.93"/>
    <path d="M514.49,185.19c-17.84-1.8-35.65-3.81-53.46-5.91-31.79-3.75-63.62-7.69-95.17-13.13-12.12-2.09-24.62-4-36.27-8.09a3.06,3.06,0,0,0-3.39,1.38c-1.38,1.81-2,4.45-2.64,6.59-2.32,8.22-3.06,16.95-3.55,25.44-.5,8.88-.52,17.78-.31,26.67a3.06,3.06,0,0,0,3,3q28,.26,56,.55,49.51.5,99,1.08c12.27.15,24.53.28,36.8.53v-6l-19,2.14-45.93,5.16-55.34,6.21-48.05,5.39c-7.75.87-15.5,1.68-23.24,2.61h-.33a3.13,3.13,0,0,0-3,3,125,125,0,0,0-.57,19.54c.44,10.36,1.73,22.26,8.06,30.86a3.15,3.15,0,0,0,3.39,1.38q28.11-6,56.25-11.95c32.59-6.86,65.18-13.7,97.85-20.14,11.08-2.18,22.19-4.57,33.38-6.09,1.62-.22,2.47-2.28,2.1-3.69-.46-1.74-2.1-2.31-3.69-2.1-9.51,1.3-19,3.28-28.36,5.11q-23.13,4.52-46.2,9.31-46.4,9.56-92.72,19.45l-20.21,4.32,3.39,1.38c-5.95-8.1-7-19.26-7.28-29a124.25,124.25,0,0,1,.61-18.4l-3,3,19-2.14,45.93-5.15,55.34-6.21,48.05-5.4c7.75-.87,15.5-1.68,23.25-2.61h.33c3.74-.42,4-5.92,0-6-26.43-.53-52.86-.73-79.29-1q-46.25-.51-92.49-.95l-20-.19,3,3c-.3-13.13-.27-26.41,1.46-39.45a85.8,85.8,0,0,1,1.87-9.92c.28-1.07.58-2.12.93-3.16.13-.37.26-.74.4-1.1l.19-.51c.23-.6-.29.63,0,.1a9.79,9.79,0,0,1,.87-1.63L328,163.84c10.18,3.55,21,5.37,31.61,7.27,15.3,2.74,30.68,5,46.08,7.14,29.79,4.11,59.66,7.65,89.55,10.9l19.26,2c3.83.39,3.81-5.61,0-6Z"/>
    <path class="cls-12" d="M394.23,233.8s5.09,23.4,6.07,42"/>
    <path class="cls-12" d="M427.07,230.12a130.46,130.46,0,0,1,4.95,39"/>
    <path class="cls-12" d="M459.53,226.47s5.75,9.73,4.19,36.19"/>
    <path class="cls-12" d="M400.3,174.49s-.84,25.39-3,44.39"/>
    <line class="cls-12" x1="432.05" y1="178.74" x2="429.56" y2="218.14"/>
    <path class="cls-12" d="M464,182.63s2,20.1-2.23,36.47"/>
    <path class="cls-12" d="M604.51,737.65s77.33,6.84,101.39,5.48"/>
    <path class="cls-12" d="M754.05,503.28a16.18,16.18,0,0,1,1.23-27.58"/>
  </g>
</svg>
