<?xml version="1.0" encoding="UTF-8" standalone="no"?>
<svg
   xmlns:dc="http://purl.org/dc/elements/1.1/"
   xmlns:cc="http://creativecommons.org/ns#"
   xmlns:rdf="http://www.w3.org/1999/02/22-rdf-syntax-ns#"
   xmlns:svg="http://www.w3.org/2000/svg"
   xmlns="http://www.w3.org/2000/svg"
   xmlns:sodipodi="http://sodipodi.sourceforge.net/DTD/sodipodi-0.dtd"
   xmlns:inkscape="http://www.inkscape.org/namespaces/inkscape"
   version="1.1"
   width="200"
   height="200"
   style="fill:none"
   id="svg2"
   inkscape:version="0.91 r13725"
   sodipodi:docname="ocelotl_rev.svg">
  <metadata
     id="metadata14">
    <rdf:RDF>
      <cc:Work
         rdf:about="">
        <dc:format>image/svg+xml</dc:format>
        <dc:type
           rdf:resource="http://purl.org/dc/dcmitype/StillImage" />
        <dc:title></dc:title>
      </cc:Work>
    </rdf:RDF>
  </metadata>
  <defs
     id="defs12" />
  <sodipodi:namedview
     pagecolor="#ffffff"
     bordercolor="#666666"
     borderopacity="1"
     objecttolerance="10"
     gridtolerance="10"
     guidetolerance="10"
     inkscape:pageopacity="0"
     inkscape:pageshadow="2"
     inkscape:window-width="1278"
     inkscape:window-height="766"
     id="namedview10"
     showgrid="false"
     showguides="false"
     inkscape:guide-bbox="true"
     inkscape:zoom="3.337544"
     inkscape:cx="127.3986"
     inkscape:cy="73.043591"
     inkscape:window-x="57"
     inkscape:window-y="2"
     inkscape:window-maximized="0"
     inkscape:current-layer="layer3">
    <sodipodi:guide
       position="93.985865,132.23321"
       orientation="1,0"
       id="guide4159" />
    <sodipodi:guide
       position="111.47703,88.388692"
       orientation="0,1"
       id="guide4161" />
  </sodipodi:namedview>
  <g
     inkscape:groupmode="layer"
     id="layer3"
     inkscape:label="tigre 1"
     style="display:inline"
     transform="translate(0,-475)">
    <circle
       style="opacity:0.85500004;fill:#00ff00"
       id="path4147"
       cx="119.63608"
       cy="284.07919"
       r="30.563334" />
    <path
       style="fill:#ffb900;fill-opacity:0.72727275;fill-rule:evenodd;stroke:none;stroke-width:1px;stroke-linecap:butt;stroke-linejoin:miter;stroke-opacity:1"
       d="m 23.75,604.625 -3.125,-1.375 -2.125,-3 -1,-3.25 0.5,-2.5 1.125,-3.125 2.5,-2.25 4.5,-2.25 9.875,-3.625 13,-4.625 7.625,-7.125 7.875,-5.625 7.375,-4 6.875,-3.25 6.375,-2.25 9.125,-1.625 7.625,-0.125 6.625,0.125 7.875,1.375 7.625,1.625 6,2.625 1.75,1 2.125,-3.125 3.5,-3.25 5.25,-4.25 4.25,-2.25 5.25,-1.75 4.125,-2 5,-0.5 4.125,-0.75 2.125,0.5 0.125,3.25 0.625,2.75 0.875,4.125 2.125,3.75 2.875,4.375 2.375,3 3.625,2.375 2.125,1.75 2.375,1.5 -1.875,3.5 -2.875,4.25 -2.625,4.25 -3.5,3.5 -4.5,3.5 -4,3 -3.875,2.25 -2.5,0.75 3.375,2.125 4.375,4.5 2.375,5 0.875,3.375 0.625,2.75 0.625,5.75 0.25,4.625 0,7.75 -0.625,3.875 0.5,4.5 0.25,4.875 1.375,7.875 -5.875,2.375 -7.875,2.75 -9,2.125 -5.375,0.875 -5.375,1 -4.5,-0.125 -5.25,0.25 -4.25,0.125 -4.125,-0.75 -2.5,-1.75 -2.25,-2.5 -3.25,-6 2.875,-2.75 2,-3.5 1.375,-4.125 1.125,-2.875 2,5 3.125,6 3.375,2.25 1.625,0.625 2.25,-1.5 2.75,-3.875 1.5,-4.125 1.25,-5 4,-0.875 3.75,-2.5 3.375,-3.5 1.875,-4.5 0.625,-4.5 -1,-5.375 -2.25,-3.25 -4,-4.25 -3,-1 -3.75,-1.375 -3.875,0.25 -4.5,1.25 -4.25,2.25 -2.5,3.375 -1.75,4.125 -5.625,0.875 -6.5,1.5 -5.125,0.5 -6.125,-0.75 -8,-2.625 -9.125,-3.25 -32.375,-10.625 -5.5,-1.5 -3.75,-0.625 -2.875,-0.125 -2.5,-0.5 -1.5,0.125 -0.625,1.625 -1.625,1.625 -2.75,0.875 z"
       id="path4155"
       inkscape:connector-curvature="0" />
    <path
       style="fill:#ffeeaa;fill-rule:evenodd;stroke:none;stroke-width:1px;stroke-linecap:butt;stroke-linejoin:miter;stroke-opacity:1"
       d="m 22.47654,608.63228 2.12376,5.66338 1.23887,1.59283 2.12376,0.35396 1.76981,-3.18565 1.06188,-2.83169 0.70793,4.07055 1.94678,2.65471 1.06189,1.41584 2.83168,-3.00867 1.06189,-4.60149 1.59282,4.24753 1.23887,2.47773 1.59282,0.8849 2.30075,-3.18565 1.23886,-3.71659 0.53095,9.37997 0.8849,3.71659 2.47773,4.24754 2.83169,4.24753 2.30074,1.76981 1.76981,-0.53094 0.8849,-4.24754 0.35396,-4.42451 1.94679,5.66338 2.12377,4.07055 1.94678,1.76981 1.23887,-1.41585 0.17698,-3.36263 0.17698,-2.47773 1.7698,5.13244 2.30075,3.89357 2.12377,2.12377 1.41584,-2.12377 0,-5.13244 1.94679,4.95546 2.30075,3.89357 1.7698,2.30075 1.41585,-0.8849 0.35396,-3.71659 0.17698,-2.65471 3.89357,5.30941 2.30075,2.65471 3.36263,2.65471 3.18565,1.06189 2.65471,-0.70793 1.94679,-3.00867 1.41584,-5.30941 0.70792,-2.65471 3.36263,6.72526 3.00867,4.60149 3.00867,2.12377 3.00867,0.17698 2.12377,-2.12376 2.47773,-3.7166 1.59282,-4.77847 1.06189,-3.00867 2.12376,5.4864 2.65471,4.95545 2.30075,2.65471 2.65471,1.06188 2.30075,-0.8849 1.94678,-2.65471 1.76981,-4.60149 1.23886,-3.89358 0.70792,-2.47772 4.24754,-0.88491 4.24753,-2.83169 1.94679,-2.30074 2.30075,-3.53961 0.8849,-5.4864 -0.70792,-4.24754 -1.59283,-4.60149 -3.36263,-3.53961 -3.53961,-1.94679 -4.07056,-1.41584 -4.07055,-0.17699 -3.53961,0.88491 -3.36263,1.7698 -2.12377,1.76981 -2.65471,2.65471 -2.12376,3.89357 -6.01734,1.76981 -6.19432,0.8849 -4.42452,-0.17698 -5.30941,-0.17698 -5.4864,-1.41585 -21.23767,-7.07922 -12.91958,-4.24753 -13.98147,-4.42452 -5.30942,-1.23886 -5.48639,-0.53094 -4.6015,0.17698 -5.66338,2.65471 -1.59282,2.83168 z"
       id="path4163"
       inkscape:connector-curvature="0" />
    <path
       style="fill:#ffffff;fill-rule:evenodd;stroke:none;stroke-width:1px;stroke-linecap:butt;stroke-linejoin:miter;stroke-opacity:1"
       d="m 30.71121,610.881 0.44943,5.84261 0.59924,4.94376 1.3483,5.69281 2.54678,6.14224 2.99622,4.34451 3.89508,2.99622 2.99621,0.89886 -3.14602,-4.64413 -1.94754,-6.8913 -0.44943,-3.44564 1.94753,4.49432 2.99622,5.24337 5.39319,4.49433 3.14602,0.74905 -2.69659,-2.54678 -0.89886,-2.54678 -1.49811,-5.24338 -1.79773,-12.13467 -0.29962,-8.3894 -1.19849,4.49432 -1.19849,2.09735 -1.79772,0.74905 -1.49811,-1.64792 -2.09735,-5.09356 -1.19849,3.44565 -1.19848,2.54678 -1.3483,0.74905 -1.79773,-1.64792 z"
       id="path4151"
       inkscape:connector-curvature="0" />
    <path
       style="fill:#aa0000;fill-opacity:1;fill-rule:evenodd;stroke:none;stroke-width:1px;stroke-linecap:butt;stroke-linejoin:miter;stroke-opacity:1"
       d="m 31.01083,613.12816 0,4.04489 0.89886,4.94375 15.43051,1.04868 -0.89886,-5.543 0.14981,-6.44186 -1.3483,3.59545 -0.89886,2.09736 -1.3483,1.19848 -1.94754,-0.59924 -1.94754,-3.74527 -0.44943,-2.39697 -1.04868,3.29583 -1.4981,2.6966 -1.64792,1.04867 -1.49811,-1.94754 z"
       id="path4153"
       inkscape:connector-curvature="0" />
    <path
       style="fill:#000000;fill-rule:evenodd;stroke:none;stroke-width:1px;stroke-linecap:butt;stroke-linejoin:miter;stroke-opacity:1"
       d="m 167.48843,543.61596 4.64413,0.14981 5.69281,0.89887 6.14224,1.19849 5.24338,1.4981 1.94754,0.44944 -0.89887,4.94375 -1.64791,6.29205 -2.24717,7.34073 -1.79773,4.64413 -4.49432,-3.14602 -4.1947,-2.99622 -4.1947,-5.09356 -2.24716,-4.49433 -1.79773,-6.44186 z"
       id="path4174"
       inkscape:connector-curvature="0" />
  </g>
  <g
     inkscape:groupmode="layer"
     id="layer4"
     inkscape:label="tigre 2">
    <path
       style="opacity:0.85500004;fill:#000000;fill-opacity:1;stroke:none"
       d="M 56.1794,106.8172 A 10.636565,10.636565 0 0 0 45.54211,117.45449 10.636565,10.636565 0 0 0 56.1794,128.09033 10.636565,10.636565 0 0 0 66.81525,117.45449 10.636565,10.636565 0 0 0 56.1794,106.8172 Z m 0,5.31864 a 5.0966872,5.0966872 0 0 1 5.09619,5.09619 5.0966872,5.0966872 0 0 1 -5.09619,5.09763 5.0966872,5.0966872 0 0 1 -5.09763,-5.09763 5.0966872,5.0966872 0 0 1 5.09763,-5.09619 z"
       id="path4156"
       inkscape:connector-curvature="0" />
    <path
       inkscape:connector-curvature="0"
       id="path4161"
       d="M 82.5461,86.742558 A 10.636565,10.636565 0 0 0 71.90881,97.379846 10.636565,10.636565 0 0 0 82.5461,108.01569 10.636565,10.636565 0 0 0 93.18194,97.379846 10.636565,10.636565 0 0 0 82.5461,86.742558 Z m 0,5.31864 a 5.0966872,5.0966872 0 0 1 5.09619,5.09619 5.0966872,5.0966872 0 0 1 -5.09619,5.097632 5.0966872,5.0966872 0 0 1 -5.09764,-5.097632 5.0966872,5.0966872 0 0 1 5.09764,-5.09619 z"
       style="opacity:0.85500004;fill:#000000;fill-opacity:1;stroke:none" />
    <path
       style="opacity:0.85500004;fill:#000000;fill-opacity:1;stroke:none"
       d="m 87.0403,116.70471 a 8.8388359,8.8388359 0 0 0 -8.83944,8.83944 8.8388359,8.8388359 0 0 0 8.83944,8.83823 8.8388359,8.8388359 0 0 0 8.83823,-8.83823 8.8388359,8.8388359 0 0 0 -8.83823,-8.83944 z m 0,4.41972 a 4.2352754,4.2352754 0 0 1 4.23486,4.23486 4.2352754,4.2352754 0 0 1 -4.23486,4.23606 4.2352754,4.2352754 0 0 1 -4.23607,-4.23606 4.2352754,4.2352754 0 0 1 4.23607,-4.23486 z"
       id="path4164"
       inkscape:connector-curvature="0" />
    <path
       inkscape:connector-curvature="0"
       id="path4166"
       d="m 124.19369,84.345586 a 13.632779,13.632779 0 0 0 -13.63371,13.633708 13.632779,13.632779 0 0 0 13.63371,13.631856 13.632779,13.632779 0 0 0 13.63186,-13.631856 13.632779,13.632779 0 0 0 -13.63186,-13.633708 z m 0,6.816848 a 6.5323729,6.5323729 0 0 1 6.53174,6.531736 6.5323729,6.5323729 0 0 1 -6.53174,6.53358 6.5323729,6.5323729 0 0 1 -6.53359,-6.53358 6.5323729,6.5323729 0 0 1 6.53359,-6.531736 z"
       style="opacity:0.85500004;fill:#000000;fill-opacity:1;stroke:none" />
    <path
       style="opacity:0.85500004;fill:#000000;fill-opacity:1;stroke:none"
       d="m 158.50014,123.29638 a 10.486754,10.486754 0 0 0 -10.48747,10.48748 10.486754,10.486754 0 0 0 10.48747,10.48604 10.486754,10.486754 0 0 0 10.48605,-10.48604 10.486754,10.486754 0 0 0 -10.48605,-10.48748 z m 0,5.24373 a 5.0249029,5.0249029 0 0 1 5.02442,5.02441 5.0249029,5.0249029 0 0 1 -5.02442,5.02584 5.0249029,5.0249029 0 0 1 -5.02583,-5.02584 5.0249029,5.0249029 0 0 1 5.02583,-5.02441 z"
       id="path4168"
       inkscape:connector-curvature="0" />
    <path
       inkscape:connector-curvature="0"
       id="path4170"
       d="m 162.39522,93.334228 a 10.486754,10.486754 0 0 0 -10.48747,10.487482 10.486754,10.486754 0 0 0 10.48747,10.48604 10.486754,10.486754 0 0 0 10.48605,-10.48604 10.486754,10.486754 0 0 0 -10.48605,-10.487482 z m 0,5.24373 a 5.0249029,5.0249029 0 0 1 5.02442,5.024412 5.0249029,5.0249029 0 0 1 -5.02442,5.02584 5.0249029,5.0249029 0 0 1 -5.02583,-5.02584 5.0249029,5.0249029 0 0 1 5.02583,-5.024412 z"
       style="opacity:0.85500004;fill:#000000;fill-opacity:1;stroke:none" />
    <path
       inkscape:connector-curvature="0"
       id="path4172"
       d="m 158.7996,72.660347 a 8.089782,8.089782 0 0 0 -8.09033,8.090335 8.089782,8.089782 0 0 0 8.09033,8.089227 8.089782,8.089782 0 0 0 8.08923,-8.089227 8.089782,8.089782 0 0 0 -8.08923,-8.090335 z m 0,4.045167 a 3.8763538,3.8763538 0 0 1 3.87598,3.875974 3.8763538,3.8763538 0 0 1 -3.87598,3.877072 3.8763538,3.8763538 0 0 1 -3.87708,-3.877072 3.8763538,3.8763538 0 0 1 3.87708,-3.875974 z"
       style="opacity:0.85500004;fill:#000000;fill-opacity:1;stroke:none" />
  </g>
  <path
     d=""
     style="fill:none;stroke:#999999;stroke-width:7;stroke-linecap:round;stroke-linejoin:round"
     id="path6"
     inkscape:connector-curvature="0" />
  <g
     inkscape:groupmode="layer"
     id="layer1"
     inkscape:label="tigre"
     style="display:inline"
     transform="translate(0,-475)">
    <path
       d="m 30.70145,610.34712 0,0 0,0 c 2.60483,10.41933 5.20966,10.41933 7.8145,0 m -15.62901,0 c 2.60484,7.8145 5.20967,7.8145 7.81451,0 m -7.81451,0 c -2.81804,-11.27591 14.11151,-10.53472 23.44351,-7.8145 l 46.88701,15.629 c 7.8145,2.60483 19.87163,1.89772 27.68613,-0.70711 m -82.38764,-7.10739 c 2.60483,10.41933 5.20967,10.41933 7.8145,0 2.60483,10.41933 5.20967,11.72175 7.8145,3.90725 2.60483,7.8145 5.20967,9.11692 7.8145,3.90725 m -31.258,-7.8145 c 0,17.26332 6.99734,31.258 15.629,31.258 -4.31583,0 -7.8145,-13.99468 -7.8145,-31.258 m 0,3.90725 c 0,15.1054 6.99734,27.35075 15.629,27.35075 -4.31583,0 -7.8145,-13.99468 -7.8145,-31.258 m 0.79566,13.21101 c 7.38021,14.40369 10.92609,15.07508 10.92609,2.41799 5.20967,13.02417 7.8145,14.32658 7.8145,3.90725 5.20967,13.02417 7.8145,14.32659 7.8145,3.90725 5.20967,13.02417 7.8145,14.32659 7.8145,3.90725 m -19.53625,-19.53625 0,0 1.64042,-3.28085 m 17.89583,22.8171 c 10.41934,15.629 16.93142,15.629 19.53626,0 7.81449,18.23384 14.32657,18.23384 19.53624,0 6.99914,18.66437 12.90489,18.81364 17.81442,-0.1351 m -17.46751,-20.08425 c 2.30005,-5.76667 7.95841,-11.13072 15.28209,-11.03865 8.63098,0.1085 15.629,6.99734 15.629,15.629 0,7.56604 -5.74097,14.13795 -13.43407,15.48865 m -25.03541,13.49505 c 2.32491,4.8523 2.77151,6.98909 7.32661,10.40541 15.629,2.60484 34.30786,-0.87538 52.54169,-8.68988 m -41.76133,-91.61925 c 13.39653,-16.59859 33.4441,-21.98138 59.43502,-13.31774 m -31.44697,48.04614 c 16.66358,-7.42644 27.39424,-21.70342 31.44697,-48.04614 m -23.67767,-3.94502 c 0.95173,13.45224 5.92176,20.24578 17.20876,26.72032 m -11.19808,82.15237 c -3.17049,-8.48713 -1.86926,-20.53885 -1.86926,-26.78266 0,-18.23384 -5.20967,-28.65317 -15.62901,-31.25801 -7.8145,-18.23383 -14.0662,-31.95807 -34.63335,-37.45964 -28.11188,-7.51973 -52.0327,1.47708 -72.52019,21.49841 l -20.91285,7.70221 c -5.85817,1.86103 -10.58886,4.60465 -9.87948,11.61006 2.06756,8.75034 9.84026,6.36251 9.84026,6.36251 0,0 7.64296,-2.09256 5.36431,-9.27349"
       style="fill:none;stroke:#000000;stroke-width:1.29999995;stroke-linecap:round;stroke-linejoin:round;stroke-miterlimit:4;stroke-dasharray:none;stroke-opacity:1"
       id="path4"
       inkscape:connector-curvature="0"
       sodipodi:nodetypes="ccccccccsccccccccccccccccccccccccsscccccccccccsssccccc" />
    <circle
       style="opacity:1;fill:#ffffff;fill-opacity:1;stroke:#000000;stroke-width:1.3383553;stroke-miterlimit:4;stroke-dasharray:none;stroke-opacity:1"
       id="path4157"
       cx="93.851593"
       cy="586.71027"
       r="15.606264" />
    <circle
       style="opacity:0.85500004;fill:#cf0000;fill-opacity:1;fill-rule:nonzero;stroke:#000000;stroke-width:1.29999995;stroke-miterlimit:4;stroke-dasharray:none;stroke-opacity:1"
       id="path4149"
       cx="93.899361"
       cy="586.72064"
       r="7.8458591" />
  </g>
</svg>
