<svg xmlns="http://www.w3.org/2000/svg" width="900" height="900" viewBox="0 0 900 900">
  <defs>
    <style>
      .cls-1 {
        fill: #d08dbe;
      }

      .cls-2, .cls-7 {
        fill: #fcb65b;
      }

      .cls-3 {
        fill: #58c3a7;
      }

      .cls-4 {
        fill: #84cd8f;
      }

      .cls-4, .cls-5 {
        opacity: 0.8;
      }

      .cls-5 {
        fill: #5e9187;
      }

      .cls-6 {
        fill: none;
      }

      .cls-6, .cls-7, .cls-8, .cls-9 {
        stroke: #000;
        stroke-linecap: round;
        stroke-linejoin: round;
        stroke-width: 6px;
      }

      .cls-8 {
        fill: #fff;
      }
    </style>
  </defs>
  <title>tlaloc</title>
  <g id="Capa_2" data-name="Capa 2">
    <g>
      <polygon class="cls-1" points="401.45 216.4 459.26 182.12 506.3 275.35 506.3 266.43 483.9 175.41 545.9 161.87 556.93 262.32 501.49 365.12 401.45 216.4"/>
      <polygon class="cls-1" points="484.93 390.84 499.07 369.76 501.49 365.12 509.19 365.47 514.9 369.14 529.46 390.84 542.94 412.18 556.93 434.33 563.81 445.23 568 452.39 568.92 459.25 566.74 466.1 557.47 471.98 548.53 476.13 539.14 478.86 538.11 476.55 539.14 472.84 537.7 466.25 528.43 452.65 517.72 434.53 503.69 411.67 492.87 395.25 484.93 390.84"/>
      <polygon class="cls-1" points="528.22 553.66 539.14 553.66 548.53 553.66 556.93 554.43 560.81 559.55 560.81 570.14 559.07 584.32 557.95 600.33 554.55 642.75 552.84 651.51 548.53 655.45 543.15 656.22 536.25 654.77 521.03 647.93 513.76 642.95 519.98 640.19 521.51 629.79 523.93 602.38 528.22 553.66"/>
      <polygon class="cls-1" points="572.71 337.1 654.5 339.57 652.63 399.71 587.12 398.48 584.04 387.57 579.1 374.39 574.15 358.81 572.71 337.1"/>
    </g>
    <polygon class="cls-2" points="366.63 512.48 330.73 519.33 235.62 538.23 228.05 542.15 225 547.19 227.49 552.54 233.6 555.99 247.49 558.62 398.3 578.21 390.22 572.26 382.62 564.66 372.81 549.59 367.72 534.65 366.63 512.48"/>
    <g>
      <polygon class="cls-3" points="503.62 553.74 531.48 553.66 530.18 572.12 528.4 588.66 527.19 602.38 526.33 623.2 525.1 634.32 523.24 640.19 517.02 642.95 508.81 638.53 503.62 634.7 498.24 626.35 496.13 616.19 496.13 607.96 500.5 578.21 503.62 553.74"/>
      <polygon class="cls-3" points="475.47 417.2 476.77 408.71 482.45 398.48 488.19 390.84 496.13 395.25 501.73 404.02 512.18 420.95 527.06 444.82 536.54 459.74 542.4 472.84 541.37 476.55 533.11 481.34 522.42 482.51 508.94 481.55 502.13 473.61 494.2 460.89 483.9 443.18 476.77 424.98 475.47 417.2"/>
    </g>
    <polygon class="cls-4" points="487.15 553.73 578.22 553.66 598.57 551.31 612.55 547.01 628.8 538.58 639.5 528.58 647.98 511.96 650.83 490.91 652.2 472.41 655.89 399.71 590.38 398.48 590.8 406.28 590.13 420.35 589.57 428.5 587.88 438.35 584.22 449.61 579.72 458.05 569.99 466.1 560.73 471.98 545.11 478.86 533.11 481.34 500.9 482.51 491.94 481.69 485.08 473.9 476.82 466.26 462.48 457.63 446.99 452.85 434.65 451.73 425.56 452.34 415.69 454.4 407.37 457.39 398.3 462.18 392.77 466.04 385.9 472.13 379.2 480.05 374.73 487.06 370.87 495.29 367.62 506.23 366.63 512.48 366.63 523.3 367.72 534.65 370.97 545.34 378.27 558.77 387.84 570.14 398.3 578.21 410.49 584.27 430.15 588.51 441.49 588.32 454.78 585.65 470.05 578.81 479.8 570.14 485.17 560.96 487.15 553.73"/>
    <polygon class="cls-4" points="557.23 227.74 663.29 227.93 662.26 248.74 657.76 339.57 575.97 337.1 575.22 318.36 575.22 304.68 572.12 285.23 567.53 270.99 563.86 263.49 557.23 227.74"/>
    <polygon class="cls-5" points="650.63 454.9 652.9 533.18 654.77 551.08 654.57 568.68 652.9 584.84 649.37 600.92 638.71 621.65 618.09 648.89 607.27 641.48 603.92 626.01 602.74 600.92 602.74 576.75 598.79 562.8 587.39 550.8 602.85 546.35 625.81 537.11 636.51 527.11 644.99 510.5 650.63 454.9"/>
    <polygon class="cls-5" points="558.63 662.68 493.21 705.13 475.47 716.81 466.14 728.85 464.22 739.02 470.52 754.39 478.5 762.15 493.21 765.92 509.46 757.95 518.34 744.55 542.4 698.06 551.79 679.91 557.23 669.41 560.56 663.68 566.97 666.7 577.79 668.42 582.99 676.16 589.46 681.81 600.25 685.78 585.43 719.43 581.61 723.8 579.16 727.6 576.12 734.97 574.77 741.95 571.73 748.67 561.3 771.65 554.58 785.43 549.95 792.06 544.48 798.26 538.07 803.99 527.97 802.5 521.08 803.19 515.52 804.8 510.37 807.27 506.06 810.23 498.57 818.56 494 820.39 485.85 820.39 474.86 819.54 462.79 815.71 449.44 810.35 436.3 800.95 423.45 783.72 419.5 774.65 415.93 761.88 412.5 744.55 414.29 727.2 419.5 710.56 425.65 698.62 434.35 686.6 441.52 678.13 452.96 670.11 473.01 659.39 488.01 652.2 507.93 642.95 512.96 640.13 519.86 644.89 529.82 651.13 546.41 656.22 552.95 658.52 558.63 662.68"/>
    <polygon class="cls-4" points="504.75 365.12 560.19 262.32 564.54 267.08 569.23 276.74 572.18 287.47 574.71 298.57 575.97 310.12 575.22 322.48 575.22 333.19 575.22 343.9 575.97 353.38 579.83 366.43 583.35 377.05 587.3 387.57 590.38 398.48 590.8 411.87 590.8 421.99 589.11 431.19 586.25 443.38 582.39 453.03 572.18 464.38 572.06 456.36 569.17 448.54 564.07 440.48 555.17 427.11 540.55 403.23 524.29 376.86 517.02 368.1 512.45 365.12 504.75 365.12"/>
    <polygon class="cls-4" points="557.23 553.66 578.22 553.66 587.96 552.54 596.42 556.35 601.78 564.26 604.5 573.71 605.73 585.7 605.73 596.42 605.57 609.61 605.73 619.99 606.91 627.47 610.26 635.94 615.01 642.95 621.08 650.35 627.79 659.21 632.85 670.21 634.8 679.14 635.83 693.23 635.7 699.02 635.03 707.04 614.66 694.59 600.25 685.78 590.8 682.89 584.55 677.86 575.97 668.44 565.98 666.51 558.63 662.68 551.79 658.36 546.41 656.22 553.52 654.09 557.23 650.35 558.46 638.85 563.41 563.88 562.99 558.11 557.23 553.66"/>
  </g>
  <g id="Capa_1" data-name="Capa 1">
    <path class="cls-6" d="M398.3,578.79,241.89,558.48S225,556.83,225,547.77c0-7.46,18.13-11.13,18.13-11.13l123.5-23.58"/>
    <path class="cls-6" d="M531.83,482.14s18.4-.9,6.66-18.82-40.17-64.26-40.17-64.26-7-12.5-11.65-5.29"/>
    <path d="M544.65,482.33c9.72-2.55,21.05-7.26,27.22-15.5,4.44-5.95,4-13.13,0-19.18-1.48-2.2-2.88-4.46-4.29-6.7l-40-63.37c-2-3.2-3.85-6.43-6.48-9.22s-6.26-5.41-10.34-5.64c-5.52-.31-9.58,3.84-12.39,8.09-2.14,3.22,3.05,6.23,5.18,3,1.77-2.67,4.43-5.89,8-4.95,2.76.73,5,3.18,6.71,5.32a63.09,63.09,0,0,1,4.07,6.29L538.38,406l21.72,34.4c1.89,3,3.75,6,5.67,9,2.33,3.6,4.46,7.17,2.77,11.37-2.29,5.66-9.07,9.27-14.37,11.74a66.26,66.26,0,0,1-11.11,4.07c-3.73,1-2.15,6.77,1.59,5.78Z"/>
    <path d="M567.44,266.86l-7.52-39.14-2.9,3.79H663.29l-3-3-1.75,35.33-2.93,59.05c-.42,8.55-.85,17.09-1.11,25.65q-.79,25.47-1.59,50.93c-.37,11.62-1,23.23-1.54,34.84-1,21.19-2,42.44-4.12,63.55-.74,7.42-1.47,14.26-5,21.44-4.73,9.56-12.73,16.71-22.07,21.65-13.5,7.13-29.3,10.18-44.37,10.36-10.74.13-21.49,0-32.24,0H487.15c-3.86,0-3.86,6,0,6H529c15,0,30.1,0,45.15,0a115.07,115.07,0,0,0,35.05-5.38c20-6.4,38.49-20.41,42.53-42.12,1.4-7.58,1.89-15.37,2.49-23,.86-11,1.53-22,2.14-32.95q1.44-25.87,2.47-51.78c.52-12.83.81-25.67,1.21-38.51.31-10.07.57-20.14,1.07-30.2l2.66-53.74,2.4-48.41.13-2.68a3,3,0,0,0-3-3H557a3,3,0,0,0-2.89,3.8l7.52,39.15c.73,3.79,6.51,2.18,5.79-1.6Z"/>
    <path class="cls-6" d="M590.38,399.06l65.51,1.23V522.41a68.43,68.43,0,0,1-10.24,36.09c-7.21,11.65-19.4,27-39.92,44.46"/>
    <path d="M576,340.68l71.7,2.16,10.09.31c3.86.12,3.86-5.88,0-6L586.06,335l-10.09-.3c-3.86-.12-3.86,5.88,0,6Z"/>
    <path d="M500.62,554.32c-2.4,18.77-4.91,37.53-7.2,56.32-.09.8.05-.36.05-.37-.08.61-.16,1.21-.22,1.82a35.08,35.08,0,0,0,0,5.52,31.52,31.52,0,0,0,6.3,17.56,25.54,25.54,0,0,0,8.63,7,32.63,32.63,0,0,0,3,1.32c.64.25,2.73,1.08,1.26.11a11.13,11.13,0,0,1,1,.85,74.19,74.19,0,0,0,15.24,9.9,86,86,0,0,0,15.46,5.94c1.45.4,2.9.76,4.36,1.07.68.15,1.37.29,2.06.42,0,0,3.09.49,1.23-.32.49.22,1.09,1.08,1.49,1.43a35.67,35.67,0,0,0,25.26,9.1l-2.9-2.2a27.36,27.36,0,0,0,5.72,9.64,29.55,29.55,0,0,0,8.24,6.51,33.18,33.18,0,0,0,5.58,2.32c1.18.37,2.88.51,3.75.82a18.69,18.69,0,0,1,3.16,1.93l6.26,3.83,15.42,9.42,9.78,6c1.48.91,4.14.15,4.41-1.79a105,105,0,0,0,.53-23.24,68.65,68.65,0,0,0-3.79-18.38c-2.48-6.56-6.61-12-11-17.41-3.8-4.67-8-9.14-10.89-14.45-3.17-5.77-4.16-12.21-4.25-18.72-.16-12,1-24.06-.22-36.06s-4.89-25-17.14-29.93c-3.58-1.45-5.13,4.35-1.6,5.78,9.45,3.83,11.91,15.41,12.77,24.46,1.1,11.54.11,23.12.18,34.67,0,6.45.72,12.92,3.22,18.91,2.2,5.3,5.62,9.81,9.24,14.21,4.13,5,8.67,10,11.83,15.68,2.91,5.27,4.38,11.31,5.2,17.23a99,99,0,0,1,.7,18c-.08,2-.21,4-.41,6,0,.56-.12,1.11-.18,1.66s-.16,1.23,0,0l4.41-1.8-22.42-13.7-11.28-6.89a16.06,16.06,0,0,0-4.74-1.59,24.21,24.21,0,0,1-15.35-11.72c-.25-.45-.48-.9-.71-1.36-.12-.24-.58-1.34-.27-.57-.14-.34-.27-.68-.38-1a3,3,0,0,0-2.89-2.21,29.55,29.55,0,0,1-21-7.34c-.47-.41-.89-.89-1.36-1.29-1.54-1.29-3.75-1.29-5.67-1.69a81.23,81.23,0,0,1-14.29-4.43,76.78,76.78,0,0,1-17.2-9.94c-.79-.62-1.52-1.36-2.32-2-1.56-1.16-3.73-1.46-5.48-2.34a20.66,20.66,0,0,1-4.79-3.2c-4.27-3.88-6.51-9.5-7.08-15.08a35.72,35.72,0,0,1-.11-5.94c0-.49.09-1,.14-1.44-.06.61-.11.83.05-.4q1.73-13.38,3.42-26.77l3.81-29.82c.49-3.82-5.51-3.78-6,0Z"/>
    <path d="M538.72,658.24c7.71,3,18,2.12,20.92-6.91,1.17-3.7,1.19-8.06,1.54-11.9.48-5.09.89-10.17,1.29-15.26q1.39-17.59,2.58-35.21c.5-7.11,1.27-14.27,1.45-21.4,0-.17,0-.35,0-.52-.08,1.29,0,.52.1-.14a20.52,20.52,0,0,0,.36-5.8c-.65-6.63-5.58-10.28-12.16-9.78-3.82.29-3.85,6.3,0,6,4.45-.34,6.28,1.5,6.24,5.5a11.9,11.9,0,0,1-.36,3.11c-.09.5-.16,1-.2,1.49-.53,6.11-.82,12.26-1.24,18.38-1.36,19.75-2.5,39.58-4.65,59.27-.44,4-1.16,8.12-5.91,8.71a17.66,17.66,0,0,1-8.4-1.32c-3.6-1.41-5.15,4.39-1.59,5.78Z"/>
    <path d="M558.68,661.67l-46.78,29-25.82,16a106.76,106.76,0,0,0-11.45,7.61c-9.92,8-16.64,20.48-11.77,33.25,3.31,8.69,10.31,17,19.07,20.45,7,2.78,14.67,1.6,21.31-1.68,5.93-2.94,11.27-7.35,14.41-13.23.88-1.64,1.72-3.31,2.57-5l14-27,28.06-54.23.54-1c1.77-3.43-3.4-6.46-5.18-3L534.45,707.5l-15.59,30.11c-2.62,5.07-4.9,11-8.38,15.56-3.66,4.82-10,8.5-15.82,9.85-8.21,1.9-15.37-2.24-20.58-8.38-4.71-5.55-8.17-12.83-6.47-20.23,1.23-5.32,4.56-9.81,8.46-13.52,3.38-3.21,7.21-5.51,11.22-8L509.82,699l50.86-31.46,1-.63C565,664.83,562,659.63,558.68,661.67Z"/>
    <path d="M597.66,684.85l-13.34,29.41L562,763.43l-6.36,14-.54,1.19c-.37.84-.45,1-.12.28-.42.89-.84,1.78-1.31,2.65a67.13,67.13,0,0,1-26.37,26.6c-20.33,11.39-46.77,11.54-68.38,3.73-18-6.51-30.9-20.94-37-38.86a105.09,105.09,0,0,1-5.1-39.46c.08-1.55.19-3.1.35-4.64,0-.33.09-.66.12-1,0-.52-.26,1.13-.06.43,1.27-4.35,2.15-8.71,3.78-13a90.41,90.41,0,0,1,45.14-48.75c11.81-5.77,23.66-11.48,35.59-17,2.75-1.27,5.5-2.53,8.28-3.76l2.37-1c.72-.31-.63.25.19-.08.21-.09.42-.16.63-.26s.57-.23.86-.33l-2.31-.3a14.65,14.65,0,0,0,9.09,1.2c4.46-1.09,6.07-5,6.46-9.21.42-4.55.8-9.1,1.2-13.65l4.72-53.57,1.27-14.39c.34-3.85-5.66-3.83-6,0l-4.58,51.94-2.38,27c-.14,1.61,0,4.64-1.3,5.68s-3.32.43-4.78,0l-.67-.19a3.87,3.87,0,0,0-2.35-.29,18.64,18.64,0,0,0-2.89,1.18c-2.64,1.12-5.25,2.31-7.86,3.5-5.57,2.55-11.1,5.17-16.63,7.8-9,4.28-18.17,8.32-26.87,13.12-22.45,12.41-39.7,34.26-46,59.23-2.31,9.22-1.88,19.33-.9,28.68,2.31,22.09,11,43.88,29.54,57.22,12.56,9,28.12,12.74,43.37,13.77,14.48,1,29.16-1.24,42.29-7.55,14-6.73,26.76-18.61,33.4-32.8.14-.29.89-2,.48-1.09s.22-.46.31-.65l3.09-6.81L576,747l25.27-55.71,1.55-3.41c1.58-3.49-3.59-6.54-5.18-3Z"/>
    <path d="M623.67,652.45l19.87-26.25,3.5-4.62-.13.17c.24-.32.5-.63.74-1a36.91,36.91,0,0,0,3.72-6.6c6.3-13.79,8.43-29.35,9.24-44.35.68-12.73,0-25.47-.44-38.2q-.43-13-.86-26c-.15-5-.42-10.1-.42-15.14,0-3.86-6-3.87-6,0,0,23,2.19,46,2,69-.12,16.63-1.63,33.92-7.83,49.52a48.15,48.15,0,0,1-4.15,8c-.16.25-.34.47-.5.71l.22-.29c-.77,1-1.53,2-2.29,3l-21.87,28.89c-2.33,3.08,2.88,6.07,5.18,3Z"/>
    <path d="M507.34,364.18l-14.14-21-33.81-50.26L418.5,232.13,383,179.4l-11.62-17.28c-1.8-2.67-3.43-5.9-5.59-8.3-.09-.1-.15-.24-.23-.35l-1.08,4.1,58.71-31.87,8.44-4.58-4.1-1.08,10,19.82,24.13,47.84,29.09,57.67,25.16,49.87c4.07,8.06,7.74,16.52,12.27,24.32a2.7,2.7,0,0,1,.17.34c1.74,3.45,6.92.41,5.18-3l-10-19.82-24.13-47.84-29.1-57.67-25.15-49.87c-4.07-8.06-7.74-16.52-12.28-24.32-.06-.11-.11-.23-.16-.34a3,3,0,0,0-4.11-1.07l-58.7,31.87-8.44,4.58a3,3,0,0,0-1.08,4.11l14.14,21,33.81,50.25,40.88,60.79,35.48,52.73c5.73,8.52,11.31,17.17,17.2,25.58l.24.34c2.14,3.19,7.34.19,5.18-3Z"/>
    <path d="M563.73,261.88l-2.11-18.11-5.06-43.49-6.13-52.64-5.3-45.53c-.86-7.4-1.68-14.8-2.58-22.19,0-.11,0-.21,0-.32a3,3,0,0,0-3.79-2.89l-66,14.07-9.32,2a3,3,0,0,0-2.09,3.69l5,19,12,45.26,14.56,55,12.6,47.55c2,7.65,3.73,15.49,6.1,23,0,.11.06.22.09.33,1,3.73,6.78,2.15,5.79-1.59l-5-18.95-12-45.26-14.57-55-12.59-47.55-4.14-15.6c-.63-2.4-1-5.16-2-7.45a3.18,3.18,0,0,1-.09-.33L465,98.56l66-14.08,9.32-2-3.8-2.89,2.11,18.11,5.06,43.49,6.13,52.64,5.3,45.53c.86,7.4,1.68,14.8,2.58,22.19,0,.11,0,.21,0,.32.44,3.79,6.45,3.84,6,0Z"/>
    <line class="cls-6" x1="487.15" y1="175.99" x2="549.16" y2="162.45"/>
    <path d="M461,180.11l-50.64,30-7.18,4.26c-3.32,2-.3,7.16,3,5.18l50.63-30,7.19-4.26c3.31-2,.3-7.15-3-5.18Z"/>
    <path d="M375.41,148.35l24.13,32.25c2.29,3.05,7.5.06,5.18-3l-24.13-32.24c-2.29-3.06-7.5-.07-5.18,3Z"/>
    <path d="M395.81,139.71l20.5,34.67c2,3.32,7.15.3,5.18-3L401,136.68c-2-3.32-7.16-.31-5.18,3Z"/>
    <path d="M411.76,129.61,430,165.51c1.76,3.44,6.93.41,5.19-3l-18.26-35.9c-1.75-3.44-6.93-.41-5.18,3Z"/>
    <path d="M481.3,94.19l9,39.26c.86,3.76,6.65,2.17,5.78-1.6l-9-39.25c-.86-3.76-6.65-2.17-5.79,1.59Z"/>
    <path d="M503,88l3.58,40.12c.34,3.81,6.34,3.85,6,0L509,88c-.34-3.81-6.34-3.85-6,0Z"/>
    <path d="M519.13,83.63l2.16,40.22c.21,3.84,6.21,3.86,6,0l-2.16-40.22c-.2-3.84-6.2-3.86-6,0Z"/>
    <circle class="cls-7" cx="423.92" cy="648.51" r="34.96"/>
    <circle class="cls-7" cx="386.76" cy="786.01" r="34.96"/>
    <g>
      <circle class="cls-2" cx="527.97" cy="838.04" r="34.96"/>
      <path d="M528,806.08c13.25.14,25.55,8.41,30,21a32,32,0,1,1-30-21c3.86,0,3.87-6,0-6a38,38,0,1,0,37.24,30.62C561.86,813,545.8,800.26,528,800.08,524.11,800.05,524.11,806.05,528,806.08Z"/>
    </g>
    <circle class="cls-7" cx="609.73" cy="745.14" r="34.96"/>
    <path d="M509.54,481.16c-8.15-14.35-16.4-28.65-24.46-43.05a56.17,56.17,0,0,1-3.26-6.88c-2.19-5.56-4.41-12.29-3.09-18.32.62-2.8,2.42-5,3.94-7.39l6.61-10.25,18.07-28.08c2.5-3.87,5.27-7.67,7.48-11.72,8.12-14.9,15.83-30.05,23.73-45.07L554,281.05c2.94-5.57,6.26-11.09,8.87-16.83.12-.28.29-.55.43-.82l-4.71.6c.36.45-.34-.52-.15-.19s.5.68.74,1c.87,1.23,1.68,2.51,2.44,3.81a73.21,73.21,0,0,1,6.41,14.11c4.88,14.61,4.78,30.2,4.7,45.44-.07,12.69-.39,25.65,3.2,38,3.64,12.51,10.61,24,11.69,37.26a115.26,115.26,0,0,1-.71,21.17,100.59,100.59,0,0,1-3.13,16.76,54.45,54.45,0,0,1-4,10.47,37.2,37.2,0,0,1-2,3.39c-.27.4-.55.8-.84,1.19s.36-.43-.07.08c-.14.17-.28.36-.43.53-.38.42-.77.82-1.17,1.22s-.67.67,0,0a81.3,81.3,0,0,1-15.84,11.62,88.25,88.25,0,0,1-30.32,9.65,69.66,69.66,0,0,1-11.29.45l-24-.65-1.9-.05,2.12.88c-3.63-4.07-7.06-8.34-11.09-12a71.41,71.41,0,0,0-20.18-13,71.46,71.46,0,1,0-19,136.55c11.34-1.47,23.18-5.47,32.17-12.77a39.38,39.38,0,0,0,14.62-28.31c.38-7-.92-14.43-5.25-20.12A25.32,25.32,0,0,0,469.22,521a37.61,37.61,0,0,0-11.06-.15c-3.78.49-3.83,6.5,0,6,6.09-.78,12.47-.38,17.8,3,4.88,3.06,7.62,8.3,8.36,13.92a33.32,33.32,0,0,1-10.25,28.78c-6,5.7-15,9.64-23.57,11.77a65.49,65.49,0,1,1-.21-127.12c14.37,3.54,26.11,11.75,35.65,22.87,1.93,2.24,3.67,5.1,6.81,5.23,3.5.15,7,.19,10.49.28,6.42.18,12.87.58,19.29.52a82.5,82.5,0,0,0,20.93-3.42,92.07,92.07,0,0,0,17.76-6.95,85.25,85.25,0,0,0,17.09-12.28c9.9-8.77,12.77-23.84,14.33-36.31,1.67-13.36,1.84-26.44-2.31-39.34-2.36-7.33-5.76-14.29-8.1-21.61a75.93,75.93,0,0,1-3.26-18.8c-.85-15.15.26-30.33-1-45.48a84.92,84.92,0,0,0-11.46-36.81,48.45,48.45,0,0,0-3.67-5.33c-1.2-1.48-3.88-1-4.71.61l-21,40-26.6,50.51c-1.64,3.11-3.6,6-5.51,9l-17.93,27.85c-3.71,5.76-7.29,11.64-11.14,17.3a27.61,27.61,0,0,0-2.18,3.85,19.13,19.13,0,0,0-1.16,4.9,32,32,0,0,0,.74,10.31,63.77,63.77,0,0,0,5.74,15.57c2.94,5.74,6.36,11.27,9.55,16.87l14.83,26.1.93,1.64c1.91,3.36,7.09.34,5.18-3Z"/>
    <circle class="cls-8" cx="430.15" cy="523.88" r="28.01"/>
    <circle class="cls-9" cx="430.15" cy="523.88" r="11.34"/>
    <circle class="cls-8" cx="430.15" cy="523.88" r="4.08"/>
  </g>
</svg>
