<?xml version="1.0" encoding="UTF-8" standalone="no"?>
<svg
   xmlns:dc="http://purl.org/dc/elements/1.1/"
   xmlns:cc="http://creativecommons.org/ns#"
   xmlns:rdf="http://www.w3.org/1999/02/22-rdf-syntax-ns#"
   xmlns:svg="http://www.w3.org/2000/svg"
   xmlns="http://www.w3.org/2000/svg"
   xmlns:sodipodi="http://sodipodi.sourceforge.net/DTD/sodipodi-0.dtd"
   xmlns:inkscape="http://www.inkscape.org/namespaces/inkscape"
   version="1.1"
   width="200"
   height="200"
   style="fill:none"
   id="svg2"
   inkscape:version="0.91 r13725"
   sodipodi:docname="tloquenahuaque.svg">
  <metadata
     id="metadata14">
    <rdf:RDF>
      <cc:Work
         rdf:about="">
        <dc:format>image/svg+xml</dc:format>
        <dc:type
           rdf:resource="http://purl.org/dc/dcmitype/StillImage" />
        <dc:title></dc:title>
      </cc:Work>
    </rdf:RDF>
  </metadata>
  <defs
     id="defs12" />
  <sodipodi:namedview
     pagecolor="#ffffff"
     bordercolor="#666666"
     borderopacity="1"
     objecttolerance="10"
     gridtolerance="10"
     guidetolerance="10"
     inkscape:pageopacity="0"
     inkscape:pageshadow="2"
     inkscape:window-width="1278"
     inkscape:window-height="774"
     id="namedview10"
     showgrid="false"
     inkscape:zoom="6.1757929"
     inkscape:cx="141.67033"
     inkscape:cy="73.790815"
     inkscape:window-x="34"
     inkscape:window-y="7"
     inkscape:window-maximized="0"
     inkscape:current-layer="layer3" />
  <g
     inkscape:groupmode="layer"
     id="layer4"
     inkscape:label="tloque 1"
     style="display:inline"
     transform="translate(0,-490)">
    <path
       style="fill:#000000;fill-rule:evenodd;stroke:none;stroke-width:1px;stroke-linecap:butt;stroke-linejoin:miter;stroke-opacity:1"
       d="m 119.43654,552.18772 -31.618654,0.11983 -0.0108,2.6559 -11.89113,9.1262 0,7.54276 -7.93462,0.27151 0.0904,4.25969 -7.90516,3.79528 -0.24017,27.89151 8.05496,-0.11983 0,8.41549 26.32856,-0.48087 4.68887,-0.96174 0.84139,-0.2407 0,9.61792 7.934624,-0.48087 -0.36052,-13.10436 3.12592,-2.04383 2.16365,-3.12591 2.40487,-4.32783 0.72105,-4.68888 -0.12035,-0.6007 7.93462,0.24018 -0.11983,-8.29514 4.08766,-15.74941 -0.36104,-7.93462 -7.81428,0.12035 z m -19.732214,35.63502 c 2.206834,-1.3e-4 3.995854,1.78889 3.995714,3.99572 -1.5e-4,2.20663 -1.78909,3.99533 -3.995714,3.9952 -2.20663,1.3e-4 -3.99556,-1.78857 -3.99572,-3.9952 -1.3e-4,-2.20683 1.78889,-3.99585 3.99572,-3.99572 z"
       id="path4152"
       inkscape:connector-curvature="0"
       sodipodi:nodetypes="ccccccccccccccccccccccccccccccccc" />
    <path
       style="fill:#000000;fill-rule:evenodd;stroke:#000000;stroke-width:0.26445287px;stroke-linecap:butt;stroke-linejoin:miter;stroke-opacity:1"
       d="m 75.514106,571.51968 -39.44476,-32.3039 3.40041,-4.08049 z"
       id="path4160"
       inkscape:connector-curvature="0" />
    <path
       style="fill:#000000;fill-rule:evenodd;stroke:none;stroke-width:1px;stroke-linecap:butt;stroke-linejoin:miter;stroke-opacity:1"
       d="m 128.05044,571.6897 37.57453,-31.96386 3.40041,4.59056 2.55031,4.25051 3.74045,7.4809 2.38029,6.29076 2.38028,6.97084 1.53019,6.46078 1.02012,5.61068 0,6.46078 0.68008,5.10061 -0.34004,2.89035 0,3.40041 -0.51006,4.42053 -1.7002,8.67105 -1.87023,6.46078 -1.87022,4.42053 -2.55031,6.6308 -2.55031,4.08049 -3.40041,6.12074 -2.21445,2.89662 -38.59047,-27.03953 7.99096,-0.17002 0,-8.33101 7.82095,0.34004 -0.17002,-28.05338 -7.82095,0.34004 -0.34004,-8.331 z"
       id="path4162"
       inkscape:connector-curvature="0"
       sodipodi:nodetypes="ccccccccccccccccccccccccccccc" />
    <path
       style="fill:#000000;fill-rule:evenodd;stroke:none;stroke-width:1px;stroke-linecap:butt;stroke-linejoin:miter;stroke-opacity:1"
       d="m 127.83524,616.12053 35.71254,30.7608 -4.50158,5.10179 -5.55195,5.10179 -8.2529,5.85205 -6.15216,3.60127 -7.95279,3.60126 -6.60232,2.40085 -8.70305,1.80063 -5.85206,0.3001 -6.60231,0.60021 -7.352594,-0.3001 -7.20252,-1.05037 -5.4019,-1.20042 -5.4019,-1.05037 -5.55195,-2.25079 -5.55195,-2.10074 -4.35152,-1.95068 -4.20148,-2.25079 -4.20147,-2.70095 -4.20148,-2.851 -6.90242,-5.85206 -4.50158,-4.65163 -1.35048,-0.90032 38.41349,-30.31064 0.15005,8.10285 11.70411,-0.30011 0.45016,12.30432 31.811174,-0.3001 -0.15005,-12.45437 7.80274,0.45015 z"
       id="path4164"
       inkscape:connector-curvature="0" />
    <path
       style="fill:#000000;fill-rule:evenodd;stroke:none;stroke-width:1px;stroke-linecap:butt;stroke-linejoin:miter;stroke-opacity:1"
       d="m 31.427836,638.24872 44.21657,-22.74726 -41.40511,27.09224 z"
       id="path4166"
       inkscape:connector-curvature="0" />
    <path
       style="fill:#000000;fill-rule:evenodd;stroke:none;stroke-width:1px;stroke-linecap:butt;stroke-linejoin:miter;stroke-opacity:1"
       d="m 127.78418,571.02931 32.45956,-37.82689 3.32263,3.57821 z"
       id="path4168"
       inkscape:connector-curvature="0" />
  </g>
  <g
     inkscape:groupmode="layer"
     id="layer3"
     inkscape:label="nahuaque 1"
     style="display:inline"
     transform="translate(0,-490)">
    <path
       style="fill:#ececec;fill-rule:evenodd;stroke:none;stroke-width:1px;stroke-linecap:butt;stroke-linejoin:miter;stroke-opacity:1"
       d="m 107.53444,597.99237 -2.16401,3.48645 -2.52468,1.5629 -3.366234,0.60111 -4.32802,-0.96178 -3.7269,-2.40445 -3.00556,-3.84713 -0.60112,-5.65046 1.5629,-4.08757 3.24601,-4.44824 3.96735,-2.16401 6.251574,-0.12022 4.32802,1.44267 3.7269,2.76512 2.6449,3.60668 10.0987,0.12022 0,8.53581 -7.4538,-0.60111 -0.96178,3.36623 -1.08201,3.84713 -3.36623,5.53024 -2.88535,2.16401 -0.12022,13.46493 -8.054914,-0.48089 0.12022,-9.01669 -1.68312,0 -2.40445,0.96178 -6.97292,-0.24045 -7.33358,0.48089 -5.60764,0.35412 0.0774,7.58058 12.02227,-0.24045 -0.12023,12.14249 31.618564,-0.36067 0.12022,-12.26271 8.05492,0.48089 -0.24044,-8.29536 8.05491,0.36067 0,-8.17514 7.9347,0.12022 0,-27.77143 -7.9347,0.12022 0,-8.17514 -27.89165,0.12022 0.12022,-8.17514 -7.934694,0.24045 0,8.41558 -3.24602,-0.12022 -3.48645,1.082 -3.36624,1.32245 -3.48646,2.6449 -3.48645,4.2078 -2.04379,4.20779 -0.36067,2.28423 -8.41558,-0.12023 0.12022,8.17514 8.53581,-0.36066 1.082,3.48645 2.04379,2.52468 1.68312,2.16401 2.76512,1.80334 2.28423,1.082 4.68868,0.96178 5.650474,-0.84156 3.24601,-2.164 2.88534,-3.72691 z"
       id="path4149"
       inkscape:connector-curvature="0"
       sodipodi:nodetypes="ccccccccccccccccccccccccccccccccccccccccccccccccccccccccccccccccccc" />
    <path
       style="fill:#e6e6e6;fill-rule:evenodd;stroke:none;stroke-width:1px;stroke-linecap:butt;stroke-linejoin:miter;stroke-opacity:1"
       d="m 75.047886,616.43025 -37.04911,30.3622 -4.15673,-4.33745 -2.71091,-4.15673 -3.61455,-6.14473 -3.79528,-6.86765 -3.25309,-7.77127 -1.62654,-6.50619 -1.80728,-8.31346 -0.72291,-7.952 0.36146,-9.03637 1.08436,-7.952 1.44582,-6.68692 1.988,-5.78327 2.71091,-7.04837 4.51819,-8.31346 5.06036,-7.40982 5.60255,-6.50619 5.06037,-5.24109 5.42182,-4.15673 6.32546,-4.69891 5.78327,-2.89164 6.14473,-3.07237 6.50619,-3.07236 8.31346,-1.988 6.32546,-1.2651 9.94,-0.90363 7.048374,-0.18073 8.13273,0.18073 7.95201,1.988 10.12073,3.07236 10.66292,5.60255 4.51818,3.2531 4.15673,2.89163 4.15673,3.43382 4.15673,4.15673 2.89164,3.43382 3.25309,3.97601 -37.77202,31.26583 -0.72291,-7.77128 -8.31346,0.36146 0.54218,-12.10874 -31.808024,0 -0.0904,11.83765 -11.83764,-0.0904 0.18072,8.13274 -7.952,-0.18073 -0.0904,8.22309 -8.22309,0.0904 0.36146,27.47056 7.68091,0.0904 0.27109,8.2231 7.04837,-0.27109 z"
       id="path4170"
       inkscape:connector-curvature="0"
       sodipodi:nodetypes="cccccccccccccccccccccccccccccccccccccccccccccccccccccc" />
    <path
       style="fill:#ececec;fill-rule:evenodd;stroke:none;stroke-width:1px;stroke-linecap:butt;stroke-linejoin:miter;stroke-opacity:1;fill-opacity:1"
       d="m 127.10919,615.35371 36.10872,32.38451 3.88614,-5.34344 z"
       id="path4215"
       inkscape:connector-curvature="0" />
  </g>
  <g
     inkscape:groupmode="layer"
     id="layer5"
     inkscape:label="tloque 2"
     style="display:inline"
     transform="translate(0,-490)">
    <path
       style="fill:#000000;fill-rule:evenodd;stroke:#000000;stroke-width:0.26445287px;stroke-linecap:butt;stroke-linejoin:miter;stroke-opacity:1"
       d="m 35.836666,539.25399 3.75459,-4.23905 35.72914,36.45583 z"
       id="path4174"
       inkscape:connector-curvature="0" />
    <path
       style="fill:#000000;fill-rule:evenodd;stroke:none;stroke-width:1px;stroke-linecap:butt;stroke-linejoin:miter;stroke-opacity:1"
       d="m 127.80425,571.06276 32.2013,-38.19622 3.0831,4.1108 z"
       id="path4177"
       inkscape:connector-curvature="0" />
    <path
       style="fill:#000000;fill-rule:evenodd;stroke:none;stroke-width:1px;stroke-linecap:butt;stroke-linejoin:miter;stroke-opacity:1"
       d="m 74.706356,616.11032 -43.16344,23.12328 3.0831,3.76824 z"
       id="path4180"
       inkscape:connector-curvature="0" />
  </g>
  <g
     inkscape:groupmode="layer"
     id="layer1"
     inkscape:label="tloque"
     style="display:inline"
     transform="translate(0,-490)">
    <path
       d="m 94.832346,591.96357 c 0,-2.1908 2.76999,-4.32824 4.96079,-4.32824 l 0.18073,-0.54219 c 4.381604,0 7.662494,4.36526 7.662494,8.74686 l 0,0 c 0,4.3816 -3.55198,7.93359 -7.933584,7.93359 l 0,0 c -6.5724,0 -11.90038,-5.32798 -11.90038,-11.90038 l 0,0 c 0,-6.5724 5.32798,-11.90038 11.90038,-11.90038 l 0,0 c 8.763194,0 15.867174,7.10398 15.867174,15.86717 l 0,0 m -47.601524,-23.80076 0,0 7.93359,0 0,0 -39.7876,-32.81579 m 39.7876,32.81579 0,0 0,-7.93358 0,0 11.90038,0 0,0 0,-11.90038 31.734344,0 0,11.90038 0,0 7.93359,0 0,7.93358 0,0 35.51624,-35.51624 m -47.41662,59.317 0,0 7.93359,0 0,-7.93358 -9.69012,0 m -22.044234,27.76755 0,0 0,0 -23.80076,0 0,-7.93359 -7.93358,0 0,-7.93359 m 0,-19.83396 0,0 0,19.83396 0,0 0,-19.83396 0,0 7.93358,0 m 0,-7.93359 0,0 0,7.93359 m 23.80076,35.70114 c 13.144804,0 23.800764,-8.87997 23.800764,-19.83397 m -15.867174,19.83397 0,-0.68008 0,8.61366 7.933584,0 0,-13.14684 M 60.034846,595.84 l -27.76755,0 c -2.1908,0 -3.9668,1.776 -3.9668,3.96679 0,2.1908 1.776,3.9668 3.9668,3.9668 2.1908,0 3.96679,-1.776 3.96679,-3.9668 m 23.80076,-11.90037 -27.76755,0 c -2.1908,0 -3.9668,-1.776 -3.9668,-3.9668 0,-2.1908 1.776,-3.96679 3.9668,-3.96679 2.1908,0 3.96679,1.77599 3.96679,3.96679 m 63.46869,-31.73434 0,-27.76755 c 0,-2.1908 -1.776,-3.96679 -3.96679,-3.96679 -2.1908,0 -3.9668,1.77599 -3.9668,3.96679 0,2.1908 1.776,3.96679 3.9668,3.96679 m 11.900374,23.80076 0,-27.76755 c 0,-2.1908 1.776,-3.96679 3.9668,-3.96679 2.1908,0 3.96679,1.77599 3.96679,3.96679 0,2.1908 -1.77599,3.96679 -3.96679,3.96679 m -35.701144,87.26945 0,0 -40.98982,26.56532 m 4.92857,-106.74219 c 12.93663,13.49569 22.79738,23.36555 36.06125,36.54214 m 27.767554,103.13662 c -48.197584,0 -87.269444,-37.29587 -87.269444,-83.30265 0,-46.00679 39.07186,-83.30265 87.269444,-83.30265 43.81599,0 79.33586,37.29586 79.33586,83.30265 0,46.00678 -35.51987,83.30265 -79.33586,83.30265"
       style="fill:none;stroke:#000000;stroke-width:1.0578115;stroke-linecap:round;stroke-linejoin:round;stroke-opacity:1"
       id="path6"
       inkscape:connector-curvature="0"
       sodipodi:nodetypes="ccccccccccccccccccccccccccccccccccccccccccccccccccccccccccccccsssccsssccsssccssscccccccsssc" />
  </g>
  <g
     inkscape:groupmode="layer"
     id="layer2"
     inkscape:label="nahuaque"
     style="display:inline"
     transform="translate(0,-490)">
    <path
       d="m 95.735986,591.87321 c 0,-2.1908 1.77599,-3.96679 3.96679,-3.96679 4.381604,0 7.933584,3.55198 7.933584,7.93358 0,6.5724 -5.32798,11.90038 -11.900374,11.90038 l 0,0 c -8.7632,0 -15.86718,-7.10398 -15.86718,-15.86717 l 0,0 0,0 c 0,-10.954 8.87997,-19.83397 19.83397,-19.83397 l 0,0 0,-7.93358 7.933584,0 0,7.93358 m -27.767554,15.86718 0,0 -7.93358,0 0,7.93358 7.93358,0 m 27.767554,-23.80076 15.86718,0 0,0 11.90038,0 0,7.93359 7.93358,0 0,0 0,27.76755 -7.93358,0 0,0 0,7.93359 -7.93359,0 0,0 m -51.568314,1.34885 0,-0.32115 0,6.90588 11.90038,0 0,11.90038 31.734344,0 0,-11.90038 0,0 7.93359,0 0,-7.93358 M 95.735986,591.87321 c 0,2.1908 1.77599,3.96679 3.96679,3.96679 2.190804,0 3.966794,-1.77599 3.966794,-3.96679 0,-2.1908 -1.77599,-3.96679 -3.966794,-3.96679 m 43.634724,0 27.76755,0 c 2.1908,0 3.96679,-1.776 3.96679,-3.9668 0,-2.1908 -1.77599,-3.96679 -3.96679,-3.96679 -2.1908,0 -3.96679,1.77599 -3.96679,3.96679 M 143.3375,595.84 l 27.76755,0 c 2.1908,0 3.96679,1.776 3.96679,3.96679 0,2.1908 -1.77599,3.9668 -3.96679,3.9668 -2.1908,0 -3.96679,-1.776 -3.96679,-3.9668 m -67.435484,35.70114 0,27.76755 c 0,2.1908 -1.776,3.9668 -3.96679,3.9668 -2.1908,0 -3.9668,-1.776 -3.9668,-3.9668 0,-2.1908 1.776,-3.96679 3.9668,-3.96679 m 11.900374,-23.80076 0,27.76755 c 0,2.1908 1.776,3.9668 3.9668,3.9668 2.1908,0 3.96679,-1.776 3.96679,-3.9668 0,-2.1908 -1.77599,-3.96679 -3.96679,-3.96679 m -35.701144,-41.70778 0,0.72795 m 51.568314,-46.28962 0,0"
       style="fill:none;stroke:#ececec;stroke-width:1.0578115;stroke-linecap:round;stroke-linejoin:round;stroke-opacity:1"
       id="path4"
       inkscape:connector-curvature="0"
       sodipodi:nodetypes="csscccccccccccccccccccccccccccccccccccccccssccsssccsssccsssccsssccccc" />
  </g>
  <path
     d=""
     style="fill:none;stroke:#a7796e;stroke-width:4;stroke-linecap:round;stroke-linejoin:round"
     id="path8"
     inkscape:connector-curvature="0" />
</svg>
