<?xml version="1.0" encoding="UTF-8" standalone="no"?>
<svg
   xmlns:dc="http://purl.org/dc/elements/1.1/"
   xmlns:cc="http://creativecommons.org/ns#"
   xmlns:rdf="http://www.w3.org/1999/02/22-rdf-syntax-ns#"
   xmlns:svg="http://www.w3.org/2000/svg"
   xmlns="http://www.w3.org/2000/svg"
   xmlns:sodipodi="http://sodipodi.sourceforge.net/DTD/sodipodi-0.dtd"
   xmlns:inkscape="http://www.inkscape.org/namespaces/inkscape"
   version="1.1"
   width="200"
   height="200"
   style="fill:none"
   id="svg2"
   inkscape:version="0.91 r13725"
   sodipodi:docname="xochitl_01.svg">
  <metadata
     id="metadata14">
    <rdf:RDF>
      <cc:Work
         rdf:about="">
        <dc:format>image/svg+xml</dc:format>
        <dc:type
           rdf:resource="http://purl.org/dc/dcmitype/StillImage" />
        <dc:title></dc:title>
      </cc:Work>
    </rdf:RDF>
  </metadata>
  <defs
     id="defs12" />
  <sodipodi:namedview
     pagecolor="#ffffff"
     bordercolor="#666666"
     borderopacity="1"
     objecttolerance="10"
     gridtolerance="10"
     guidetolerance="10"
     inkscape:pageopacity="0"
     inkscape:pageshadow="2"
     inkscape:window-width="1132"
     inkscape:window-height="700"
     id="namedview10"
     showgrid="false"
     inkscape:zoom="0.96740406"
     inkscape:cx="192.79371"
     inkscape:cy="54.879244"
     inkscape:window-x="0"
     inkscape:window-y="0"
     inkscape:window-maximized="0"
     inkscape:current-layer="svg2" />
  <path
     d="m 78.58557,121.06025 0,0 0,34.11425 M 51.294166,175.64305 A 27.291405,20.468553 0 0 0 78.58557,155.1745 m 0,-13.6457 a 27.291405,27.291405 0 0 1 27.29141,-27.2914 l 0,0 20.46855,0 M 99.054127,141.5288 A 20.468553,13.645703 0 0 0 78.58557,155.1745 m 20.468557,-13.6457 0,0 27.291403,0 a 13.645703,13.645703 0 0 0 13.6457,-13.6457 13.645703,13.645703 0 0 0 -13.6457,-13.6457 M 78.58557,141.5288 A 27.291405,27.291405 0 0 0 51.294166,114.2374 l 0,0 -27.291405,0 a 13.645703,13.645703 0 0 0 -13.645702,13.6457 13.645703,13.645703 0 0 0 13.645702,13.6457 l 0,0 34.114256,0 a 20.468553,6.8228512 0 0 1 20.468553,6.82285 m -68.228511,-20.46855 0,0 47.759958,0 a 20.468553,20.468553 0 0 1 20.468553,20.46855 m 61.40566,-20.46855 0,0 -40.937103,0 A 20.468553,20.468553 0 0 0 78.58557,148.35165"
     style="fill:none;stroke:#00b300;stroke-width:2.20657325;stroke-linecap:round;stroke-linejoin:round;stroke-miterlimit:4;stroke-dasharray:none;stroke-opacity:1"
     id="path4"
     inkscape:connector-curvature="0" />
  <path
     d="m 119.52268,100.59169 a 13.645703,13.645703 0 0 1 13.6457,13.64571 m -27.2914,-6.82285 A 27.291405,27.291405 0 0 0 78.58557,80.123141 l 0,0 0,0 0,0 A 27.291405,34.114256 0 0 0 105.87698,114.2374 M 51.294166,107.41455 A 27.291405,27.291405 0 0 0 78.58557,80.123141 27.291405,27.291405 0 0 0 51.294166,107.41455 m -27.291405,6.82285 a 13.645703,13.645703 0 0 1 13.645702,-13.64571 13.645703,6.8228512 0 0 1 13.645703,6.82286 m 54.582814,0 0,0 a 13.645703,6.8228512 0 0 1 13.6457,-6.82286 l 0,0 a 13.645703,13.645703 0 0 1 -13.6457,13.64571 m 0,-6.82285 A 27.291405,27.291405 0 0 1 78.58557,80.123141 l 0,0 A 27.291405,34.114256 0 0 1 51.294166,114.2374 M 78.58557,80.123141 a 27.291405,20.468553 0 0 0 27.29141,20.468549 M 78.58557,80.123141 A 27.291405,20.468553 0 0 1 51.294166,100.59169 m 27.291404,-20.468549 0,0 -27.291404,20.468549 m 27.291404,-20.468549 0,0 27.29141,20.468549 m 13.6457,0 a 13.645703,13.645703 0 0 0 13.6457,13.64571 M 37.648463,100.59169 A 13.645703,13.645703 0 0 0 51.294166,114.2374 M 37.648463,100.59169 A 13.645703,13.645703 0 0 1 24.002761,114.2374 m 95.519919,-13.64571 0,0 -13.6457,13.64571 m 13.6457,-13.64571 0,0 13.6457,13.64571 m -95.519917,-13.64571 0,0 -13.645702,13.64571 m 13.645702,-13.64571 0,0 13.645703,13.64571 m 54.582814,6.82285 A 27.291405,40.937107 0 0 1 78.58557,80.123141 l 0,0 A 27.291405,40.937107 0 0 1 51.294166,121.06025 M 78.58557,80.123141 A 27.291405,47.759958 0 0 1 51.294166,127.8831 M 78.58557,80.123141 a 27.291405,47.759958 0 0 0 27.29141,47.759959 m -54.582814,0 0,0 0,-13.6457 m 54.582814,13.6457 0,0 0,-13.6457"
     style="fill:none;stroke:#ff8000;stroke-width:2.20657325;stroke-linecap:round;stroke-linejoin:round;stroke-miterlimit:4;stroke-dasharray:none;stroke-opacity:1"
     id="path6"
     inkscape:connector-curvature="0" />
  <path
     d="m 51.294166,114.2374 0,0 -13.645703,-27.29141 13.645703,0 0,27.29141 m 54.582814,0 0,0 0,-27.29141 13.6457,0 -13.6457,27.29141"
     style="fill:#ffcd03;stroke:#ffcd03;stroke-width:0.45485675;stroke-linecap:round;stroke-linejoin:round;stroke-opacity:1;fill-opacity:0.77272725"
     id="path8"
     inkscape:connector-curvature="0" />
</svg>
