<?xml version="1.0" encoding="UTF-8" standalone="no"?>
<svg
   xmlns:dc="http://purl.org/dc/elements/1.1/"
   xmlns:cc="http://creativecommons.org/ns#"
   xmlns:rdf="http://www.w3.org/1999/02/22-rdf-syntax-ns#"
   xmlns:svg="http://www.w3.org/2000/svg"
   xmlns="http://www.w3.org/2000/svg"
   xmlns:sodipodi="http://sodipodi.sourceforge.net/DTD/sodipodi-0.dtd"
   xmlns:inkscape="http://www.inkscape.org/namespaces/inkscape"
   version="1.1"
   width="200"
   height="200"
   style="fill:none"
   id="svg2"
   inkscape:version="0.91 r13725"
   sodipodi:docname="xolotl.svg">
  <metadata
     id="metadata14">
    <rdf:RDF>
      <cc:Work
         rdf:about="">
        <dc:format>image/svg+xml</dc:format>
        <dc:type
           rdf:resource="http://purl.org/dc/dcmitype/StillImage" />
        <dc:title></dc:title>
      </cc:Work>
    </rdf:RDF>
  </metadata>
  <defs
     id="defs12" />
  <sodipodi:namedview
     pagecolor="#ffffff"
     bordercolor="#666666"
     borderopacity="1"
     objecttolerance="10"
     gridtolerance="10"
     guidetolerance="10"
     inkscape:pageopacity="0"
     inkscape:pageshadow="2"
     inkscape:window-width="1087"
     inkscape:window-height="769"
     id="namedview10"
     showgrid="false"
     inkscape:zoom="6.2537517"
     inkscape:cx="44.607777"
     inkscape:cy="61.138981"
     inkscape:window-x="210"
     inkscape:window-y="0"
     inkscape:window-maximized="0"
     inkscape:current-layer="layer1" />
  <g
     inkscape:groupmode="layer"
     id="layer3"
     inkscape:label="perrito 1"
     style="display:inline">
    <path
       style="fill:#c8b7b7;fill-opacity:0.40404041;fill-rule:evenodd;stroke:none;stroke-width:1px;stroke-linecap:butt;stroke-linejoin:miter;stroke-opacity:1"
       d="m 26.344378,129.47172 6.243608,0.28379 8.939712,0.28381 5.250308,0.56759 8.65591,1.13521 9.649213,2.2704 2.838005,0.7095 1.277101,4.5408 2.838003,2.55421 3.121805,3.40561 0.993301,1.5609 -17.311822,-2.41231 -20.859329,-2.6961 -13.906218,-1.8447 -10.500614,-1.2771 7.236909,-0.8514 3.831306,-2.97991 1.560902,-3.4056 z"
       id="path4164"
       inkscape:connector-curvature="0" />
    <path
       style="fill:#c8b7b7;fill-opacity:0.40404041;fill-rule:evenodd;stroke:none;stroke-width:1px;stroke-linecap:butt;stroke-linejoin:miter;stroke-opacity:1"
       d="m 24.641576,124.9309 1.277101,2.69611 -0.2838,1.84471 8.372111,0.1419 5.534108,-0.4257 3.973205,-0.56761 3.547504,-0.8514 5.250308,-0.8514 5.534107,-1.2771 5.534108,-1.8447 4.257005,-2.4123 2.554203,-2.27041 2.979904,-3.68941 3.121804,-2.1285 3.831305,-1.8447 5.250308,-0.1419 5.676006,0.99331 3.689406,1.84469 3.121808,2.83801 2.979903,3.6894 1.5609,4.11511 0.70949,3.4056 0,4.39891 -1.41899,2.69611 -1.13521,3.8313 -1.844693,2.5542 -2.128511,2.2704 -5.392202,2.41231 -2.412303,0.7095 -1.560902,0.5676 2.979904,1.8447 1.844698,1.9866 1.560904,2.4123 0.141897,2.83801 -0.141897,2.9799 -1.418997,2.97991 -2.838006,2.1285 -4.398906,0.9933 -72.652897,8.79782 0.283801,1.84469 1.844702,1.98661 2.270404,1.2771 4.824606,-0.4257 101.174828,-0.2838 4.82461,-0.7095 2.9799,-1.7028 3.12181,-1.84471 2.838,-2.838 1.7028,-4.11511 1.2771,-4.82461 -0.14189,-4.257 -0.8514,-3.2637 -1.7028,-4.11511 -2.55421,-3.2637 -2.1285,-1.9866 -2.2704,-0.9933 4.6827,-0.2838 4.68271,-0.42571 4.3989,-1.5609 5.25031,-3.1218 3.4056,-3.5475 3.12181,-3.54751 2.838,-5.25031 2.41231,-3.9732 1.41899,-3.2637 -4.1151,-3.68941 -3.68941,-3.40561 -5.8179,-3.6894 -4.39891,-2.12851 -4.257,-1.41899 -5.10841,-0.56761 -4.68271,1.1352 -3.5475,1.27711 -4.257,2.838 -2.12851,1.5609 -3.40561,3.68941 -5.3922,-3.97321 -4.96651,-3.54751 -3.4056,-1.98659 -6.953107,-2.55421 -4.682709,-1.2771 -3.263704,-0.1419 -4.682706,-0.1419 -4.966507,1.2771 -4.824606,1.419 -4.966507,2.4123 -2.979904,2.27041 -2.554204,1.419 -3.689404,3.4056 -2.979904,2.838 -3.973205,2.83801 -3.973205,1.5609 -3.831306,1.13521 -7.09501,1.5609 -4.824606,0.4257 z"
       id="path4166"
       inkscape:connector-curvature="0" />
    <path
       style="fill:#000000;fill-rule:evenodd;stroke:none;stroke-width:1px;stroke-linecap:butt;stroke-linejoin:miter;stroke-opacity:1"
       d="m 38.421466,129.06212 8.629118,-1.80608 7.425056,-0.80272 7.826409,-2.40812 5.418284,-2.60881 4.414898,-5.01692 4.013543,-3.41151 3.210835,-1.40475 8.227764,-0.40135 6.220994,2.20745 3.411508,2.40812 3.210835,4.41491 2.40812,5.01692 0.40136,6.82303 -1.60541,6.02031 -2.809487,3.81286 -3.010155,2.20745 -8.027088,-7.62573 1.40474,-2.40812 -0.802708,-4.01355 -1.806095,-2.60879 -2.608803,-2.00678 -4.414898,0 -3.010158,1.60541 -2.006772,3.01016 -0.802708,3.21084 0.802708,3.21083 -5.217605,2.20746 -1.806095,-3.81287 -3.411512,-1.60542 -6.220992,-1.20406 z"
       id="path4168"
       inkscape:connector-curvature="0" />
    <path
       style="fill:#000000;fill-rule:evenodd;stroke:none;stroke-width:1px;stroke-linecap:butt;stroke-linejoin:miter;stroke-opacity:1"
       d="m 69.125074,138.49396 4.21422,4.81625 2.80948,2.20744 4.615576,1.8061 5.217605,0.40135 4.013544,-1.00338 3.812868,-1.40474 2.408123,-1.60542 -6.622346,-7.22438 -1.806094,0.40136 -2.80948,2.80948 -2.006772,0.60204 -3.411512,0 -2.207449,-1.60542 -3.010158,-3.01016 z"
       id="path4170"
       inkscape:connector-curvature="0" />
    <path
       style="fill:#aa0000;fill-rule:evenodd;stroke:none;stroke-width:1px;stroke-linecap:butt;stroke-linejoin:miter;stroke-opacity:1"
       d="m 9.1225995,130.86822 -1.0033863,-3.61218 1.4047404,-4.01355 3.4115124,-2.20745 3.812866,-1.00338 4.013543,1.20406 3.411513,2.60881 1.605416,3.01015 0.401355,4.61558 -1.40474,3.01015 -2.207449,2.60881 -3.812866,1.40474 -3.010158,0.20068 15.652819,2.20744 54.182836,7.02371 3.812866,0.8027 3.210833,3.01016 0.802715,2.40813 0.602023,3.01015 -1.404738,4.21423 -1.806092,2.40812 -3.612189,2.20745 -74.651907,9.03047 0,-2.80948 2.408125,-1.60541 4.214221,-1.00339 8.428441,-1.20407 49.366584,-7.42506 3.010157,-1.80608 0.602032,-3.41151 -1.204063,-2.00678 -1.605418,-1.40474 -61.005859,-9.23115 -2.809481,-1.00339 -1.605416,-2.40812 0,-1.60542 -2.6088043,-0.80271 -1.8060946,-2.00677 -0.2006771,-2.20744 z"
       id="path4172"
       inkscape:connector-curvature="0" />
    <path
       style="fill:#ffffff;fill-rule:evenodd;stroke:none;stroke-width:1px;stroke-linecap:butt;stroke-linejoin:miter;stroke-opacity:1"
       d="m 16.762334,143.15115 12.591452,1.79879 -1.798779,3.18244 -1.10694,3.45919 -0.553472,3.04409 -0.415102,4.01266 0.55347,2.90572 -2.767352,-0.96856 -2.628985,-2.35226 -2.075513,-4.01265 -0.968574,-3.4592 -0.55347,-4.01266 z"
       id="path4177"
       inkscape:connector-curvature="0" />
    <path
       style="fill:#ffffff;fill-rule:evenodd;stroke:none;stroke-width:1px;stroke-linecap:butt;stroke-linejoin:miter;stroke-opacity:1"
       d="m 33.781549,145.78013 11.899615,1.66042 -1.106941,1.66041 -1.383676,2.49061 -0.55347,4.70451 -0.276735,4.2894 0,1.10693 -1.937147,-0.83021 -2.35225,-1.6604 -1.937146,-2.76736 -1.106941,-3.87429 -1.245309,-4.56613 z"
       id="path4179"
       inkscape:connector-curvature="0" />
    <path
       style="fill:#ffffff;fill-rule:evenodd;stroke:none;stroke-width:1px;stroke-linecap:butt;stroke-linejoin:miter;stroke-opacity:1"
       d="m 50.662398,148.27075 0.138367,3.04409 0.968573,3.18245 1.937147,3.32083 3.597558,1.93715 2.352249,0.83021 0.968574,0.13835 -0.830207,-4.15102 0,-3.04408 1.245309,-2.62899 0.276736,-0.96857 z"
       id="path4181"
       inkscape:connector-curvature="0" />
    <path
       style="fill:#ffffff;fill-rule:evenodd;stroke:none;stroke-width:1px;stroke-linecap:butt;stroke-linejoin:miter;stroke-opacity:1"
       d="m 66.436305,150.48464 7.886954,1.38367 -1.522043,1.66042 -0.830207,1.93714 -0.968573,1.52205 0.138368,2.62898 -1.660412,-0.69184 -1.937147,-2.35225 -0.968572,-2.90572 z"
       id="path4183"
       inkscape:connector-curvature="0" />
    <circle
       style="opacity:0.85500004;fill:#ffffff;fill-opacity:1;stroke:none;stroke-width:1.70000005;stroke-miterlimit:4;stroke-dasharray:none;stroke-opacity:1"
       id="path5684"
       cx="81.183693"
       cy="133.08432"
       r="7.292964" />
  </g>
  <path
     d=""
     style="fill:none;stroke:#000000;stroke-width:8;stroke-linecap:round;stroke-linejoin:round"
     id="path8"
     inkscape:connector-curvature="0" />
  <g
     inkscape:groupmode="layer"
     id="layer1"
     inkscape:label="perrito"
     style="display:inline">
    <path
       d="m 16.842489,179.39656 0,0 77.071864,0 c 10.015447,1e-5 18.134567,-8.11911 18.134567,-18.13455 0,-8.95225 -6.48683,-16.38942 -15.016526,-17.86753 m -80.189905,36.00208 c -2.503853,-1e-5 -4.533625,-2.02977 -4.53363,-4.53363 -7e-6,-2.50386 2.029768,-4.53364 4.53363,-4.53365 l 0,0 58.937314,-9.06727 c 2.503861,0 4.533641,-2.02979 4.533639,-4.53365 -4e-6,-2.50385 -2.029782,-4.53363 -4.533639,-4.53363 l 0,0 -58.937314,-9.06728 m 68.004592,4.53364 0,0 0,0 c 5.007716,0 9.067272,4.05956 9.067272,9.06727 l 0,0 c 10e-6,5.00773 -4.059548,9.0673 -9.067272,9.0673 M 16.842489,143.12745 c -2.503853,-1e-5 -4.533625,-2.02978 -4.53363,-4.53363 l 0,0 m 72.538222,27.20184 0,0 -72.538222,9.06727 m 72.538222,-27.20184 0,0 -72.538222,-9.06727 72.538222,9.06727 m -68.004592,-27.20183 0,0 c -4.582017,-0.28381 -10.3443756,3.63385 -8.2158761,9.77677 m 8.2158761,-9.77677 c 5.007717,0 9.067274,4.05955 9.067278,9.06727 l 0,0 c 18.344453,0 34.144176,2.17905 41.281169,5.31357 m -54.882077,3.75372 0,0 4.53363,0 c 5.007722,0 9.067281,-4.05957 9.067278,-9.06729 m -9.067278,9.06729 -4.53363,0 m 57.424616,-19.1711 c -0.846865,0.95761 -2.033215,1.87375 -3.518054,2.73613 -7.534763,4.37608 -22.755666,7.36768 -40.305654,7.36768 l 0,0 m 77.071883,0 c 0,10.01545 -8.119127,18.13457 -18.134569,18.13456 l 0,0 c -10.015439,0 -18.134556,-8.11911 -18.134555,-18.13456 l 0,0 c -10e-7,-10.01544 8.119116,-18.13456 18.134555,-18.13456 l 0,0 c 10.015442,-1e-5 18.134569,8.11912 18.134569,18.13456 M 57.645248,115.92561 c 18.134555,-18.134554 37.78033,-18.134554 58.937312,0 m -58.937312,0 c -6.044851,6.04486 -17.332846,9.20919 -32.444982,9.20919 m 95.915934,17.99265 c 10.01544,0 18.13455,8.11911 18.13455,18.13456 0,10.01544 -8.11911,18.13455 -18.13455,18.13455 l 0,0 -27.201847,0 M 121.1162,143.12745 c 18.13455,6.04485 31.73547,-1.51121 40.80274,-22.66819 m -45.33638,-4.53365 c 12.08971,-15.11213 27.20183,-13.60091 45.33638,4.53365 m -45.33638,-4.53365 c -4.37047,7.60577 -0.51791,13.91316 3.82413,15.09088 6.82531,2.27039 12.82764,-3.94479 9.42204,-9.84773 M 16.842489,143.12745 c 0,10.01544 4.059558,18.13456 9.067278,18.13456 -1.209849,-6.81358 1.17558,-13.09964 3.063236,-16.16818 m 4.567643,0.68817 c 0.704067,8.65174 4.315145,15.6219 8.800883,15.6219 0,-5.93125 1.088603,-11.50658 2.779349,-13.59 m 5.294627,0.55669 c 0,7.51158 5.05286,12.18191 10.060579,12.18191 -1.277101,-6.80622 -0.44067,-7.87549 0.637013,-10.36198 m 5.031828,0.58521 c 10e-7,5.00773 2.313582,8.49967 4.817441,8.49967 10e-7,-2.91691 1.281063,-5.35867 3.340461,-7.25768 m 10.544254,-49.69303 0,0 m -72.538222,36.26913 c -2.503864,0 -4.5336496,-2.02978 -4.5336474,-4.53365 -2.2e-6,-2.50386 1.8291063,-3.73092 4.3329704,-3.73092 l 0,0 3.530243,-2e-5 c 0,0 3.71871,-0.26371 2.514646,-3.8759"
       style="fill:none;stroke:#000200;stroke-width:1.219;stroke-linecap:round;stroke-linejoin:round;stroke-miterlimit:4;stroke-dasharray:none;stroke-opacity:1"
       id="path4"
       inkscape:connector-curvature="0"
       sodipodi:nodetypes="ccssccscccscccccccccccccccccccccccccccscccccsccccscccccccccccccccsccccccccccccccccccccccccc" />
    <circle
       style="opacity:1;fill:none;stroke:#000000;stroke-width:1.41940069;stroke-miterlimit:4;stroke-dasharray:none;stroke-opacity:1"
       id="path4159"
       cx="81.25975"
       cy="133.01921"
       r="7.4848928" />
    <circle
       style="opacity:0.85500004;fill:none;stroke:#000000;stroke-width:1.85613942;stroke-miterlimit:4;stroke-dasharray:none;stroke-opacity:1"
       id="path4161"
       cx="80.707924"
       cy="133.5159"
       r="2.4055073" />
  </g>
</svg>
