<?xml version="1.0" encoding="UTF-8" standalone="no"?>
<svg
   xmlns:dc="http://purl.org/dc/elements/1.1/"
   xmlns:cc="http://creativecommons.org/ns#"
   xmlns:rdf="http://www.w3.org/1999/02/22-rdf-syntax-ns#"
   xmlns:svg="http://www.w3.org/2000/svg"
   xmlns="http://www.w3.org/2000/svg"
   xmlns:sodipodi="http://sodipodi.sourceforge.net/DTD/sodipodi-0.dtd"
   xmlns:inkscape="http://www.inkscape.org/namespaces/inkscape"
   version="1.1"
   width="200"
   height="200"
   style="fill:none"
   id="svg2"
   inkscape:version="0.91 r13725"
   sodipodi:docname="xolotl_rev.svg">
  <metadata
     id="metadata14">
    <rdf:RDF>
      <cc:Work
         rdf:about="">
        <dc:format>image/svg+xml</dc:format>
        <dc:type
           rdf:resource="http://purl.org/dc/dcmitype/StillImage" />
        <dc:title></dc:title>
      </cc:Work>
    </rdf:RDF>
  </metadata>
  <defs
     id="defs12" />
  <sodipodi:namedview
     pagecolor="#ffffff"
     bordercolor="#666666"
     borderopacity="1"
     objecttolerance="10"
     gridtolerance="10"
     guidetolerance="10"
     inkscape:pageopacity="0"
     inkscape:pageshadow="2"
     inkscape:window-width="1087"
     inkscape:window-height="769"
     id="namedview10"
     showgrid="false"
     inkscape:zoom="4.4220702"
     inkscape:cx="90.350523"
     inkscape:cy="49.414139"
     inkscape:window-x="162"
     inkscape:window-y="0"
     inkscape:window-maximized="0"
     inkscape:current-layer="layer1" />
  <g
     inkscape:groupmode="layer"
     id="layer3"
     inkscape:label="perrito 1"
     style="display:inline">
    <path
       style="fill:#f2f2f2;fill-opacity:0.66161615;fill-rule:evenodd;stroke:none;stroke-width:1px;stroke-linecap:butt;stroke-linejoin:miter;stroke-opacity:1"
       d="m 143.35694,129.47172 -6.2436,0.28379 -8.93972,0.28381 -5.2503,0.56759 -8.65591,1.13521 -9.64922,2.2704 -2.838,0.7095 -1.2771,4.5408 -2.838015,2.55421 -3.1218,3.40561 -0.9933,1.5609 17.311825,-2.41231 20.85933,-2.6961 13.90622,-1.8447 10.50061,-1.2771 -7.23691,-0.8514 -3.8313,-2.97991 -1.56091,-3.4056 z"
       id="path4164"
       inkscape:connector-curvature="0" />
    <path
       style="fill:#f2f2f2;fill-opacity:0.66161615;fill-rule:evenodd;stroke:none;stroke-width:1px;stroke-linecap:butt;stroke-linejoin:miter;stroke-opacity:1"
       d="m 145.05975,124.9309 -1.2771,2.69611 0.2838,1.84471 -8.37211,0.1419 -5.53411,-0.4257 -3.9732,-0.56761 -3.54751,-0.8514 -5.25031,-0.8514 -5.53411,-1.2771 -5.5341,-1.8447 -4.25701,-2.4123 -2.554202,-2.27041 -2.97991,-3.68941 -3.1218,-2.1285 -3.8313,-1.8447 -5.25031,-0.1419 -5.67601,0.99331 -3.6894,1.84469 -3.12181,2.83801 -2.97991,3.6894 -1.5609,4.11511 -0.70949,3.4056 0,4.39891 1.41899,2.69611 1.13521,3.8313 1.8447,2.5542 2.12851,2.2704 5.3922,2.41231 2.4123,0.7095 1.56091,0.5676 -2.97991,1.8447 -1.8447,1.9866 -1.5609,2.4123 -0.1419,2.83801 0.1419,2.9799 1.419,2.97991 2.838,2.1285 4.39891,0.9933 72.652902,8.79782 -0.2838,1.84469 -1.8447,1.98661 -2.27041,1.2771 -4.8246,-0.4257 -101.174842,-0.2838 -4.82461,-0.7095 -2.9799,-1.7028 -3.12181,-1.84471 -2.838,-2.838 -1.7028,-4.11511 -1.2771,-4.82461 0.14189,-4.257 0.8514,-3.2637 1.7028,-4.11511 2.55421,-3.2637 2.1285,-1.9866 2.2704,-0.9933 -4.6827,-0.2838 -4.68271,-0.42571 -4.3989,-1.5609 -5.25031,-3.1218 -3.4056,-3.5475 -3.12181,-3.54751 -2.838,-5.25031 -2.4123099,-3.9732 -1.41899,-3.2637 4.1150999,-3.68941 3.68941,-3.40561 5.8179,-3.6894 4.39891,-2.12851 4.257,-1.41899 5.10841,-0.56761 4.68271,1.1352 3.5475,1.27711 4.257,2.838 2.12851,1.5609 3.40561,3.68941 5.3922,-3.97321 4.96651,-3.54751 3.4056,-1.98659 6.95311,-2.55421 4.68271,-1.2771 3.2637,-0.1419 4.68271,-0.1419 4.96651,1.2771 4.8246,1.419 4.966512,2.4123 2.9799,2.27041 2.55421,1.419 3.6894,3.4056 2.97991,2.838 3.9732,2.83801 3.97321,1.5609 3.83131,1.13521 7.09501,1.5609 4.8246,0.4257 z"
       id="path4166"
       inkscape:connector-curvature="0" />
    <path
       style="fill:#d7b58b;fill-rule:evenodd;stroke:none;stroke-width:1px;stroke-linecap:butt;stroke-linejoin:miter;stroke-opacity:1;fill-opacity:1"
       d="m 131.27986,129.06212 -8.62912,-1.80608 -7.42506,-0.80272 -7.82641,-2.40812 -5.41828,-2.60881 -4.414902,-5.01692 -4.01354,-3.41151 -3.21084,-1.40475 -8.22776,-0.40135 -6.22099,2.20745 -3.41151,2.40812 -3.21084,4.41491 -2.40812,5.01692 -0.40136,6.82303 1.60541,6.02031 2.80949,3.81286 3.01016,2.20745 8.02708,-7.62573 -1.40474,-2.40812 0.80271,-4.01355 1.8061,-2.60879 2.6088,-2.00678 4.4149,0 3.01016,1.60541 2.00677,3.01016 0.80271,3.21084 -0.80271,3.21083 5.217602,2.20746 1.8061,-3.81287 3.41151,-1.60542 6.22099,-1.20406 z"
       id="path4168"
       inkscape:connector-curvature="0" />
    <path
       style="fill:#d7b58b;fill-rule:evenodd;stroke:none;stroke-width:1px;stroke-linecap:butt;stroke-linejoin:miter;stroke-opacity:1;fill-opacity:1"
       d="m 100.57625,138.49396 -4.214224,4.81625 -2.80948,2.20744 -4.61558,1.8061 -5.2176,0.40135 -4.01355,-1.00338 -3.81286,-1.40474 -2.40813,-1.60542 6.62235,-7.22438 1.80609,0.40136 2.80948,2.80948 2.00677,0.60204 3.41152,0 2.20745,-1.60542 3.01015,-3.01016 z"
       id="path4170"
       inkscape:connector-curvature="0" />
    <path
       style="fill:#642e17;fill-rule:evenodd;stroke:none;stroke-width:1px;stroke-linecap:butt;stroke-linejoin:miter;stroke-opacity:1;fill-opacity:1"
       d="m 160.57872,130.86822 1.00339,-3.61218 -1.40475,-4.01355 -3.41151,-2.20745 -3.81286,-1.00338 -4.01355,1.20406 -3.41151,2.60881 -1.60542,3.01015 -0.40135,4.61558 1.40474,3.01015 2.20745,2.60881 3.81286,1.40474 3.01016,0.20068 -15.65282,2.20744 -54.18283,7.02371 -3.81287,0.8027 -3.21083,3.01016 -0.80272,2.40813 -0.60202,3.01015 1.40474,4.21423 1.80609,2.40812 3.61219,2.20745 74.65191,9.03047 0,-2.80948 -2.40813,-1.60541 -4.21422,-1.00339 -8.42844,-1.20407 -49.36658,-7.42506 -3.01016,-1.80608 -0.60203,-3.41151 1.20406,-2.00678 1.60542,-1.40474 61.00586,-9.23115 2.80948,-1.00339 1.60541,-2.40812 0,-1.60542 2.60881,-0.80271 1.80609,-2.00677 0.20068,-2.20744 z"
       id="path4172"
       inkscape:connector-curvature="0" />
    <path
       style="fill:#ffffff;fill-rule:evenodd;stroke:none;stroke-width:1px;stroke-linecap:butt;stroke-linejoin:miter;stroke-opacity:1"
       d="m 152.93898,143.15115 -12.59145,1.79879 1.79878,3.18244 1.10694,3.45919 0.55347,3.04409 0.4151,4.01266 -0.55347,2.90572 2.76735,-0.96856 2.62899,-2.35226 2.07551,-4.01265 0.96858,-3.4592 0.55347,-4.01266 z"
       id="path4177"
       inkscape:connector-curvature="0" />
    <path
       style="fill:#ffffff;fill-rule:evenodd;stroke:none;stroke-width:1px;stroke-linecap:butt;stroke-linejoin:miter;stroke-opacity:1"
       d="m 135.91977,145.78013 -11.89962,1.66042 1.10694,1.66041 1.38368,2.49061 0.55347,4.70451 0.27673,4.2894 0,1.10693 1.93715,-0.83021 2.35225,-1.6604 1.93715,-2.76736 1.10694,-3.87429 1.24531,-4.56613 z"
       id="path4179"
       inkscape:connector-curvature="0" />
    <path
       style="fill:#ffffff;fill-rule:evenodd;stroke:none;stroke-width:1px;stroke-linecap:butt;stroke-linejoin:miter;stroke-opacity:1"
       d="m 119.03892,148.27075 -0.13836,3.04409 -0.96858,3.18245 -1.93714,3.32083 -3.59756,1.93715 -2.35225,0.83021 -0.96857,0.13835 0.8302,-4.15102 0,-3.04408 -1.24531,-2.62899 -0.27673,-0.96857 z"
       id="path4181"
       inkscape:connector-curvature="0" />
    <path
       style="fill:#ffffff;fill-rule:evenodd;stroke:none;stroke-width:1px;stroke-linecap:butt;stroke-linejoin:miter;stroke-opacity:1"
       d="m 103.26502,150.48464 -7.886964,1.38367 1.52205,1.66042 0.8302,1.93714 0.96858,1.52205 -0.13837,2.62898 1.660414,-0.69184 1.93715,-2.35225 0.96857,-2.90572 z"
       id="path4183"
       inkscape:connector-curvature="0" />
    <circle
       style="opacity:1;fill:#ffffff;fill-opacity:1;stroke:none;stroke-width:1.70000005;stroke-miterlimit:4;stroke-dasharray:none;stroke-opacity:1"
       id="path5684"
       cx="-88.517624"
       cy="133.08432"
       r="7.292964"
       transform="scale(-1,1)" />
  </g>
  <path
     d=""
     style="fill:none;stroke:#000000;stroke-width:8;stroke-linecap:round;stroke-linejoin:round"
     id="path8"
     inkscape:connector-curvature="0" />
  <g
     inkscape:groupmode="layer"
     id="layer1"
     inkscape:label="perrito"
     style="display:inline">
    <path
       d="m 152.85883,179.39656 0,0 -77.071862,0 c -10.01545,1e-5 -18.13457,-8.11911 -18.13457,-18.13455 0,-8.95225 6.48683,-16.38942 15.01653,-17.86753 m 80.189902,36.00208 c 2.50386,-1e-5 4.53363,-2.02977 4.53363,-4.53363 1e-5,-2.50386 -2.02977,-4.53364 -4.53363,-4.53365 l 0,0 -58.937312,-9.06727 c -2.50386,0 -4.53364,-2.02979 -4.53364,-4.53365 0,-2.50385 2.02978,-4.53363 4.53364,-4.53363 l 0,0 58.937312,-9.06728 m -68.004592,4.53364 0,0 0,0 c -5.00772,0 -9.06727,4.05956 -9.06727,9.06727 l 0,0 c -1e-5,5.00773 4.05955,9.0673 9.06727,9.0673 m 68.004592,-22.66821 c 2.50386,-1e-5 4.53363,-2.02978 4.53363,-4.53363 l 0,0 m -72.538222,27.20184 0,0 72.538222,9.06727 m -72.538222,-27.20184 0,0 72.538222,-9.06727 -72.538222,9.06727 m 68.004592,-27.20183 0,0 c 4.58202,-0.28381 10.34438,3.63385 8.21588,9.77677 m -8.21588,-9.77677 c -5.00771,0 -9.06727,4.05955 -9.06728,9.06727 l 0,0 c -18.34445,0 -34.14417,2.17905 -41.28117,5.31357 m 54.88208,3.75372 0,0 -4.53363,0 c -5.00772,0 -9.06728,-4.05957 -9.06728,-9.06729 m 9.06728,9.06729 4.53363,0 m -57.424612,-19.1711 c 0.846862,0.95761 2.033212,1.87375 3.518052,2.73613 7.53476,4.37608 22.75567,7.36768 40.30565,7.36768 l 0,0 m -77.071882,0 c 0,10.01545 8.11913,18.13457 18.13457,18.13456 l 0,0 c 10.01544,0 18.134562,-8.11911 18.134552,-18.13456 l 0,0 c 1e-5,-10.01544 -8.119112,-18.13456 -18.134552,-18.13456 l 0,0 c -10.01544,-1e-5 -18.13457,8.11912 -18.13457,18.13456 m 45.336402,-13.60092 c -18.134552,-18.13455 -37.780332,-18.13455 -58.937312,0 m 58.937312,0 c 6.04485,6.04486 17.33285,9.20919 32.44499,9.20919 m -95.915942,17.99265 c -10.01544,0 -18.13455,8.11911 -18.13455,18.13456 0,10.01544 8.11911,18.13455 18.13455,18.13455 l 0,0 27.20185,0 M 48.585118,143.12745 C 30.450568,149.1723 16.849648,141.61624 7.7823781,120.45926 M 53.118758,115.92561 C 41.029048,100.81348 25.916928,102.3247 7.7823781,120.45926 m 45.3363799,-4.53365 c 4.37047,7.60577 0.51791,13.91316 -3.82413,15.09088 -6.82531,2.27039 -12.82764,-3.94479 -9.42204,-9.84773 m 112.986242,21.95869 c 0,10.01544 -4.05956,18.13456 -9.06728,18.13456 1.20985,-6.81358 -1.17558,-13.09964 -3.06323,-16.16818 m -4.56764,0.68817 c -0.70407,8.65174 -4.31515,15.6219 -8.80089,15.6219 0,-5.93125 -1.0886,-11.50658 -2.77935,-13.59 m -5.29462,0.55669 c 0,7.51158 -5.05286,12.18191 -10.06058,12.18191 1.2771,-6.80622 0.44067,-7.87549 -0.63702,-10.36198 m -5.03182,0.58521 c -1e-5,5.00773 -2.31359,8.49967 -4.817452,8.49967 0,-2.91691 -1.28106,-5.35867 -3.34046,-7.25768 m -10.54425,-49.69303 0,0 m 72.538222,36.26913 c 2.50387,0 4.53365,-2.02978 4.53365,-4.53365 0,-2.50386 -1.82911,-3.73092 -4.33297,-3.73092 l 0,0 -3.53024,-2e-5 c 0,0 -3.71871,-0.26371 -2.51465,-3.8759"
       style="fill:none;stroke:#000200;stroke-width:1.2;stroke-linecap:round;stroke-linejoin:round;stroke-miterlimit:4;stroke-dasharray:none;stroke-opacity:1"
       id="path4"
       inkscape:connector-curvature="0"
       sodipodi:nodetypes="ccssccscccscccccccccccccccccccccccccccscccccsccccscccccccccccccccsccccccccccccccccccccccccc" />
    <circle
       style="opacity:0.85500004;fill:none;stroke:#000000;stroke-width:1.41940069;stroke-miterlimit:4;stroke-dasharray:none;stroke-opacity:1"
       id="path4159"
       cx="-88.441566"
       cy="133.01921"
       r="7.4848928"
       transform="scale(-1,1)" />
    <circle
       style="opacity:0.85500004;fill:none;stroke:#000000;stroke-width:1.85613942;stroke-miterlimit:4;stroke-dasharray:none;stroke-opacity:1"
       id="path4161"
       cx="-88.993393"
       cy="133.5159"
       r="2.4055073"
       transform="scale(-1,1)" />
  </g>
</svg>
